%TF.GenerationSoftware,KiCad,Pcbnew,7.0.9*%
%TF.CreationDate,2024-11-24T18:14:13+08:00*%
%TF.ProjectId,node_v0.1,6e6f6465-5f76-4302-9e31-2e6b69636164,rev?*%
%TF.SameCoordinates,Original*%
%TF.FileFunction,Copper,L1,Top*%
%TF.FilePolarity,Positive*%
%FSLAX46Y46*%
G04 Gerber Fmt 4.6, Leading zero omitted, Abs format (unit mm)*
G04 Created by KiCad (PCBNEW 7.0.9) date 2024-11-24 18:14:13*
%MOMM*%
%LPD*%
G01*
G04 APERTURE LIST*
G04 Aperture macros list*
%AMRoundRect*
0 Rectangle with rounded corners*
0 $1 Rounding radius*
0 $2 $3 $4 $5 $6 $7 $8 $9 X,Y pos of 4 corners*
0 Add a 4 corners polygon primitive as box body*
4,1,4,$2,$3,$4,$5,$6,$7,$8,$9,$2,$3,0*
0 Add four circle primitives for the rounded corners*
1,1,$1+$1,$2,$3*
1,1,$1+$1,$4,$5*
1,1,$1+$1,$6,$7*
1,1,$1+$1,$8,$9*
0 Add four rect primitives between the rounded corners*
20,1,$1+$1,$2,$3,$4,$5,0*
20,1,$1+$1,$4,$5,$6,$7,0*
20,1,$1+$1,$6,$7,$8,$9,0*
20,1,$1+$1,$8,$9,$2,$3,0*%
%AMFreePoly0*
4,1,14,0.230680,0.111820,0.364320,-0.021821,0.377500,-0.053642,0.377500,-0.080000,0.364320,-0.111820,0.332500,-0.125000,-0.332500,-0.125000,-0.364320,-0.111820,-0.377500,-0.080000,-0.377500,0.080000,-0.364320,0.111820,-0.332500,0.125000,0.198860,0.125000,0.230680,0.111820,0.230680,0.111820,$1*%
%AMFreePoly1*
4,1,14,0.364320,0.111820,0.377500,0.080000,0.377501,0.053640,0.364318,0.021819,0.230680,-0.111820,0.198860,-0.125000,-0.332500,-0.125000,-0.364320,-0.111820,-0.377500,-0.080000,-0.377500,0.080000,-0.364320,0.111820,-0.332500,0.125000,0.332500,0.125000,0.364320,0.111820,0.364320,0.111820,$1*%
%AMFreePoly2*
4,1,15,0.053642,0.377500,0.080000,0.377500,0.111820,0.364320,0.125000,0.332500,0.125000,-0.332500,0.111820,-0.364320,0.080000,-0.377500,-0.080000,-0.377500,-0.111820,-0.364320,-0.125000,-0.332500,-0.125000,0.198860,-0.111820,0.230680,0.021820,0.364320,0.053640,0.377501,0.053642,0.377500,0.053642,0.377500,$1*%
%AMFreePoly3*
4,1,14,-0.021820,0.364320,0.111820,0.230679,0.125001,0.198860,0.125000,-0.332500,0.111820,-0.364320,0.080000,-0.377500,-0.080000,-0.377500,-0.111820,-0.364320,-0.125000,-0.332500,-0.125000,0.332500,-0.111820,0.364320,-0.080000,0.377500,-0.053640,0.377500,-0.021820,0.364320,-0.021820,0.364320,$1*%
%AMFreePoly4*
4,1,14,0.364320,0.111820,0.377500,0.080000,0.377500,-0.080000,0.364320,-0.111820,0.332500,-0.125000,-0.198860,-0.125001,-0.230680,-0.111818,-0.364320,0.021820,-0.377500,0.053640,-0.377500,0.080000,-0.364320,0.111820,-0.332500,0.125000,0.332500,0.125000,0.364320,0.111820,0.364320,0.111820,$1*%
%AMFreePoly5*
4,1,15,-0.198858,0.125000,0.332500,0.125000,0.364320,0.111820,0.377500,0.080000,0.377500,-0.080000,0.364320,-0.111820,0.332500,-0.125000,-0.332500,-0.125000,-0.364320,-0.111820,-0.377500,-0.080000,-0.377500,-0.053640,-0.364320,-0.021820,-0.230680,0.111820,-0.198860,0.125001,-0.198858,0.125000,-0.198858,0.125000,$1*%
%AMFreePoly6*
4,1,14,0.111820,0.364320,0.125000,0.332500,0.125001,-0.198860,0.111818,-0.230680,-0.021820,-0.364320,-0.053640,-0.377500,-0.080000,-0.377500,-0.111820,-0.364320,-0.125000,-0.332500,-0.125000,0.332500,-0.111820,0.364320,-0.080000,0.377500,0.080000,0.377500,0.111820,0.364320,0.111820,0.364320,$1*%
%AMFreePoly7*
4,1,14,0.111820,0.364320,0.125000,0.332500,0.125000,-0.332500,0.111820,-0.364320,0.080000,-0.377500,0.053640,-0.377501,0.021819,-0.364318,-0.111820,-0.230680,-0.125000,-0.198860,-0.125000,0.332500,-0.111820,0.364320,-0.080000,0.377500,0.080000,0.377500,0.111820,0.364320,0.111820,0.364320,$1*%
G04 Aperture macros list end*
%TA.AperFunction,SMDPad,CuDef*%
%ADD10RoundRect,0.140000X-0.170000X0.140000X-0.170000X-0.140000X0.170000X-0.140000X0.170000X0.140000X0*%
%TD*%
%TA.AperFunction,SMDPad,CuDef*%
%ADD11RoundRect,0.237500X-0.237500X0.300000X-0.237500X-0.300000X0.237500X-0.300000X0.237500X0.300000X0*%
%TD*%
%TA.AperFunction,SMDPad,CuDef*%
%ADD12RoundRect,0.140000X-0.140000X-0.170000X0.140000X-0.170000X0.140000X0.170000X-0.140000X0.170000X0*%
%TD*%
%TA.AperFunction,SMDPad,CuDef*%
%ADD13RoundRect,0.140000X0.170000X-0.140000X0.170000X0.140000X-0.170000X0.140000X-0.170000X-0.140000X0*%
%TD*%
%TA.AperFunction,SMDPad,CuDef*%
%ADD14RoundRect,0.237500X0.237500X-0.300000X0.237500X0.300000X-0.237500X0.300000X-0.237500X-0.300000X0*%
%TD*%
%TA.AperFunction,ComponentPad*%
%ADD15R,1.700000X1.700000*%
%TD*%
%TA.AperFunction,ComponentPad*%
%ADD16O,1.700000X1.700000*%
%TD*%
%TA.AperFunction,SMDPad,CuDef*%
%ADD17R,1.000000X1.150000*%
%TD*%
%TA.AperFunction,SMDPad,CuDef*%
%ADD18RoundRect,0.135000X0.135000X0.185000X-0.135000X0.185000X-0.135000X-0.185000X0.135000X-0.185000X0*%
%TD*%
%TA.AperFunction,SMDPad,CuDef*%
%ADD19RoundRect,0.100000X-0.217500X-0.100000X0.217500X-0.100000X0.217500X0.100000X-0.217500X0.100000X0*%
%TD*%
%TA.AperFunction,SMDPad,CuDef*%
%ADD20RoundRect,0.160000X-0.160000X0.222500X-0.160000X-0.222500X0.160000X-0.222500X0.160000X0.222500X0*%
%TD*%
%TA.AperFunction,SMDPad,CuDef*%
%ADD21RoundRect,0.100000X-0.100000X0.217500X-0.100000X-0.217500X0.100000X-0.217500X0.100000X0.217500X0*%
%TD*%
%TA.AperFunction,SMDPad,CuDef*%
%ADD22RoundRect,0.135000X-0.185000X0.135000X-0.185000X-0.135000X0.185000X-0.135000X0.185000X0.135000X0*%
%TD*%
%TA.AperFunction,SMDPad,CuDef*%
%ADD23FreePoly0,0.000000*%
%TD*%
%TA.AperFunction,SMDPad,CuDef*%
%ADD24RoundRect,0.062500X-0.375000X-0.062500X0.375000X-0.062500X0.375000X0.062500X-0.375000X0.062500X0*%
%TD*%
%TA.AperFunction,SMDPad,CuDef*%
%ADD25FreePoly1,0.000000*%
%TD*%
%TA.AperFunction,SMDPad,CuDef*%
%ADD26FreePoly2,0.000000*%
%TD*%
%TA.AperFunction,SMDPad,CuDef*%
%ADD27RoundRect,0.062500X-0.062500X-0.375000X0.062500X-0.375000X0.062500X0.375000X-0.062500X0.375000X0*%
%TD*%
%TA.AperFunction,SMDPad,CuDef*%
%ADD28FreePoly3,0.000000*%
%TD*%
%TA.AperFunction,SMDPad,CuDef*%
%ADD29FreePoly4,0.000000*%
%TD*%
%TA.AperFunction,SMDPad,CuDef*%
%ADD30FreePoly5,0.000000*%
%TD*%
%TA.AperFunction,SMDPad,CuDef*%
%ADD31FreePoly6,0.000000*%
%TD*%
%TA.AperFunction,SMDPad,CuDef*%
%ADD32FreePoly7,0.000000*%
%TD*%
%TA.AperFunction,SMDPad,CuDef*%
%ADD33R,0.900000X1.000000*%
%TD*%
%TA.AperFunction,SMDPad,CuDef*%
%ADD34RoundRect,0.100000X0.100000X-0.217500X0.100000X0.217500X-0.100000X0.217500X-0.100000X-0.217500X0*%
%TD*%
%TA.AperFunction,ComponentPad*%
%ADD35C,2.082800*%
%TD*%
%TA.AperFunction,ComponentPad*%
%ADD36C,2.209800*%
%TD*%
%TA.AperFunction,SMDPad,CuDef*%
%ADD37R,0.650000X0.400000*%
%TD*%
%TA.AperFunction,SMDPad,CuDef*%
%ADD38RoundRect,0.237500X0.237500X-0.287500X0.237500X0.287500X-0.237500X0.287500X-0.237500X-0.287500X0*%
%TD*%
%TA.AperFunction,SMDPad,CuDef*%
%ADD39RoundRect,0.100000X0.217500X0.100000X-0.217500X0.100000X-0.217500X-0.100000X0.217500X-0.100000X0*%
%TD*%
%TA.AperFunction,SMDPad,CuDef*%
%ADD40R,2.000000X0.850000*%
%TD*%
%TA.AperFunction,SMDPad,CuDef*%
%ADD41RoundRect,0.140000X0.140000X0.170000X-0.140000X0.170000X-0.140000X-0.170000X0.140000X-0.170000X0*%
%TD*%
%TA.AperFunction,SMDPad,CuDef*%
%ADD42R,2.000000X0.650000*%
%TD*%
%TA.AperFunction,SMDPad,CuDef*%
%ADD43C,0.250000*%
%TD*%
%TA.AperFunction,SMDPad,CuDef*%
%ADD44R,1.150000X1.000000*%
%TD*%
%TA.AperFunction,SMDPad,CuDef*%
%ADD45RoundRect,0.135000X0.185000X-0.135000X0.185000X0.135000X-0.185000X0.135000X-0.185000X-0.135000X0*%
%TD*%
%TA.AperFunction,SMDPad,CuDef*%
%ADD46RoundRect,0.135000X-0.135000X-0.185000X0.135000X-0.185000X0.135000X0.185000X-0.135000X0.185000X0*%
%TD*%
%TA.AperFunction,SMDPad,CuDef*%
%ADD47RoundRect,0.237500X-0.300000X-0.237500X0.300000X-0.237500X0.300000X0.237500X-0.300000X0.237500X0*%
%TD*%
%TA.AperFunction,SMDPad,CuDef*%
%ADD48RoundRect,0.075000X-0.075000X-0.325000X0.075000X-0.325000X0.075000X0.325000X-0.075000X0.325000X0*%
%TD*%
%TA.AperFunction,SMDPad,CuDef*%
%ADD49RoundRect,0.075000X0.325000X-0.075000X0.325000X0.075000X-0.325000X0.075000X-0.325000X-0.075000X0*%
%TD*%
%TA.AperFunction,SMDPad,CuDef*%
%ADD50R,2.700000X2.700000*%
%TD*%
%TA.AperFunction,SMDPad,CuDef*%
%ADD51RoundRect,0.250000X1.250000X-0.550000X1.250000X0.550000X-1.250000X0.550000X-1.250000X-0.550000X0*%
%TD*%
%TA.AperFunction,SMDPad,CuDef*%
%ADD52RoundRect,0.250000X2.500000X-0.250000X2.500000X0.250000X-2.500000X0.250000X-2.500000X-0.250000X0*%
%TD*%
%TA.AperFunction,ViaPad*%
%ADD53C,0.450000*%
%TD*%
%TA.AperFunction,ViaPad*%
%ADD54C,4.000000*%
%TD*%
%TA.AperFunction,ViaPad*%
%ADD55C,0.550000*%
%TD*%
%TA.AperFunction,Conductor*%
%ADD56C,0.200000*%
%TD*%
%TA.AperFunction,Conductor*%
%ADD57C,0.350000*%
%TD*%
%TA.AperFunction,Conductor*%
%ADD58C,0.152400*%
%TD*%
%TA.AperFunction,Conductor*%
%ADD59C,0.230000*%
%TD*%
%TA.AperFunction,Conductor*%
%ADD60C,0.300000*%
%TD*%
%TA.AperFunction,Conductor*%
%ADD61C,0.400000*%
%TD*%
%TA.AperFunction,Conductor*%
%ADD62C,0.100000*%
%TD*%
%TA.AperFunction,Conductor*%
%ADD63C,0.250000*%
%TD*%
%TA.AperFunction,Conductor*%
%ADD64C,0.500000*%
%TD*%
%TA.AperFunction,Conductor*%
%ADD65C,0.156000*%
%TD*%
%TA.AperFunction,Conductor*%
%ADD66C,1.000000*%
%TD*%
%TA.AperFunction,Conductor*%
%ADD67C,0.410000*%
%TD*%
G04 APERTURE END LIST*
D10*
%TO.P,C34,1*%
%TO.N,GND*%
X88600000Y-68540000D03*
%TO.P,C34,2*%
%TO.N,Net-(J3-Pin_1)*%
X88600000Y-69500000D03*
%TD*%
D11*
%TO.P,C33,1*%
%TO.N,GND*%
X125700000Y-62197500D03*
%TO.P,C33,2*%
%TO.N,+3.3V*%
X125700000Y-63922500D03*
%TD*%
D12*
%TO.P,C32,1*%
%TO.N,GND*%
X124740000Y-65300000D03*
%TO.P,C32,2*%
%TO.N,+3.3V*%
X125700000Y-65300000D03*
%TD*%
D10*
%TO.P,C31,1*%
%TO.N,GND*%
X106300000Y-65720000D03*
%TO.P,C31,2*%
%TO.N,+3.3V*%
X106300000Y-66680000D03*
%TD*%
D13*
%TO.P,C30,1*%
%TO.N,GND*%
X106400000Y-70380000D03*
%TO.P,C30,2*%
%TO.N,+3.3V*%
X106400000Y-69420000D03*
%TD*%
D14*
%TO.P,C29,1*%
%TO.N,GND*%
X105100000Y-71362500D03*
%TO.P,C29,2*%
%TO.N,+3.3V*%
X105100000Y-69637500D03*
%TD*%
D13*
%TO.P,C28,1*%
%TO.N,GND*%
X113100000Y-69880000D03*
%TO.P,C28,2*%
%TO.N,+3.3V*%
X113100000Y-68920000D03*
%TD*%
D15*
%TO.P,J5,1,Pin_1*%
%TO.N,+3.3V*%
X97075000Y-65100000D03*
D16*
%TO.P,J5,2,Pin_2*%
%TO.N,Net-(J5-Pin_2)*%
X94535000Y-65100000D03*
%TD*%
D17*
%TO.P,Y1,1,1*%
%TO.N,Net-(U1-PC15)*%
X103600000Y-68075000D03*
%TO.P,Y1,2,2*%
%TO.N,GND*%
X103600000Y-66325000D03*
%TO.P,Y1,3,3*%
%TO.N,Net-(U1-PC14)*%
X102200000Y-66325000D03*
%TO.P,Y1,4,4*%
%TO.N,GND*%
X102200000Y-68075000D03*
%TD*%
D18*
%TO.P,R2,1*%
%TO.N,+3.3V*%
X103510000Y-72100000D03*
%TO.P,R2,2*%
%TO.N,~{RESET}*%
X102490000Y-72100000D03*
%TD*%
D14*
%TO.P,C23,1*%
%TO.N,GND*%
X118890000Y-72212500D03*
%TO.P,C23,2*%
%TO.N,+3.3V*%
X118890000Y-70487500D03*
%TD*%
D12*
%TO.P,C13,1*%
%TO.N,Net-(U2-RFI_P)*%
X128120000Y-68900000D03*
%TO.P,C13,2*%
%TO.N,GND*%
X129080000Y-68900000D03*
%TD*%
D19*
%TO.P,L6,1,1*%
%TO.N,Net-(C18-Pad1)*%
X144492500Y-67700000D03*
%TO.P,L6,2,2*%
%TO.N,Net-(AE1-A)*%
X145307500Y-67700000D03*
%TD*%
D20*
%TO.P,L2,2,2*%
%TO.N,Net-(C8-Pad2)*%
X129400000Y-66772500D03*
%TO.P,L2,1,1*%
%TO.N,/Lora/VR_PA*%
X129400000Y-65627500D03*
%TD*%
D15*
%TO.P,J4,1,Pin_1*%
%TO.N,+3.3V*%
X111560000Y-56800000D03*
D16*
%TO.P,J4,2,Pin_2*%
%TO.N,Net-(J4-Pin_2)*%
X109020000Y-56800000D03*
%TO.P,J4,3,Pin_3*%
%TO.N,Net-(J4-Pin_3)*%
X106480000Y-56800000D03*
%TO.P,J4,4,Pin_4*%
%TO.N,/MCU/PA15*%
X103940000Y-56800000D03*
%TO.P,J4,5,Pin_5*%
%TO.N,Net-(J4-Pin_5)*%
X101400000Y-56800000D03*
%TO.P,J4,6,Pin_6*%
%TO.N,Net-(J4-Pin_6)*%
X98860000Y-56800000D03*
%TO.P,J4,7,Pin_7*%
%TO.N,Net-(J4-Pin_7)*%
X96320000Y-56800000D03*
%TO.P,J4,8,Pin_8*%
%TO.N,GND*%
X93780000Y-56800000D03*
%TD*%
D15*
%TO.P,J1,1,Pin_1*%
%TO.N,GND*%
X115660000Y-56800000D03*
D16*
%TO.P,J1,2,Pin_2*%
%TO.N,/MCU/SWCLK*%
X118200000Y-56800000D03*
%TO.P,J1,3,Pin_3*%
%TO.N,/MCU/SWDIO*%
X120740000Y-56800000D03*
%TO.P,J1,4,Pin_4*%
%TO.N,~{RESET}*%
X123280000Y-56800000D03*
%TO.P,J1,5,Pin_5*%
%TO.N,+3.3V*%
X125820000Y-56800000D03*
%TD*%
D21*
%TO.P,C20,1*%
%TO.N,Net-(C18-Pad1)*%
X143600000Y-67692500D03*
%TO.P,C20,2*%
%TO.N,GND*%
X143600000Y-68507500D03*
%TD*%
D14*
%TO.P,C22,1*%
%TO.N,GND*%
X117400000Y-72212500D03*
%TO.P,C22,2*%
%TO.N,+3.3V*%
X117400000Y-70487500D03*
%TD*%
D22*
%TO.P,R4,1*%
%TO.N,LORA_ANT_SW*%
X140800000Y-64310000D03*
%TO.P,R4,2*%
%TO.N,Net-(U3-~{CTRL})*%
X140800000Y-65330000D03*
%TD*%
D12*
%TO.P,C2,1*%
%TO.N,GND*%
X102420000Y-69500000D03*
%TO.P,C2,2*%
%TO.N,Net-(U1-PC15)*%
X103380000Y-69500000D03*
%TD*%
D13*
%TO.P,C4,1*%
%TO.N,GND*%
X124500000Y-63380000D03*
%TO.P,C4,2*%
%TO.N,Net-(U2-XTA)*%
X124500000Y-62420000D03*
%TD*%
D23*
%TO.P,U1,1,VDD*%
%TO.N,+3.3V*%
X107802500Y-66900000D03*
D24*
%TO.P,U1,2,PC14*%
%TO.N,Net-(U1-PC14)*%
X107862500Y-67400000D03*
%TO.P,U1,3,PC15*%
%TO.N,Net-(U1-PC15)*%
X107862500Y-67900000D03*
%TO.P,U1,4,NRST*%
%TO.N,~{RESET}*%
X107862500Y-68400000D03*
%TO.P,U1,5,VDDA*%
%TO.N,+3.3V*%
X107862500Y-68900000D03*
%TO.P,U1,6,PA0*%
%TO.N,Net-(D1-A)*%
X107862500Y-69400000D03*
D25*
%TO.P,U1,7,PA1*%
%TO.N,Net-(U1-PA1)*%
X107802500Y-69900000D03*
D26*
%TO.P,U1,8,PA2*%
%TO.N,Net-(J2-Pin_2)*%
X108300000Y-70397500D03*
D27*
%TO.P,U1,9,PA3*%
%TO.N,Net-(J2-Pin_1)*%
X108800000Y-70337500D03*
%TO.P,U1,10,PA4*%
%TO.N,~{LORA_CS}*%
X109300000Y-70337500D03*
%TO.P,U1,11,PA5*%
%TO.N,SPI_SCLK*%
X109800000Y-70337500D03*
%TO.P,U1,12,PA6*%
%TO.N,SPI_MISO*%
X110300000Y-70337500D03*
%TO.P,U1,13,PA7*%
%TO.N,SPI_MOSI*%
X110800000Y-70337500D03*
D28*
%TO.P,U1,14,PB0*%
%TO.N,Net-(J4-Pin_3)*%
X111300000Y-70397500D03*
D29*
%TO.P,U1,15,PB1*%
%TO.N,Net-(J4-Pin_2)*%
X111797500Y-69900000D03*
D24*
%TO.P,U1,16,VSS*%
%TO.N,GND*%
X111737500Y-69400000D03*
%TO.P,U1,17,VDD*%
%TO.N,+3.3V*%
X111737500Y-68900000D03*
%TO.P,U1,18,PA8*%
%TO.N,~{LORA_RST}*%
X111737500Y-68400000D03*
%TO.P,U1,19,PA9*%
%TO.N,LORA_BUSY*%
X111737500Y-67900000D03*
%TO.P,U1,20,PA10*%
%TO.N,LORA_ANT_SW*%
X111737500Y-67400000D03*
D30*
%TO.P,U1,21,PA13*%
%TO.N,/MCU/SWDIO*%
X111797500Y-66900000D03*
D31*
%TO.P,U1,22,PA14*%
%TO.N,/MCU/SWCLK*%
X111300000Y-66402500D03*
D27*
%TO.P,U1,23,PA15*%
%TO.N,/MCU/PA15*%
X110800000Y-66462500D03*
%TO.P,U1,24,PB3*%
%TO.N,Net-(J4-Pin_5)*%
X110300000Y-66462500D03*
%TO.P,U1,25,PB6*%
%TO.N,Net-(J4-Pin_6)*%
X109800000Y-66462500D03*
%TO.P,U1,26,PB7*%
%TO.N,Net-(J4-Pin_7)*%
X109300000Y-66462500D03*
%TO.P,U1,27,BOOT0*%
%TO.N,Net-(U1-BOOT0)*%
X108800000Y-66462500D03*
D32*
%TO.P,U1,28,VSS*%
%TO.N,GND*%
X108300000Y-66402500D03*
%TD*%
D33*
%TO.P,SW1,1,1*%
%TO.N,Net-(U1-PA1)*%
X96750000Y-75900000D03*
X100850000Y-75900000D03*
%TO.P,SW1,2,2*%
%TO.N,GND*%
X96750000Y-77500000D03*
X100850000Y-77500000D03*
%TD*%
D34*
%TO.P,C10,2*%
%TO.N,GND*%
X133400000Y-65992500D03*
%TO.P,C10,1*%
%TO.N,Net-(C10-Pad1)*%
X133400000Y-66807500D03*
%TD*%
D13*
%TO.P,C17,1*%
%TO.N,Net-(U3-~{CTRL})*%
X141800000Y-65300000D03*
%TO.P,C17,2*%
%TO.N,GND*%
X141800000Y-64340000D03*
%TD*%
D12*
%TO.P,C25,1*%
%TO.N,GND*%
X89420000Y-66600000D03*
%TO.P,C25,2*%
%TO.N,Net-(J5-Pin_2)*%
X90380000Y-66600000D03*
%TD*%
D10*
%TO.P,C16,1*%
%TO.N,Net-(U3-CTRL)*%
X141800000Y-69920000D03*
%TO.P,C16,2*%
%TO.N,GND*%
X141800000Y-70880000D03*
%TD*%
D35*
%TO.P,AE1,1,A*%
%TO.N,Net-(AE1-A)*%
X151300000Y-67700000D03*
D36*
%TO.P,AE1,2,GND*%
%TO.N,GND*%
X153840000Y-65160000D03*
X148760000Y-65160000D03*
X153840000Y-70240000D03*
X148760000Y-70240000D03*
%TD*%
D37*
%TO.P,U3,1,RF1*%
%TO.N,Net-(U3-RF1)*%
X138850000Y-67050000D03*
%TO.P,U3,2,GND*%
%TO.N,GND*%
X138850000Y-67700000D03*
%TO.P,U3,3,RF2*%
%TO.N,Net-(U3-RF2)*%
X138850000Y-68350000D03*
%TO.P,U3,4,CTRL*%
%TO.N,Net-(U3-CTRL)*%
X140750000Y-68350000D03*
%TO.P,U3,5,RFC*%
%TO.N,Net-(U3-RFC)*%
X140750000Y-67700000D03*
%TO.P,U3,6,~{CTRL}*%
%TO.N,Net-(U3-~{CTRL})*%
X140750000Y-67050000D03*
%TD*%
D38*
%TO.P,D1,1,K*%
%TO.N,Net-(D1-K)*%
X93300000Y-77575000D03*
%TO.P,D1,2,A*%
%TO.N,Net-(D1-A)*%
X93300000Y-75825000D03*
%TD*%
D10*
%TO.P,C7,2*%
%TO.N,/Lora/VR_PA*%
X128400000Y-65580000D03*
%TO.P,C7,1*%
%TO.N,GND*%
X128400000Y-64620000D03*
%TD*%
D19*
%TO.P,L1,2,2*%
%TO.N,Net-(C8-Pad2)*%
X128307500Y-66800000D03*
%TO.P,L1,1,1*%
%TO.N,Net-(U2-RFO)*%
X127492500Y-66800000D03*
%TD*%
D34*
%TO.P,C9,2*%
%TO.N,GND*%
X130400000Y-65992500D03*
%TO.P,C9,1*%
%TO.N,Net-(C8-Pad2)*%
X130400000Y-66807500D03*
%TD*%
D21*
%TO.P,C19,1*%
%TO.N,Net-(AE1-A)*%
X146200000Y-67692500D03*
%TO.P,C19,2*%
%TO.N,GND*%
X146200000Y-68507500D03*
%TD*%
D39*
%TO.P,C11,2*%
%TO.N,Net-(C10-Pad1)*%
X134292500Y-66800000D03*
%TO.P,C11,1*%
%TO.N,Net-(C11-Pad1)*%
X135107500Y-66800000D03*
%TD*%
D40*
%TO.P,L8,1,1*%
%TO.N,Net-(U4-SW)*%
X92500000Y-69625000D03*
%TO.P,L8,2,2*%
%TO.N,Net-(J5-Pin_2)*%
X92500000Y-67975000D03*
%TD*%
D21*
%TO.P,C15,1*%
%TO.N,Net-(U3-RF2)*%
X130000000Y-68142500D03*
%TO.P,C15,2*%
%TO.N,GND*%
X130000000Y-68957500D03*
%TD*%
D41*
%TO.P,C1,1*%
%TO.N,GND*%
X103380000Y-64900000D03*
%TO.P,C1,2*%
%TO.N,Net-(U1-PC14)*%
X102420000Y-64900000D03*
%TD*%
D42*
%TO.P,L7,1,1*%
%TO.N,Net-(U2-VREG)*%
X117700000Y-67325000D03*
%TO.P,L7,2,2*%
%TO.N,Net-(U2-DCC_SW)*%
X117700000Y-68675000D03*
%TD*%
D43*
%TO.P,U4,A1,SW*%
%TO.N,Net-(U4-SW)*%
X90500000Y-69500000D03*
%TO.P,U4,A2,VIN*%
%TO.N,Net-(J3-Pin_1)*%
X90100000Y-69500000D03*
%TO.P,U4,B1,EN*%
X90500000Y-69100000D03*
%TO.P,U4,B2,GND*%
%TO.N,GND*%
X90100000Y-69100000D03*
%TO.P,U4,C1,VSEL1*%
%TO.N,Net-(J3-Pin_1)*%
X90500000Y-68700000D03*
%TO.P,U4,C2,VOS*%
%TO.N,Net-(J5-Pin_2)*%
X90100000Y-68700000D03*
%TO.P,U4,D1,VSEL2*%
%TO.N,Net-(J3-Pin_1)*%
X90500000Y-68300000D03*
%TO.P,U4,D2,VSEL3*%
X90100000Y-68300000D03*
%TD*%
D44*
%TO.P,Y2,1,1*%
%TO.N,Net-(U2-XTB)*%
X121425000Y-63600000D03*
%TO.P,Y2,2,2*%
%TO.N,GND*%
X123175000Y-63600000D03*
%TO.P,Y2,3,3*%
%TO.N,Net-(U2-XTA)*%
X123175000Y-62200000D03*
%TO.P,Y2,4,4*%
%TO.N,GND*%
X121425000Y-62200000D03*
%TD*%
D34*
%TO.P,C12,2*%
%TO.N,GND*%
X137800000Y-65992500D03*
%TO.P,C12,1*%
%TO.N,Net-(U3-RF1)*%
X137800000Y-66807500D03*
%TD*%
D45*
%TO.P,R3,1*%
%TO.N,/Lora/DIO2*%
X140800000Y-70910000D03*
%TO.P,R3,2*%
%TO.N,Net-(U3-CTRL)*%
X140800000Y-69890000D03*
%TD*%
D46*
%TO.P,R5,1*%
%TO.N,GND*%
X107190000Y-65000000D03*
%TO.P,R5,2*%
%TO.N,Net-(U1-BOOT0)*%
X108210000Y-65000000D03*
%TD*%
D21*
%TO.P,L5,1,1*%
%TO.N,Net-(U2-RFI_N)*%
X127200000Y-68092500D03*
%TO.P,L5,2,2*%
%TO.N,Net-(U2-RFI_P)*%
X127200000Y-68907500D03*
%TD*%
D13*
%TO.P,C24,1*%
%TO.N,GND*%
X120200000Y-71430000D03*
%TO.P,C24,2*%
%TO.N,+3.3V*%
X120200000Y-70470000D03*
%TD*%
D47*
%TO.P,C27,1*%
%TO.N,GND*%
X89437500Y-65400000D03*
%TO.P,C27,2*%
%TO.N,Net-(J5-Pin_2)*%
X91162500Y-65400000D03*
%TD*%
D48*
%TO.P,U2,1,VDD_IN*%
%TO.N,+3.3V*%
X124650000Y-66500000D03*
%TO.P,U2,2,GND*%
%TO.N,GND*%
X124150000Y-66500000D03*
%TO.P,U2,3,XTA*%
%TO.N,Net-(U2-XTA)*%
X123650000Y-66500000D03*
%TO.P,U2,4,XTB*%
%TO.N,Net-(U2-XTB)*%
X123150000Y-66500000D03*
%TO.P,U2,5,GND*%
%TO.N,GND*%
X122650000Y-66500000D03*
%TO.P,U2,6,DIO3*%
%TO.N,unconnected-(U2-DIO3-Pad6)*%
X122150000Y-66500000D03*
D49*
%TO.P,U2,7,VREG*%
%TO.N,Net-(U2-VREG)*%
X121400000Y-67250000D03*
%TO.P,U2,8,GND*%
%TO.N,GND*%
X121400000Y-67750000D03*
%TO.P,U2,9,DCC_SW*%
%TO.N,Net-(U2-DCC_SW)*%
X121400000Y-68250000D03*
%TO.P,U2,10,VBAT*%
%TO.N,+3.3V*%
X121400000Y-68750000D03*
%TO.P,U2,11,VBAT_IO*%
X121400000Y-69250000D03*
%TO.P,U2,12,DIO2*%
%TO.N,/Lora/DIO2*%
X121400000Y-69750000D03*
D48*
%TO.P,U2,13,DIO1*%
%TO.N,unconnected-(U2-DIO1-Pad13)*%
X122150000Y-70500000D03*
%TO.P,U2,14,BUSY*%
%TO.N,LORA_BUSY*%
X122650000Y-70500000D03*
%TO.P,U2,15,NRESET*%
%TO.N,~{LORA_RST}*%
X123150000Y-70500000D03*
%TO.P,U2,16,MISO*%
%TO.N,SPI_MISO*%
X123650000Y-70500000D03*
%TO.P,U2,17,MOSI*%
%TO.N,SPI_MOSI*%
X124150000Y-70500000D03*
%TO.P,U2,18,SCLK*%
%TO.N,SPI_SCLK*%
X124650000Y-70500000D03*
D49*
%TO.P,U2,19,NSS*%
%TO.N,~{LORA_CS}*%
X125400000Y-69750000D03*
%TO.P,U2,20,GND*%
%TO.N,GND*%
X125400000Y-69250000D03*
%TO.P,U2,21,RFI_P*%
%TO.N,Net-(U2-RFI_P)*%
X125400000Y-68750000D03*
%TO.P,U2,22,RFI_N*%
%TO.N,Net-(U2-RFI_N)*%
X125400000Y-68250000D03*
%TO.P,U2,23,RFO*%
%TO.N,Net-(U2-RFO)*%
X125400000Y-67750000D03*
%TO.P,U2,24,VR_PA*%
%TO.N,/Lora/VR_PA*%
X125400000Y-67250000D03*
D50*
%TO.P,U2,25,PAD*%
%TO.N,GND*%
X123500000Y-68500000D03*
%TD*%
D51*
%TO.P,J3,MP*%
%TO.N,N/C*%
X82650000Y-65200000D03*
X82650000Y-72000000D03*
D52*
%TO.P,J3,2,Pin_2*%
%TO.N,GND*%
X84900000Y-67600000D03*
%TO.P,J3,1,Pin_1*%
%TO.N,Net-(J3-Pin_1)*%
X84900000Y-69600000D03*
%TD*%
D39*
%TO.P,C18,1*%
%TO.N,Net-(C18-Pad1)*%
X142707500Y-67700000D03*
%TO.P,C18,2*%
%TO.N,Net-(U3-RFC)*%
X141892500Y-67700000D03*
%TD*%
D19*
%TO.P,L3,2,2*%
%TO.N,Net-(C10-Pad1)*%
X132307500Y-66800000D03*
%TO.P,L3,1,1*%
%TO.N,Net-(C8-Pad2)*%
X131492500Y-66800000D03*
%TD*%
D12*
%TO.P,C3,1*%
%TO.N,GND*%
X100520000Y-72100000D03*
%TO.P,C3,2*%
%TO.N,~{RESET}*%
X101480000Y-72100000D03*
%TD*%
D19*
%TO.P,L4,2,2*%
%TO.N,Net-(U3-RF1)*%
X136907500Y-66800000D03*
%TO.P,L4,1,1*%
%TO.N,Net-(C11-Pad1)*%
X136092500Y-66800000D03*
%TD*%
D13*
%TO.P,C21,1*%
%TO.N,GND*%
X119800000Y-68180000D03*
%TO.P,C21,2*%
%TO.N,Net-(U2-VREG)*%
X119800000Y-67220000D03*
%TD*%
D15*
%TO.P,J2,1,Pin_1*%
%TO.N,Net-(J2-Pin_1)*%
X110625000Y-76700000D03*
D16*
%TO.P,J2,2,Pin_2*%
%TO.N,Net-(J2-Pin_2)*%
X108085000Y-76700000D03*
%TO.P,J2,3,Pin_3*%
%TO.N,GND*%
X105545000Y-76700000D03*
%TD*%
D47*
%TO.P,C26,1*%
%TO.N,GND*%
X89437500Y-63900000D03*
%TO.P,C26,2*%
%TO.N,Net-(J5-Pin_2)*%
X91162500Y-63900000D03*
%TD*%
D39*
%TO.P,C8,2*%
%TO.N,Net-(C8-Pad2)*%
X131492500Y-65900000D03*
%TO.P,C8,1*%
%TO.N,Net-(C10-Pad1)*%
X132307500Y-65900000D03*
%TD*%
D10*
%TO.P,C5,1*%
%TO.N,GND*%
X120000000Y-62420000D03*
%TO.P,C5,2*%
%TO.N,Net-(U2-XTB)*%
X120000000Y-63380000D03*
%TD*%
D39*
%TO.P,C14,1*%
%TO.N,Net-(U3-RF2)*%
X129007500Y-68100000D03*
%TO.P,C14,2*%
%TO.N,Net-(U2-RFI_N)*%
X128192500Y-68100000D03*
%TD*%
D10*
%TO.P,C6,2*%
%TO.N,/Lora/VR_PA*%
X127400000Y-65580000D03*
%TO.P,C6,1*%
%TO.N,GND*%
X127400000Y-64620000D03*
%TD*%
D45*
%TO.P,R1,1*%
%TO.N,Net-(D1-K)*%
X94900000Y-77210000D03*
%TO.P,R1,2*%
%TO.N,GND*%
X94900000Y-76190000D03*
%TD*%
D53*
%TO.N,GND*%
X138600000Y-72000000D03*
X133700000Y-71900000D03*
X130000000Y-71900000D03*
X126900000Y-71900000D03*
X118100000Y-62800000D03*
X117000000Y-63800000D03*
X116000000Y-64800000D03*
X103800000Y-63100000D03*
X102300000Y-63100000D03*
X101100000Y-63100000D03*
X112900000Y-62900000D03*
X113700000Y-69900000D03*
X112900000Y-65700000D03*
X116800000Y-62000000D03*
X117700000Y-61000000D03*
X118800000Y-60000000D03*
X116100000Y-62500000D03*
X126100000Y-60200000D03*
X124800000Y-60200000D03*
X123200000Y-60200000D03*
X121700000Y-60200000D03*
X120400000Y-61200000D03*
X121200000Y-61200000D03*
X121900000Y-61200000D03*
X122600000Y-61200000D03*
X100900000Y-69500000D03*
X100900000Y-68800000D03*
X101500000Y-65000000D03*
X100900000Y-65700000D03*
X100900000Y-66500000D03*
X100900000Y-67300000D03*
X94000000Y-70300000D03*
X94000000Y-69600000D03*
X116500000Y-66300000D03*
X117200000Y-66300000D03*
X115900000Y-66900000D03*
X115900000Y-68300000D03*
X139800000Y-69600000D03*
X139800000Y-66800000D03*
X131400000Y-69600000D03*
X130600000Y-69300000D03*
X139100000Y-66100000D03*
X126200000Y-69400000D03*
X127600000Y-69600000D03*
X129600000Y-69500000D03*
X128800000Y-69500000D03*
X131000000Y-67600000D03*
X133000000Y-65200000D03*
X132300000Y-65200000D03*
X131600000Y-65200000D03*
X130900000Y-65200000D03*
X150500000Y-69300000D03*
X151500000Y-69500000D03*
X152600000Y-68900000D03*
X153000000Y-67900000D03*
X152700000Y-66600000D03*
X151700000Y-65900000D03*
X150400000Y-66100000D03*
X142700000Y-68800000D03*
X147200000Y-68800000D03*
X148300000Y-68800000D03*
X149600000Y-68800000D03*
X149500000Y-66600000D03*
X148300000Y-66600000D03*
X147200000Y-66600000D03*
X137000000Y-65900000D03*
X136100000Y-65900000D03*
X135200000Y-65900000D03*
X134200000Y-65900000D03*
X139800000Y-66100000D03*
X138400000Y-66100000D03*
X139200000Y-69600000D03*
D54*
%TO.N,*%
X151500000Y-56000000D03*
X151500000Y-78000000D03*
X83500000Y-78000000D03*
X83500000Y-56000000D03*
D53*
%TO.N,GND*%
X112700000Y-72100000D03*
X106300000Y-63300000D03*
X107400000Y-64000000D03*
X109100000Y-67700000D03*
X110600000Y-69100000D03*
X113600000Y-70600000D03*
X122500000Y-69400000D03*
X122600000Y-68500000D03*
X123500000Y-69400000D03*
X123500000Y-68500000D03*
X124400000Y-69400000D03*
X124400000Y-68500000D03*
X124400000Y-67600000D03*
X123500000Y-67600000D03*
X122600000Y-67600000D03*
X87000000Y-64750000D03*
X85900000Y-64900000D03*
X85900000Y-63800000D03*
X93800000Y-61200000D03*
X93800000Y-59400000D03*
X93800000Y-66900000D03*
X94700000Y-66900000D03*
X94000000Y-67700000D03*
X94000000Y-68300000D03*
X94000000Y-68900000D03*
X93424503Y-70600000D03*
X92800000Y-70600000D03*
X92100000Y-70600000D03*
X91400000Y-70600000D03*
X130700000Y-70100000D03*
X129300000Y-70100000D03*
X127900000Y-70100000D03*
X146000000Y-66600000D03*
X146200000Y-69500000D03*
X145400000Y-68800000D03*
X144400000Y-68800000D03*
X143600000Y-69500000D03*
X141700000Y-68800000D03*
X145000000Y-66600000D03*
X144000000Y-66600000D03*
X142900000Y-66600000D03*
X141900000Y-66600000D03*
X142800000Y-64300000D03*
X141800000Y-63400000D03*
X139800000Y-68700000D03*
X139800000Y-67400000D03*
X140900000Y-71900000D03*
X142000000Y-71900000D03*
X138500000Y-69600000D03*
X137600000Y-69600000D03*
X136700000Y-69600000D03*
X135700000Y-69600000D03*
X134700000Y-69600000D03*
X133700000Y-69600000D03*
X132800000Y-69600000D03*
X132100000Y-69600000D03*
X131700000Y-67700000D03*
X132700000Y-67700000D03*
X133700000Y-67700000D03*
X134700000Y-67700000D03*
X135700000Y-67700000D03*
X136900000Y-67700000D03*
X137800000Y-67700000D03*
X139800000Y-68100000D03*
X137600000Y-64700000D03*
X136400000Y-64700000D03*
X135100000Y-64700000D03*
X134100000Y-64700000D03*
X130100000Y-64700000D03*
X131600000Y-63800000D03*
X130100000Y-63800000D03*
X128500000Y-63800000D03*
X126400000Y-62200000D03*
X119500000Y-61300000D03*
X125100000Y-61200000D03*
X124500000Y-61200000D03*
X123800000Y-61200000D03*
X123200000Y-61200000D03*
X120600000Y-60200000D03*
X118900000Y-62300000D03*
X118900000Y-63500000D03*
X120100000Y-64500000D03*
X123800000Y-64700000D03*
X124500000Y-64300000D03*
X120500000Y-65700000D03*
X115900000Y-68900000D03*
X119100000Y-66300000D03*
X118500000Y-66300000D03*
X117875497Y-66300000D03*
X115900000Y-66100000D03*
X115900000Y-67600000D03*
X88300000Y-67000000D03*
X88300000Y-66000000D03*
X88300000Y-64900000D03*
X88300000Y-63800000D03*
X99300000Y-72900000D03*
X99300000Y-71900000D03*
X104800000Y-72700000D03*
X105800000Y-72700000D03*
X106200000Y-71400000D03*
X109100000Y-69100000D03*
X110600000Y-67700000D03*
X109800000Y-68400000D03*
X100900000Y-68100000D03*
X101800000Y-69500000D03*
X104400000Y-66300000D03*
X104300000Y-64900000D03*
X106300000Y-64800000D03*
%TO.N,Net-(J3-Pin_1)*%
X90300000Y-67600000D03*
X89257914Y-69810432D03*
%TO.N,Net-(J5-Pin_2)*%
X90780000Y-66500000D03*
%TO.N,GND*%
X126600000Y-69900000D03*
X121500000Y-65700000D03*
X119300000Y-68200000D03*
%TO.N,/Lora/DIO2*%
X140100000Y-71000000D03*
X121400000Y-70700000D03*
D55*
%TO.N,+3.3V*%
X126800000Y-63800000D03*
X118100000Y-70500000D03*
D53*
%TO.N,Net-(J4-Pin_3)*%
X111605731Y-64405731D03*
%TO.N,Net-(J4-Pin_2)*%
X112320231Y-63500000D03*
%TO.N,Net-(J4-Pin_3)*%
X111605731Y-71195274D03*
%TO.N,Net-(J4-Pin_2)*%
X112585500Y-71000000D03*
%TO.N,~{LORA_RST}*%
X122700000Y-72100000D03*
X114014500Y-71837522D03*
%TO.N,LORA_BUSY*%
X121700000Y-71700000D03*
X115115092Y-71756000D03*
%TO.N,SPI_MOSI*%
X123894772Y-73655500D03*
X121800000Y-73185500D03*
%TO.N,+3.3V*%
X113665723Y-69115024D03*
%TO.N,~{RESET}*%
X102000000Y-72100000D03*
X105600000Y-68700000D03*
%TD*%
D56*
%TO.N,GND*%
X139800000Y-68100000D02*
X139800000Y-67800000D01*
X138850000Y-67700000D02*
X139400000Y-67700000D01*
X139400000Y-67700000D02*
X139800000Y-68100000D01*
D57*
%TO.N,+3.3V*%
X120932236Y-69250000D02*
X121400000Y-69250000D01*
X120675000Y-69507236D02*
X120932236Y-69250000D01*
X120200000Y-70000000D02*
X120675000Y-69525000D01*
X120200000Y-70470000D02*
X120200000Y-70000000D01*
X120675000Y-69525000D02*
X120675000Y-69507236D01*
D58*
%TO.N,GND*%
X108438548Y-67038547D02*
X109100000Y-67700000D01*
X108300000Y-66402500D02*
X108438548Y-66541048D01*
X108438548Y-66541048D02*
X108438548Y-67038547D01*
D59*
%TO.N,Net-(J4-Pin_2)*%
X112000000Y-69900000D02*
X112600000Y-70500000D01*
X112600000Y-70500000D02*
X112600000Y-71000000D01*
X111797500Y-69900000D02*
X112000000Y-69900000D01*
X112600000Y-71000000D02*
X112585500Y-71000000D01*
%TO.N,GND*%
X118402500Y-72700000D02*
X118890000Y-72212500D01*
X113800000Y-72700000D02*
X118402500Y-72700000D01*
X113300000Y-72200000D02*
X113800000Y-72700000D01*
X113300000Y-70100000D02*
X113300000Y-72200000D01*
X112600000Y-69400000D02*
X113300000Y-70100000D01*
X111737500Y-69400000D02*
X112600000Y-69400000D01*
%TO.N,/MCU/SWDIO*%
X120700000Y-56800000D02*
X120740000Y-56800000D01*
X111797500Y-66900000D02*
X111797500Y-65702500D01*
X111797500Y-65702500D02*
X120700000Y-56800000D01*
%TO.N,/MCU/SWCLK*%
X118200000Y-58600000D02*
X118200000Y-56800000D01*
X111300000Y-66402500D02*
X111300000Y-65500000D01*
X111300000Y-65500000D02*
X118200000Y-58600000D01*
%TO.N,Net-(J4-Pin_2)*%
X112300000Y-63500000D02*
X109020000Y-60220000D01*
X112320231Y-63500000D02*
X112300000Y-63500000D01*
X109020000Y-60220000D02*
X109020000Y-56900000D01*
%TO.N,Net-(J4-Pin_3)*%
X106480000Y-58780000D02*
X106480000Y-56900000D01*
X111605731Y-64405731D02*
X111605731Y-63905731D01*
X111605731Y-63905731D02*
X106480000Y-58780000D01*
D57*
%TO.N,Net-(U2-DCC_SW)*%
X120100000Y-69000000D02*
X120500000Y-68600000D01*
X118425000Y-69000000D02*
X120100000Y-69000000D01*
X118100000Y-68675000D02*
X118425000Y-69000000D01*
D56*
%TO.N,GND*%
X119400000Y-68100000D02*
X119600000Y-68100000D01*
X119300000Y-68200000D02*
X119400000Y-68100000D01*
X120450000Y-67750000D02*
X121400000Y-67750000D01*
X120120000Y-68080000D02*
X120450000Y-67750000D01*
X119300000Y-68200000D02*
X119420000Y-68080000D01*
X119420000Y-68080000D02*
X120120000Y-68080000D01*
D60*
%TO.N,+3.3V*%
X125700000Y-65346846D02*
X124650000Y-66396846D01*
X124650000Y-66396846D02*
X124650000Y-66500000D01*
X125700000Y-65300000D02*
X125700000Y-65346846D01*
%TO.N,Net-(U2-RFO)*%
X126300000Y-67400000D02*
X126481039Y-67218961D01*
X125455026Y-67750010D02*
G75*
G03*
X126300000Y-67400000I-26J1195010D01*
G01*
X127492500Y-66799994D02*
G75*
G03*
X126481039Y-67218961I0J-1430406D01*
G01*
D56*
X125400000Y-67750000D02*
X125455026Y-67750000D01*
D60*
%TO.N,Net-(U2-RFI_P)*%
X127200011Y-68907489D02*
G75*
G03*
X126819762Y-68750000I-380211J-380211D01*
G01*
X125400000Y-68750000D02*
X126819762Y-68750000D01*
%TO.N,Net-(U2-RFI_N)*%
X126819762Y-68249983D02*
G75*
G03*
X127199999Y-68092499I38J537683D01*
G01*
X125400000Y-68250000D02*
X126819762Y-68250000D01*
D61*
%TO.N,Net-(U3-~{CTRL})*%
X141800000Y-65300000D02*
X140872426Y-65300000D01*
X140872426Y-65300011D02*
G75*
G03*
X140800000Y-65330000I-26J-102389D01*
G01*
%TO.N,Net-(U3-RF1)*%
X138849986Y-67050014D02*
G75*
G03*
X138246447Y-66800000I-603586J-603586D01*
G01*
X137792500Y-66800000D02*
X138246447Y-66800000D01*
%TO.N,Net-(U3-RF2)*%
X131524264Y-68600000D02*
X138246447Y-68600000D01*
X138246447Y-68599977D02*
G75*
G03*
X138849999Y-68349999I53J853477D01*
G01*
X129600000Y-68100000D02*
X130317158Y-68100000D01*
X130800011Y-68299989D02*
G75*
G03*
X131524264Y-68600000I724289J724289D01*
G01*
X130800013Y-68299987D02*
G75*
G03*
X130317158Y-68100000I-482813J-482813D01*
G01*
X129600000Y-68100000D02*
X129957500Y-68100000D01*
X129007500Y-68100000D02*
X129600000Y-68100000D01*
D59*
%TO.N,LORA_BUSY*%
X114178112Y-67878112D02*
X111759388Y-67878112D01*
X114810723Y-68510723D02*
X114178112Y-67878112D01*
X114810723Y-71451631D02*
X114810723Y-68510723D01*
X115115092Y-71756000D02*
X114810723Y-71451631D01*
X111759388Y-67878112D02*
X111737500Y-67900000D01*
D57*
%TO.N,/Lora/VR_PA*%
X126520000Y-65580000D02*
X125400000Y-66700000D01*
X125400000Y-66700000D02*
X125400000Y-67225000D01*
X127400000Y-65580000D02*
X126520000Y-65580000D01*
D59*
%TO.N,~{LORA_CS}*%
X125400000Y-74000000D02*
X125400000Y-69750000D01*
X109300000Y-71816224D02*
X112283776Y-74800000D01*
X112283776Y-74800000D02*
X124600000Y-74800000D01*
X124600000Y-74800000D02*
X125400000Y-74000000D01*
X109300000Y-70337500D02*
X109300000Y-71816224D01*
%TO.N,SPI_SCLK*%
X124650000Y-73911435D02*
X124650000Y-70500000D01*
X124191435Y-74370000D02*
X124650000Y-73911435D01*
X109800000Y-71708112D02*
X112461888Y-74370000D01*
X112461888Y-74370000D02*
X124191435Y-74370000D01*
X109800000Y-70337500D02*
X109800000Y-71708112D01*
D62*
%TO.N,Net-(U4-SW)*%
X92375000Y-69500000D02*
X92500000Y-69625000D01*
D57*
X90500000Y-69500000D02*
X92375000Y-69500000D01*
D59*
%TO.N,~{LORA_RST}*%
X112662652Y-68400000D02*
X111737500Y-68400000D01*
X112754540Y-68308112D02*
X112662652Y-68400000D01*
X114380723Y-71471299D02*
X114380723Y-68688835D01*
X114380723Y-68688835D02*
X114000000Y-68308112D01*
X114000000Y-68308112D02*
X112754540Y-68308112D01*
X114014500Y-71837522D02*
X114380723Y-71471299D01*
D62*
%TO.N,Net-(AE1-A)*%
X151292500Y-67692500D02*
X151300000Y-67700000D01*
D61*
X146200000Y-67692500D02*
X151292500Y-67692500D01*
D62*
X146192500Y-67700000D02*
X146200000Y-67692500D01*
D61*
X145307500Y-67700000D02*
X146192500Y-67700000D01*
%TO.N,Net-(C18-Pad1)*%
X142707500Y-67700000D02*
X144492500Y-67700000D01*
%TO.N,Net-(U3-RFC)*%
X141892500Y-67700000D02*
X140750000Y-67700000D01*
D59*
%TO.N,LORA_ANT_SW*%
X137500000Y-59600000D02*
X140800000Y-62900000D01*
X120200000Y-59600000D02*
X137500000Y-59600000D01*
X112400000Y-67400000D02*
X120200000Y-59600000D01*
X111737500Y-67400000D02*
X112400000Y-67400000D01*
X140800000Y-62900000D02*
X140800000Y-64310000D01*
%TO.N,+3.3V*%
X113220000Y-68900000D02*
X111737500Y-68900000D01*
X113435024Y-69115024D02*
X113220000Y-68900000D01*
X113665723Y-69115024D02*
X113435024Y-69115024D01*
D62*
%TO.N,GND*%
X106300000Y-65720000D02*
X106300000Y-64800000D01*
%TO.N,Net-(J5-Pin_2)*%
X89777112Y-68700000D02*
X90100000Y-68700000D01*
X89650000Y-68572888D02*
X89777112Y-68700000D01*
X90380000Y-66600000D02*
X89650000Y-67330000D01*
X89650000Y-67330000D02*
X89650000Y-68572888D01*
D63*
%TO.N,Net-(J3-Pin_1)*%
X89257914Y-69810432D02*
X89468346Y-69600000D01*
X89468346Y-69600000D02*
X89600000Y-69600000D01*
%TO.N,GND*%
X89437500Y-65800000D02*
X89437500Y-64200000D01*
X89100000Y-66700000D02*
X89100000Y-66137500D01*
X88900000Y-66900000D02*
X89100000Y-66700000D01*
X88900000Y-67600000D02*
X88900000Y-66900000D01*
X89100000Y-66137500D02*
X89437500Y-65800000D01*
D62*
%TO.N,Net-(J3-Pin_1)*%
X90500000Y-67800000D02*
X90300000Y-67600000D01*
X90500000Y-68300000D02*
X90500000Y-67800000D01*
D64*
%TO.N,Net-(J5-Pin_2)*%
X91200000Y-66500000D02*
X90780000Y-66500000D01*
X92500000Y-67800000D02*
X91200000Y-66500000D01*
X92500000Y-67975000D02*
X92500000Y-67800000D01*
D63*
%TO.N,Net-(J3-Pin_1)*%
X89600000Y-69600000D02*
X90000000Y-69600000D01*
D61*
X85200000Y-69600000D02*
X89600000Y-69600000D01*
D60*
%TO.N,GND*%
X90100000Y-69100000D02*
X89863603Y-69100000D01*
D62*
%TO.N,Net-(J3-Pin_1)*%
X90500000Y-68300000D02*
X90500000Y-69100000D01*
X90100000Y-68300000D02*
X90500000Y-68300000D01*
D64*
%TO.N,Net-(J5-Pin_2)*%
X90780000Y-66500000D02*
X90780000Y-66182500D01*
D63*
%TO.N,GND*%
X88500000Y-68200000D02*
X89400000Y-69100000D01*
X88900000Y-67600000D02*
X88500000Y-67600000D01*
X88500000Y-67600000D02*
X88500000Y-68200000D01*
X89400000Y-69100000D02*
X89863603Y-69100000D01*
D65*
X118890000Y-72212500D02*
X117400000Y-72212500D01*
X120200000Y-71430000D02*
X119672500Y-71430000D01*
X119672500Y-71430000D02*
X118890000Y-72212500D01*
X126600000Y-69800000D02*
X126600000Y-69900000D01*
X126300000Y-69500000D02*
X126600000Y-69800000D01*
X126050000Y-69250000D02*
X126300000Y-69500000D01*
X125400000Y-69250000D02*
X126050000Y-69250000D01*
X122650000Y-66098704D02*
X122351296Y-65800000D01*
X121600000Y-65800000D02*
X121500000Y-65700000D01*
X122650000Y-66500000D02*
X122650000Y-66098704D01*
X122351296Y-65800000D02*
X121600000Y-65800000D01*
X124740000Y-63620000D02*
X124500000Y-63380000D01*
X124740000Y-65300000D02*
X124740000Y-63620000D01*
X124150000Y-65890000D02*
X124740000Y-65300000D01*
X124150000Y-66500000D02*
X124150000Y-65890000D01*
%TO.N,Net-(U2-XTB)*%
X120220000Y-63600000D02*
X120000000Y-63380000D01*
X121425000Y-63600000D02*
X120220000Y-63600000D01*
%TO.N,GND*%
X120220000Y-62200000D02*
X120000000Y-62420000D01*
X121425000Y-62200000D02*
X120220000Y-62200000D01*
X125682500Y-62197500D02*
X124500000Y-63380000D01*
X125700000Y-62197500D02*
X125682500Y-62197500D01*
X123395000Y-63380000D02*
X123175000Y-63600000D01*
X124500000Y-63380000D02*
X123395000Y-63380000D01*
%TO.N,Net-(U2-XTA)*%
X124280000Y-62200000D02*
X124500000Y-62420000D01*
X123175000Y-62200000D02*
X124280000Y-62200000D01*
%TO.N,Net-(U2-XTB)*%
X121944000Y-64119000D02*
X121425000Y-63600000D01*
X121944000Y-64644000D02*
X121944000Y-64119000D01*
X123150000Y-65850000D02*
X121944000Y-64644000D01*
X123150000Y-66500000D02*
X123150000Y-65850000D01*
%TO.N,Net-(U2-XTA)*%
X122300000Y-63000000D02*
X123100000Y-62200000D01*
X122300000Y-64496540D02*
X122300000Y-63000000D01*
X123100000Y-62200000D02*
X123175000Y-62200000D01*
X123650000Y-65846540D02*
X122300000Y-64496540D01*
X123650000Y-66500000D02*
X123650000Y-65846540D01*
%TO.N,/Lora/DIO2*%
X140190000Y-70910000D02*
X140100000Y-71000000D01*
X140800000Y-70910000D02*
X140190000Y-70910000D01*
X121400000Y-69750000D02*
X121400000Y-70700000D01*
D66*
%TO.N,+3.3V*%
X118927500Y-70450000D02*
X120200000Y-70450000D01*
X118890000Y-70487500D02*
X118927500Y-70450000D01*
D57*
X121400000Y-68750000D02*
X121400000Y-69250000D01*
%TO.N,Net-(U2-DCC_SW)*%
X120850000Y-68250000D02*
X120500000Y-68600000D01*
X121400000Y-68250000D02*
X120850000Y-68250000D01*
D61*
%TO.N,Net-(U2-VREG)*%
X118175000Y-67250000D02*
X118100000Y-67325000D01*
X121400000Y-67250000D02*
X118175000Y-67250000D01*
D56*
%TO.N,Net-(U3-CTRL)*%
X140830000Y-69920000D02*
X140800000Y-69890000D01*
X141800000Y-69920000D02*
X140830000Y-69920000D01*
X140750000Y-69840000D02*
X140800000Y-69890000D01*
X140750000Y-68350000D02*
X140750000Y-69840000D01*
%TO.N,Net-(U3-~{CTRL})*%
X140800000Y-67000000D02*
X140750000Y-67050000D01*
X140800000Y-65330000D02*
X140800000Y-67000000D01*
%TO.N,GND*%
X138850000Y-67700000D02*
X131000000Y-67700000D01*
X137120000Y-64620000D02*
X137800000Y-65300000D01*
X132300000Y-64620000D02*
X132720000Y-64620000D01*
X137800000Y-65300000D02*
X137800000Y-65992500D01*
X129500000Y-64620000D02*
X132300000Y-64620000D01*
X132300000Y-64620000D02*
X137120000Y-64620000D01*
X132720000Y-64620000D02*
X133400000Y-65300000D01*
X127400000Y-64620000D02*
X129500000Y-64620000D01*
X129500000Y-64620000D02*
X129920000Y-64620000D01*
X133400000Y-65300000D02*
X133400000Y-65992500D01*
X130400000Y-65100000D02*
X130400000Y-65992500D01*
X129920000Y-64620000D02*
X130400000Y-65100000D01*
%TO.N,Net-(C10-Pad1)*%
X132307500Y-65900000D02*
X132307500Y-66800000D01*
%TO.N,Net-(C8-Pad2)*%
X131492500Y-65900000D02*
X131492500Y-66800000D01*
%TO.N,Net-(U3-RF1)*%
X137792500Y-66800000D02*
X137800000Y-66807500D01*
D61*
X136907500Y-66800000D02*
X137792500Y-66800000D01*
%TO.N,Net-(C11-Pad1)*%
X135107500Y-66800000D02*
X136092500Y-66800000D01*
%TO.N,Net-(C10-Pad1)*%
X132307500Y-66800000D02*
X134292500Y-66800000D01*
D56*
%TO.N,Net-(C8-Pad2)*%
X131485000Y-66807500D02*
X131492500Y-66800000D01*
D61*
X130400000Y-66807500D02*
X131485000Y-66807500D01*
D56*
X130392500Y-66800000D02*
X130400000Y-66807500D01*
D61*
X128307500Y-66800000D02*
X130392500Y-66800000D01*
D56*
%TO.N,GND*%
X129942500Y-68900000D02*
X130000000Y-68957500D01*
X129080000Y-68900000D02*
X129942500Y-68900000D01*
%TO.N,Net-(U3-RF2)*%
X129957500Y-68100000D02*
X130000000Y-68142500D01*
%TO.N,Net-(U2-RFI_N)*%
X128185000Y-68092500D02*
X128192500Y-68100000D01*
D61*
X127200000Y-68092500D02*
X128185000Y-68092500D01*
D56*
%TO.N,Net-(U2-RFI_P)*%
X128112500Y-68907500D02*
X128120000Y-68900000D01*
D67*
X127200000Y-68907500D02*
X128112500Y-68907500D01*
D57*
%TO.N,/Lora/VR_PA*%
X127447500Y-65627500D02*
X127400000Y-65580000D01*
X129400000Y-65627500D02*
X127447500Y-65627500D01*
D64*
%TO.N,+3.3V*%
X125700000Y-65300000D02*
X125700000Y-63922500D01*
D66*
X126595680Y-63922500D02*
X126759090Y-63759090D01*
X125700000Y-63922500D02*
X126595680Y-63922500D01*
X118890000Y-70487500D02*
X117400000Y-70487500D01*
D59*
%TO.N,Net-(J4-Pin_3)*%
X111695274Y-71195274D02*
X111605731Y-71195274D01*
X111300000Y-70397500D02*
X111300000Y-70800000D01*
X111300000Y-70800000D02*
X111695274Y-71195274D01*
%TO.N,~{LORA_RST}*%
X123150000Y-71650000D02*
X122700000Y-72100000D01*
X123150000Y-70500000D02*
X123150000Y-71650000D01*
%TO.N,LORA_BUSY*%
X121903622Y-71700000D02*
X121700000Y-71700000D01*
X122650000Y-70953622D02*
X121903622Y-71700000D01*
X122650000Y-70500000D02*
X122650000Y-70953622D01*
%TO.N,Net-(J4-Pin_7)*%
X99620000Y-60200000D02*
X96320000Y-56900000D01*
X104700000Y-60200000D02*
X99620000Y-60200000D01*
X109300000Y-64800000D02*
X104700000Y-60200000D01*
X109300000Y-66462500D02*
X109300000Y-64800000D01*
%TO.N,Net-(U1-BOOT0)*%
X108800000Y-65590000D02*
X108210000Y-65000000D01*
X108800000Y-66462500D02*
X108800000Y-65590000D01*
%TO.N,Net-(J4-Pin_6)*%
X109800000Y-64300000D02*
X105000000Y-59500000D01*
X105000000Y-59500000D02*
X101460000Y-59500000D01*
X109800000Y-66462500D02*
X109800000Y-64300000D01*
X101460000Y-59500000D02*
X98860000Y-56900000D01*
%TO.N,Net-(J4-Pin_5)*%
X103200000Y-58700000D02*
X101400000Y-56900000D01*
X105000000Y-58700000D02*
X103200000Y-58700000D01*
X110300000Y-64000000D02*
X105000000Y-58700000D01*
X110300000Y-66462500D02*
X110300000Y-64000000D01*
%TO.N,/MCU/PA15*%
X110800000Y-63760000D02*
X110800000Y-66462500D01*
X103940000Y-56900000D02*
X110800000Y-63760000D01*
%TO.N,SPI_MISO*%
X122300000Y-73900000D02*
X123650000Y-72550000D01*
X123650000Y-72550000D02*
X123650000Y-70500000D01*
X112600000Y-73900000D02*
X122300000Y-73900000D01*
X110300000Y-70337500D02*
X110300000Y-71600000D01*
X110300000Y-71600000D02*
X112600000Y-73900000D01*
%TO.N,SPI_MOSI*%
X112700000Y-73300000D02*
X110800000Y-71400000D01*
X110800000Y-71400000D02*
X110800000Y-70337500D01*
X121685500Y-73300000D02*
X112700000Y-73300000D01*
X121800000Y-73185500D02*
X121685500Y-73300000D01*
X123894772Y-73655500D02*
X124150000Y-73400272D01*
X124150000Y-73400272D02*
X124150000Y-70500000D01*
%TO.N,GND*%
X100520000Y-72820000D02*
X100520000Y-72100000D01*
X105100000Y-72300000D02*
X104300000Y-73100000D01*
X104300000Y-73100000D02*
X100800000Y-73100000D01*
X105100000Y-71362500D02*
X105100000Y-72300000D01*
X100800000Y-73100000D02*
X100520000Y-72820000D01*
%TO.N,+3.3V*%
X103510000Y-71227500D02*
X103737500Y-71000000D01*
X103510000Y-72100000D02*
X103510000Y-71227500D01*
%TO.N,GND*%
X106400000Y-70380000D02*
X106082500Y-70380000D01*
X106082500Y-70380000D02*
X105100000Y-71362500D01*
X104745000Y-77500000D02*
X105545000Y-76700000D01*
X100850000Y-77500000D02*
X104745000Y-77500000D01*
X100850000Y-77500000D02*
X96750000Y-77500000D01*
X95440000Y-76190000D02*
X96750000Y-77500000D01*
X94900000Y-76190000D02*
X95440000Y-76190000D01*
%TO.N,Net-(D1-K)*%
X93665000Y-77210000D02*
X93300000Y-77575000D01*
X94900000Y-77210000D02*
X93665000Y-77210000D01*
%TO.N,Net-(D1-A)*%
X95325000Y-73800000D02*
X93300000Y-75825000D01*
X106200000Y-73800000D02*
X95325000Y-73800000D01*
X107000000Y-73000000D02*
X106200000Y-73800000D01*
X107025000Y-69700000D02*
X107025000Y-70875000D01*
X107000000Y-70900000D02*
X107000000Y-73000000D01*
X107325000Y-69400000D02*
X107025000Y-69700000D01*
X107862500Y-69400000D02*
X107325000Y-69400000D01*
X107025000Y-70875000D02*
X107000000Y-70900000D01*
%TO.N,Net-(U1-PA1)*%
X100850000Y-75900000D02*
X96750000Y-75900000D01*
X102350000Y-74400000D02*
X100850000Y-75900000D01*
X106600000Y-74400000D02*
X102350000Y-74400000D01*
X107600000Y-70102500D02*
X107600000Y-73400000D01*
X107600000Y-73400000D02*
X106600000Y-74400000D01*
X107802500Y-69900000D02*
X107600000Y-70102500D01*
%TO.N,Net-(J2-Pin_1)*%
X108800000Y-74875000D02*
X110625000Y-76700000D01*
X108800000Y-70337500D02*
X108800000Y-74875000D01*
%TO.N,Net-(J2-Pin_2)*%
X108300000Y-76485000D02*
X108085000Y-76700000D01*
X108300000Y-70397500D02*
X108300000Y-76485000D01*
D64*
%TO.N,+3.3V*%
X103300000Y-62300000D02*
X98300000Y-62300000D01*
X104200000Y-62300000D02*
X103300000Y-62300000D01*
D59*
X106920000Y-68900000D02*
X107862500Y-68900000D01*
X106400000Y-69420000D02*
X106920000Y-68900000D01*
D64*
X106182500Y-69637500D02*
X106400000Y-69420000D01*
X105100000Y-69637500D02*
X106182500Y-69637500D01*
X100000000Y-71000000D02*
X103737500Y-71000000D01*
X97075000Y-68075000D02*
X100000000Y-71000000D01*
X97075000Y-65100000D02*
X97075000Y-68075000D01*
X103737500Y-71000000D02*
X105100000Y-69637500D01*
D58*
%TO.N,~{RESET}*%
X105900000Y-68400000D02*
X107862500Y-68400000D01*
X105600000Y-68700000D02*
X105900000Y-68400000D01*
D63*
X101480000Y-72100000D02*
X102000000Y-72100000D01*
D58*
%TO.N,GND*%
X102420000Y-68295000D02*
X102200000Y-68075000D01*
X102420000Y-69500000D02*
X102420000Y-68295000D01*
%TO.N,Net-(U1-PC15)*%
X103600000Y-68075000D02*
X103600000Y-69280000D01*
X103600000Y-69280000D02*
X103380000Y-69500000D01*
%TO.N,Net-(U1-PC14)*%
X102200000Y-65120000D02*
X102420000Y-64900000D01*
X102200000Y-66325000D02*
X102200000Y-65120000D01*
%TO.N,Net-(U1-PC15)*%
X104075000Y-67600000D02*
X103600000Y-68075000D01*
X104354031Y-67752400D02*
X104201631Y-67600000D01*
X104201631Y-67600000D02*
X104075000Y-67600000D01*
X107296674Y-67752400D02*
X104354031Y-67752400D01*
X107444274Y-67900000D02*
X107296674Y-67752400D01*
X107862500Y-67900000D02*
X107444274Y-67900000D01*
%TO.N,Net-(U1-PC14)*%
X102200000Y-66552400D02*
X102200000Y-66325000D01*
X102847600Y-67200000D02*
X102200000Y-66552400D01*
X104500000Y-67400000D02*
X104300000Y-67200000D01*
X107862500Y-67400000D02*
X104500000Y-67400000D01*
X104300000Y-67200000D02*
X102847600Y-67200000D01*
D60*
%TO.N,+3.3V*%
X107582500Y-66680000D02*
X107802500Y-66900000D01*
X106300000Y-66680000D02*
X107582500Y-66680000D01*
D64*
X97075000Y-63525000D02*
X97075000Y-65100000D01*
X105300000Y-63400000D02*
X104200000Y-62300000D01*
X98300000Y-62300000D02*
X97075000Y-63525000D01*
X105780000Y-66680000D02*
X105300000Y-66200000D01*
X106300000Y-66680000D02*
X105780000Y-66680000D01*
X105300000Y-66200000D02*
X105300000Y-63400000D01*
%TO.N,Net-(J5-Pin_2)*%
X90780000Y-66182500D02*
X91162500Y-65800000D01*
X91162500Y-64200000D02*
X91162500Y-65800000D01*
D66*
X93635000Y-64200000D02*
X94535000Y-65100000D01*
X91162500Y-64200000D02*
X93635000Y-64200000D01*
D63*
%TO.N,GND*%
X85200000Y-67600000D02*
X88900000Y-67600000D01*
D60*
%TO.N,Net-(J3-Pin_1)*%
X90000000Y-69600000D02*
X90050000Y-69550000D01*
%TD*%
%TA.AperFunction,Conductor*%
%TO.N,GND*%
G36*
X104029073Y-62770185D02*
G01*
X104049715Y-62786819D01*
X104813181Y-63550284D01*
X104846666Y-63611607D01*
X104849500Y-63637965D01*
X104849500Y-66171217D01*
X104849110Y-66178155D01*
X104847852Y-66189330D01*
X104844729Y-66217034D01*
X104855788Y-66275479D01*
X104864652Y-66334290D01*
X104867162Y-66342427D01*
X104869978Y-66350475D01*
X104897777Y-66403072D01*
X104923576Y-66456644D01*
X104928362Y-66463665D01*
X104933431Y-66470532D01*
X104933434Y-66470538D01*
X104933438Y-66470542D01*
X104975495Y-66512599D01*
X105015947Y-66556196D01*
X105023210Y-66561988D01*
X105022689Y-66562641D01*
X105034930Y-66572034D01*
X105232936Y-66770040D01*
X105351216Y-66888319D01*
X105384701Y-66949642D01*
X105379717Y-67019333D01*
X105337846Y-67075267D01*
X105272381Y-67099684D01*
X105263535Y-67100000D01*
X104642675Y-67100000D01*
X104575636Y-67080315D01*
X104554994Y-67063681D01*
X104549494Y-67058181D01*
X104536803Y-67045490D01*
X104531165Y-67039010D01*
X104524637Y-67030365D01*
X104524636Y-67030363D01*
X104506654Y-67013970D01*
X104492188Y-67000782D01*
X104490138Y-66998825D01*
X104477526Y-66986213D01*
X104477522Y-66986210D01*
X104475768Y-66985008D01*
X104469034Y-66979674D01*
X104448187Y-66960670D01*
X104448188Y-66960670D01*
X104443301Y-66958777D01*
X104418029Y-66945456D01*
X104413701Y-66942492D01*
X104413700Y-66942491D01*
X104413698Y-66942490D01*
X104386236Y-66936031D01*
X104378027Y-66933489D01*
X104351725Y-66923300D01*
X104351724Y-66923300D01*
X104346488Y-66923300D01*
X104318099Y-66920006D01*
X104313000Y-66918807D01*
X104312999Y-66918807D01*
X104285058Y-66922705D01*
X104276482Y-66923300D01*
X103324000Y-66923300D01*
X103256961Y-66903615D01*
X103211206Y-66850811D01*
X103200000Y-66799300D01*
X103200000Y-65400000D01*
X102976460Y-65400000D01*
X102909421Y-65380315D01*
X102863666Y-65327511D01*
X102853722Y-65258353D01*
X102864078Y-65223596D01*
X102893972Y-65159487D01*
X102893972Y-65159486D01*
X102894329Y-65156776D01*
X102900500Y-65109901D01*
X102900499Y-64690100D01*
X102893972Y-64640513D01*
X102843224Y-64531684D01*
X102758316Y-64446776D01*
X102649487Y-64396028D01*
X102649485Y-64396027D01*
X102649486Y-64396027D01*
X102599902Y-64389500D01*
X102240105Y-64389500D01*
X102224386Y-64391569D01*
X102190513Y-64396028D01*
X102190511Y-64396029D01*
X102190509Y-64396029D01*
X102081683Y-64446776D01*
X101996776Y-64531683D01*
X101946027Y-64640514D01*
X101939500Y-64690098D01*
X101939500Y-65003277D01*
X101931128Y-65048067D01*
X101923300Y-65068274D01*
X101923300Y-65073511D01*
X101920006Y-65101901D01*
X101918807Y-65106996D01*
X101918807Y-65107000D01*
X101922705Y-65134941D01*
X101923300Y-65143517D01*
X101923300Y-65276000D01*
X101903615Y-65343039D01*
X101850811Y-65388794D01*
X101799300Y-65400000D01*
X101300000Y-65400000D01*
X101300000Y-68900000D01*
X102889098Y-68900000D01*
X102956137Y-68919685D01*
X103001892Y-68972489D01*
X103011836Y-69041647D01*
X102982811Y-69105203D01*
X102976779Y-69111681D01*
X102956776Y-69131683D01*
X102906027Y-69240514D01*
X102899500Y-69290098D01*
X102899500Y-69709894D01*
X102900141Y-69714760D01*
X102906028Y-69759487D01*
X102906029Y-69759489D01*
X102906029Y-69759490D01*
X102926910Y-69804268D01*
X102956776Y-69868316D01*
X103041684Y-69953224D01*
X103150513Y-70003972D01*
X103200099Y-70010500D01*
X103559900Y-70010499D01*
X103609487Y-70003972D01*
X103718316Y-69953224D01*
X103803224Y-69868316D01*
X103853972Y-69759487D01*
X103860500Y-69709901D01*
X103860499Y-69396721D01*
X103868873Y-69351926D01*
X103869883Y-69349319D01*
X103876700Y-69331724D01*
X103876700Y-69326488D01*
X103879995Y-69298095D01*
X103881192Y-69293004D01*
X103881193Y-69293000D01*
X103877295Y-69265057D01*
X103876700Y-69256482D01*
X103876700Y-69024000D01*
X103896385Y-68956961D01*
X103949189Y-68911206D01*
X104000700Y-68900000D01*
X104300000Y-68900000D01*
X104400000Y-68800000D01*
X104400000Y-68224000D01*
X104419685Y-68156961D01*
X104472489Y-68111206D01*
X104524000Y-68100000D01*
X105323825Y-68100000D01*
X105390864Y-68119685D01*
X105436619Y-68172489D01*
X105446563Y-68241647D01*
X105417538Y-68305203D01*
X105380122Y-68334483D01*
X105346780Y-68351472D01*
X105346779Y-68351473D01*
X105346774Y-68351476D01*
X105251476Y-68446774D01*
X105251473Y-68446778D01*
X105251472Y-68446780D01*
X105195709Y-68556222D01*
X105190279Y-68566878D01*
X105169196Y-68699997D01*
X105169196Y-68700003D01*
X105178081Y-68756103D01*
X105169126Y-68825396D01*
X105124130Y-68878848D01*
X105057378Y-68899487D01*
X105055608Y-68899500D01*
X104809740Y-68899500D01*
X104780150Y-68902274D01*
X104655523Y-68945884D01*
X104549289Y-69024288D01*
X104549288Y-69024289D01*
X104470884Y-69130523D01*
X104427274Y-69255150D01*
X104424500Y-69284739D01*
X104424500Y-69624534D01*
X104404815Y-69691573D01*
X104388181Y-69712215D01*
X103587216Y-70513181D01*
X103525893Y-70546666D01*
X103499535Y-70549500D01*
X100237965Y-70549500D01*
X100170926Y-70529815D01*
X100150284Y-70513181D01*
X97561819Y-67924716D01*
X97528334Y-67863393D01*
X97525500Y-67837035D01*
X97525500Y-66274500D01*
X97545185Y-66207461D01*
X97597989Y-66161706D01*
X97649500Y-66150500D01*
X97944750Y-66150500D01*
X97944751Y-66150499D01*
X97960086Y-66147449D01*
X98003229Y-66138868D01*
X98003229Y-66138867D01*
X98003231Y-66138867D01*
X98069552Y-66094552D01*
X98113867Y-66028231D01*
X98113867Y-66028229D01*
X98113868Y-66028229D01*
X98123922Y-65977682D01*
X98125500Y-65969748D01*
X98125500Y-64230252D01*
X98125500Y-64230249D01*
X98125499Y-64230247D01*
X98113868Y-64171770D01*
X98113867Y-64171769D01*
X98069552Y-64105447D01*
X98003230Y-64061132D01*
X98003229Y-64061131D01*
X97944752Y-64049500D01*
X97944748Y-64049500D01*
X97649500Y-64049500D01*
X97582461Y-64029815D01*
X97536706Y-63977011D01*
X97525500Y-63925500D01*
X97525500Y-63762965D01*
X97545185Y-63695926D01*
X97561819Y-63675284D01*
X98450284Y-62786819D01*
X98511607Y-62753334D01*
X98537965Y-62750500D01*
X103232098Y-62750500D01*
X103962034Y-62750500D01*
X104029073Y-62770185D01*
G37*
%TD.AperFunction*%
%TA.AperFunction,Conductor*%
G36*
X119472200Y-67662117D02*
G01*
X119540513Y-67693972D01*
X119540512Y-67693972D01*
X119547040Y-67694831D01*
X119590099Y-67700500D01*
X120009900Y-67700499D01*
X120059487Y-67693972D01*
X120127798Y-67662117D01*
X120180203Y-67650500D01*
X120680750Y-67650500D01*
X120747789Y-67670185D01*
X120793544Y-67722989D01*
X120803488Y-67792147D01*
X120774463Y-67855703D01*
X120734237Y-67882857D01*
X120735422Y-67885047D01*
X120678122Y-67916055D01*
X120628792Y-67940171D01*
X120622375Y-67944753D01*
X120616175Y-67949579D01*
X120586671Y-67981629D01*
X120578993Y-67989969D01*
X120421092Y-68147870D01*
X120261346Y-68307615D01*
X119980781Y-68588181D01*
X119919458Y-68621666D01*
X119893100Y-68624500D01*
X119024500Y-68624500D01*
X118957461Y-68604815D01*
X118911706Y-68552011D01*
X118900500Y-68500500D01*
X118900500Y-68330249D01*
X118900299Y-68328208D01*
X118900000Y-68322128D01*
X118900000Y-67774500D01*
X118919685Y-67707461D01*
X118972489Y-67661706D01*
X119024000Y-67650500D01*
X119419797Y-67650500D01*
X119472200Y-67662117D01*
G37*
%TD.AperFunction*%
%TA.AperFunction,Conductor*%
G36*
X154943039Y-53019685D02*
G01*
X154988794Y-53072489D01*
X155000000Y-53124000D01*
X155000000Y-80375500D01*
X154980315Y-80442539D01*
X154927511Y-80488294D01*
X154876000Y-80499500D01*
X80124500Y-80499500D01*
X80057461Y-80479815D01*
X80011706Y-80427011D01*
X80000500Y-80375500D01*
X80000500Y-78000000D01*
X81294778Y-78000000D01*
X81313644Y-78287837D01*
X81313646Y-78287849D01*
X81369917Y-78570745D01*
X81369921Y-78570760D01*
X81462642Y-78843905D01*
X81590219Y-79102606D01*
X81590223Y-79102613D01*
X81750478Y-79342452D01*
X81940672Y-79559327D01*
X82157546Y-79749520D01*
X82397389Y-79909778D01*
X82656098Y-80037359D01*
X82929247Y-80130081D01*
X83212161Y-80186356D01*
X83500000Y-80205222D01*
X83787839Y-80186356D01*
X84070753Y-80130081D01*
X84343902Y-80037359D01*
X84602611Y-79909778D01*
X84842454Y-79749520D01*
X85059327Y-79559327D01*
X85249520Y-79342454D01*
X85409778Y-79102611D01*
X85537359Y-78843902D01*
X85630081Y-78570753D01*
X85686356Y-78287839D01*
X85705222Y-78000000D01*
X85699668Y-77915260D01*
X92624500Y-77915260D01*
X92627274Y-77944849D01*
X92670884Y-78069476D01*
X92749288Y-78175710D01*
X92749289Y-78175711D01*
X92855523Y-78254115D01*
X92855524Y-78254115D01*
X92855525Y-78254116D01*
X92980151Y-78297725D01*
X92980150Y-78297725D01*
X93009740Y-78300500D01*
X93009744Y-78300500D01*
X93590260Y-78300500D01*
X93619849Y-78297725D01*
X93744475Y-78254116D01*
X93850711Y-78175711D01*
X93929116Y-78069475D01*
X93953427Y-78000000D01*
X149294778Y-78000000D01*
X149313644Y-78287837D01*
X149313646Y-78287849D01*
X149369917Y-78570745D01*
X149369921Y-78570760D01*
X149462642Y-78843905D01*
X149590219Y-79102606D01*
X149590223Y-79102613D01*
X149750478Y-79342452D01*
X149940672Y-79559327D01*
X150157546Y-79749520D01*
X150397389Y-79909778D01*
X150656098Y-80037359D01*
X150929247Y-80130081D01*
X151212161Y-80186356D01*
X151500000Y-80205222D01*
X151787839Y-80186356D01*
X152070753Y-80130081D01*
X152343902Y-80037359D01*
X152602611Y-79909778D01*
X152842454Y-79749520D01*
X153059327Y-79559327D01*
X153249520Y-79342454D01*
X153409778Y-79102611D01*
X153537359Y-78843902D01*
X153630081Y-78570753D01*
X153686356Y-78287839D01*
X153705222Y-78000000D01*
X153686356Y-77712161D01*
X153630081Y-77429247D01*
X153537359Y-77156098D01*
X153409778Y-76897389D01*
X153249520Y-76657546D01*
X153155643Y-76550500D01*
X153059327Y-76440672D01*
X152842452Y-76250478D01*
X152602613Y-76090223D01*
X152602606Y-76090219D01*
X152343905Y-75962642D01*
X152070760Y-75869921D01*
X152070754Y-75869919D01*
X152070753Y-75869919D01*
X152070751Y-75869918D01*
X152070745Y-75869917D01*
X151787849Y-75813646D01*
X151787839Y-75813644D01*
X151500000Y-75794778D01*
X151212161Y-75813644D01*
X151212155Y-75813645D01*
X151212150Y-75813646D01*
X150929254Y-75869917D01*
X150929239Y-75869921D01*
X150656094Y-75962642D01*
X150397393Y-76090219D01*
X150397386Y-76090223D01*
X150157547Y-76250478D01*
X149940672Y-76440672D01*
X149750478Y-76657547D01*
X149590223Y-76897386D01*
X149590219Y-76897393D01*
X149462642Y-77156094D01*
X149369921Y-77429239D01*
X149369917Y-77429254D01*
X149313646Y-77712150D01*
X149313644Y-77712162D01*
X149294778Y-78000000D01*
X93953427Y-78000000D01*
X93972725Y-77944849D01*
X93975500Y-77915256D01*
X93975500Y-77649500D01*
X93995185Y-77582461D01*
X94047989Y-77536706D01*
X94099500Y-77525500D01*
X94369669Y-77525500D01*
X94436708Y-77545185D01*
X94457350Y-77561819D01*
X94519596Y-77624065D01*
X94626827Y-77674068D01*
X94675683Y-77680500D01*
X94675684Y-77680500D01*
X95124317Y-77680500D01*
X95140601Y-77678356D01*
X95173173Y-77674068D01*
X95280404Y-77624065D01*
X95364065Y-77540404D01*
X95414068Y-77433173D01*
X95420500Y-77384316D01*
X95420500Y-77035684D01*
X95414068Y-76986827D01*
X95364065Y-76879596D01*
X95280404Y-76795935D01*
X95173173Y-76745932D01*
X95173171Y-76745931D01*
X95173172Y-76745931D01*
X95124317Y-76739500D01*
X95124316Y-76739500D01*
X94675684Y-76739500D01*
X94675683Y-76739500D01*
X94626828Y-76745931D01*
X94519595Y-76795935D01*
X94457350Y-76858181D01*
X94396027Y-76891666D01*
X94369669Y-76894500D01*
X93761588Y-76894500D01*
X93720632Y-76887541D01*
X93697924Y-76879595D01*
X93619848Y-76852274D01*
X93619849Y-76852274D01*
X93590260Y-76849500D01*
X93590256Y-76849500D01*
X93009744Y-76849500D01*
X93009740Y-76849500D01*
X92980150Y-76852274D01*
X92855523Y-76895884D01*
X92749289Y-76974288D01*
X92749288Y-76974289D01*
X92670884Y-77080523D01*
X92627274Y-77205150D01*
X92624500Y-77234739D01*
X92624500Y-77915260D01*
X85699668Y-77915260D01*
X85686356Y-77712161D01*
X85630081Y-77429247D01*
X85537359Y-77156098D01*
X85409778Y-76897389D01*
X85249520Y-76657546D01*
X85155643Y-76550500D01*
X85059327Y-76440672D01*
X84842452Y-76250478D01*
X84714914Y-76165260D01*
X92624500Y-76165260D01*
X92627274Y-76194849D01*
X92670884Y-76319476D01*
X92749288Y-76425710D01*
X92749289Y-76425711D01*
X92855523Y-76504115D01*
X92855524Y-76504115D01*
X92855525Y-76504116D01*
X92980151Y-76547725D01*
X92980150Y-76547725D01*
X93009740Y-76550500D01*
X93009744Y-76550500D01*
X93590260Y-76550500D01*
X93619849Y-76547725D01*
X93628917Y-76544552D01*
X93744475Y-76504116D01*
X93850711Y-76425711D01*
X93929116Y-76319475D01*
X93972725Y-76194849D01*
X93975500Y-76165256D01*
X93975500Y-75647046D01*
X93995185Y-75580007D01*
X94011819Y-75559365D01*
X95419365Y-74151819D01*
X95480688Y-74118334D01*
X95507046Y-74115500D01*
X101888953Y-74115500D01*
X101955992Y-74135185D01*
X102001747Y-74187989D01*
X102011691Y-74257147D01*
X101982666Y-74320703D01*
X101976634Y-74327181D01*
X101140635Y-75163181D01*
X101079312Y-75196666D01*
X101052954Y-75199500D01*
X100380247Y-75199500D01*
X100321770Y-75211131D01*
X100321769Y-75211132D01*
X100255447Y-75255447D01*
X100211132Y-75321769D01*
X100211131Y-75321770D01*
X100199500Y-75380247D01*
X100199500Y-75460500D01*
X100179815Y-75527539D01*
X100127011Y-75573294D01*
X100075500Y-75584500D01*
X97524500Y-75584500D01*
X97457461Y-75564815D01*
X97411706Y-75512011D01*
X97400500Y-75460500D01*
X97400500Y-75380249D01*
X97400499Y-75380247D01*
X97388868Y-75321770D01*
X97388867Y-75321769D01*
X97344552Y-75255447D01*
X97278230Y-75211132D01*
X97278229Y-75211131D01*
X97219752Y-75199500D01*
X97219748Y-75199500D01*
X96280252Y-75199500D01*
X96280247Y-75199500D01*
X96221770Y-75211131D01*
X96221769Y-75211132D01*
X96155447Y-75255447D01*
X96111132Y-75321769D01*
X96111131Y-75321770D01*
X96099500Y-75380247D01*
X96099500Y-76419752D01*
X96111131Y-76478229D01*
X96111132Y-76478230D01*
X96155447Y-76544552D01*
X96221769Y-76588867D01*
X96221770Y-76588868D01*
X96280247Y-76600499D01*
X96280250Y-76600500D01*
X96280252Y-76600500D01*
X97219750Y-76600500D01*
X97219751Y-76600499D01*
X97234568Y-76597552D01*
X97278229Y-76588868D01*
X97278229Y-76588867D01*
X97278231Y-76588867D01*
X97344552Y-76544552D01*
X97388867Y-76478231D01*
X97388867Y-76478229D01*
X97388868Y-76478229D01*
X97400499Y-76419752D01*
X97400500Y-76419750D01*
X97400500Y-76339500D01*
X97420185Y-76272461D01*
X97472989Y-76226706D01*
X97524500Y-76215500D01*
X100075500Y-76215500D01*
X100142539Y-76235185D01*
X100188294Y-76287989D01*
X100199500Y-76339500D01*
X100199500Y-76419752D01*
X100211131Y-76478229D01*
X100211132Y-76478230D01*
X100255447Y-76544552D01*
X100321769Y-76588867D01*
X100321770Y-76588868D01*
X100380247Y-76600499D01*
X100380250Y-76600500D01*
X100380252Y-76600500D01*
X101319750Y-76600500D01*
X101319751Y-76600499D01*
X101334568Y-76597552D01*
X101378229Y-76588868D01*
X101378229Y-76588867D01*
X101378231Y-76588867D01*
X101444552Y-76544552D01*
X101488867Y-76478231D01*
X101488867Y-76478229D01*
X101488868Y-76478229D01*
X101500499Y-76419752D01*
X101500500Y-76419750D01*
X101500500Y-75747046D01*
X101520185Y-75680007D01*
X101536819Y-75659365D01*
X102444365Y-74751819D01*
X102505688Y-74718334D01*
X102532046Y-74715500D01*
X106583521Y-74715500D01*
X106588924Y-74715735D01*
X106627922Y-74719148D01*
X106665748Y-74709011D01*
X106670995Y-74707848D01*
X106709572Y-74701047D01*
X106709577Y-74701043D01*
X106715894Y-74698745D01*
X106729304Y-74693189D01*
X106735390Y-74690351D01*
X106735393Y-74690351D01*
X106767470Y-74667890D01*
X106772010Y-74664997D01*
X106805928Y-74645415D01*
X106831109Y-74615403D01*
X106834728Y-74611454D01*
X107772821Y-73673362D01*
X107834142Y-73639879D01*
X107903834Y-73644863D01*
X107959767Y-73686735D01*
X107984184Y-73752199D01*
X107984500Y-73761045D01*
X107984500Y-75541963D01*
X107964815Y-75609002D01*
X107912011Y-75654757D01*
X107884697Y-75663579D01*
X107879073Y-75664697D01*
X107681043Y-75724769D01*
X107599922Y-75768130D01*
X107498550Y-75822315D01*
X107498548Y-75822316D01*
X107498547Y-75822317D01*
X107338589Y-75953589D01*
X107207317Y-76113547D01*
X107109769Y-76296043D01*
X107049699Y-76494067D01*
X107029417Y-76700000D01*
X107049699Y-76905932D01*
X107049700Y-76905934D01*
X107109768Y-77103954D01*
X107207315Y-77286450D01*
X107207317Y-77286452D01*
X107338589Y-77446410D01*
X107434962Y-77525500D01*
X107498550Y-77577685D01*
X107681046Y-77675232D01*
X107879066Y-77735300D01*
X107879065Y-77735300D01*
X107897529Y-77737118D01*
X108085000Y-77755583D01*
X108290934Y-77735300D01*
X108488954Y-77675232D01*
X108671450Y-77577685D01*
X108831410Y-77446410D01*
X108962685Y-77286450D01*
X109060232Y-77103954D01*
X109120300Y-76905934D01*
X109140583Y-76700000D01*
X109120300Y-76494066D01*
X109060232Y-76296046D01*
X108962685Y-76113550D01*
X108838839Y-75962642D01*
X108831410Y-75953589D01*
X108671445Y-75822311D01*
X108670600Y-75821746D01*
X108670257Y-75821336D01*
X108666742Y-75818451D01*
X108667289Y-75817783D01*
X108625800Y-75768130D01*
X108615500Y-75718650D01*
X108615500Y-75436046D01*
X108635185Y-75369007D01*
X108687989Y-75323252D01*
X108757147Y-75313308D01*
X108820703Y-75342333D01*
X108827181Y-75348365D01*
X109538181Y-76059365D01*
X109571666Y-76120688D01*
X109574500Y-76147046D01*
X109574500Y-77569752D01*
X109586131Y-77628229D01*
X109586132Y-77628230D01*
X109630447Y-77694552D01*
X109696769Y-77738867D01*
X109696770Y-77738868D01*
X109755247Y-77750499D01*
X109755250Y-77750500D01*
X109755252Y-77750500D01*
X111494750Y-77750500D01*
X111494751Y-77750499D01*
X111509568Y-77747552D01*
X111553229Y-77738868D01*
X111553229Y-77738867D01*
X111553231Y-77738867D01*
X111619552Y-77694552D01*
X111663867Y-77628231D01*
X111663867Y-77628229D01*
X111663868Y-77628229D01*
X111675499Y-77569752D01*
X111675500Y-77569750D01*
X111675500Y-75830249D01*
X111675499Y-75830247D01*
X111663868Y-75771770D01*
X111663867Y-75771769D01*
X111619552Y-75705447D01*
X111553230Y-75661132D01*
X111553229Y-75661131D01*
X111494752Y-75649500D01*
X111494748Y-75649500D01*
X110072047Y-75649500D01*
X110005008Y-75629815D01*
X109984366Y-75613181D01*
X109151819Y-74780634D01*
X109118334Y-74719311D01*
X109115500Y-74692953D01*
X109115500Y-72377270D01*
X109135185Y-72310231D01*
X109187989Y-72264476D01*
X109257147Y-72254532D01*
X109320703Y-72283557D01*
X109327181Y-72289589D01*
X112049021Y-75011429D01*
X112052676Y-75015417D01*
X112077846Y-75045413D01*
X112077848Y-75045415D01*
X112111764Y-75064996D01*
X112116309Y-75067893D01*
X112148382Y-75090351D01*
X112154454Y-75093182D01*
X112167915Y-75098757D01*
X112174200Y-75101045D01*
X112174204Y-75101047D01*
X112212791Y-75107850D01*
X112218024Y-75109010D01*
X112255854Y-75119147D01*
X112294849Y-75115735D01*
X112300249Y-75115500D01*
X124583521Y-75115500D01*
X124588924Y-75115735D01*
X124627922Y-75119148D01*
X124665748Y-75109011D01*
X124670995Y-75107848D01*
X124709572Y-75101047D01*
X124709577Y-75101043D01*
X124715894Y-75098745D01*
X124729304Y-75093189D01*
X124735390Y-75090351D01*
X124735393Y-75090351D01*
X124767470Y-75067890D01*
X124772010Y-75064997D01*
X124805928Y-75045415D01*
X124831109Y-75015403D01*
X124834728Y-75011454D01*
X125611450Y-74234733D01*
X125615412Y-74231102D01*
X125645415Y-74205928D01*
X125664989Y-74172022D01*
X125667887Y-74167474D01*
X125690352Y-74135393D01*
X125690353Y-74135390D01*
X125693181Y-74129325D01*
X125698754Y-74115870D01*
X125701045Y-74109577D01*
X125701045Y-74109574D01*
X125701047Y-74109572D01*
X125707850Y-74070986D01*
X125709008Y-74065762D01*
X125719148Y-74027921D01*
X125715735Y-73988918D01*
X125715500Y-73983516D01*
X125715500Y-70209550D01*
X125735185Y-70142511D01*
X125787989Y-70096756D01*
X125815306Y-70087933D01*
X125832495Y-70084515D01*
X125923624Y-70023624D01*
X125984515Y-69932495D01*
X126000500Y-69852133D01*
X126000499Y-69647868D01*
X125984515Y-69567505D01*
X125955656Y-69524315D01*
X125923624Y-69476375D01*
X125861448Y-69434831D01*
X125832495Y-69415485D01*
X125832493Y-69415484D01*
X125832490Y-69415483D01*
X125752135Y-69399500D01*
X125047870Y-69399500D01*
X124967504Y-69415485D01*
X124876375Y-69476375D01*
X124815485Y-69567505D01*
X124815483Y-69567509D01*
X124799500Y-69647863D01*
X124799500Y-69775500D01*
X124779815Y-69842539D01*
X124727011Y-69888294D01*
X124675501Y-69899500D01*
X124547870Y-69899500D01*
X124488742Y-69911261D01*
X124467505Y-69915485D01*
X124467504Y-69915485D01*
X124467501Y-69915486D01*
X124456220Y-69920159D01*
X124455621Y-69918714D01*
X124402204Y-69935436D01*
X124344061Y-69919481D01*
X124343781Y-69920159D01*
X124338383Y-69917923D01*
X124334825Y-69916947D01*
X124332648Y-69915547D01*
X124332494Y-69915484D01*
X124252135Y-69899500D01*
X124047870Y-69899500D01*
X123988742Y-69911261D01*
X123967505Y-69915485D01*
X123967504Y-69915485D01*
X123967501Y-69915486D01*
X123956220Y-69920159D01*
X123955621Y-69918714D01*
X123902204Y-69935436D01*
X123844061Y-69919481D01*
X123843781Y-69920159D01*
X123838383Y-69917923D01*
X123834825Y-69916947D01*
X123832648Y-69915547D01*
X123832494Y-69915484D01*
X123752135Y-69899500D01*
X123547870Y-69899500D01*
X123488742Y-69911261D01*
X123467505Y-69915485D01*
X123467504Y-69915485D01*
X123467501Y-69915486D01*
X123456220Y-69920159D01*
X123455621Y-69918714D01*
X123402204Y-69935436D01*
X123344061Y-69919481D01*
X123343781Y-69920159D01*
X123338383Y-69917923D01*
X123334825Y-69916947D01*
X123332648Y-69915547D01*
X123332494Y-69915484D01*
X123252135Y-69899500D01*
X123047870Y-69899500D01*
X122988742Y-69911261D01*
X122967505Y-69915485D01*
X122967504Y-69915485D01*
X122967501Y-69915486D01*
X122956220Y-69920159D01*
X122955621Y-69918714D01*
X122902204Y-69935436D01*
X122844061Y-69919481D01*
X122843781Y-69920159D01*
X122838383Y-69917923D01*
X122834825Y-69916947D01*
X122832648Y-69915547D01*
X122832494Y-69915484D01*
X122752135Y-69899500D01*
X122547870Y-69899500D01*
X122488742Y-69911261D01*
X122467505Y-69915485D01*
X122467504Y-69915485D01*
X122467501Y-69915486D01*
X122456220Y-69920159D01*
X122455621Y-69918714D01*
X122402204Y-69935436D01*
X122344061Y-69919481D01*
X122343781Y-69920159D01*
X122338383Y-69917923D01*
X122334825Y-69916947D01*
X122332648Y-69915547D01*
X122332494Y-69915484D01*
X122252136Y-69899500D01*
X122124499Y-69899500D01*
X122057460Y-69879815D01*
X122011705Y-69827011D01*
X122000499Y-69775502D01*
X122000499Y-69647868D01*
X121984515Y-69567505D01*
X121984513Y-69567502D01*
X121979841Y-69556222D01*
X121981285Y-69555623D01*
X121964563Y-69502211D01*
X121980517Y-69444056D01*
X121979842Y-69443777D01*
X121982070Y-69438396D01*
X121983049Y-69434831D01*
X121984452Y-69432647D01*
X121984516Y-69432493D01*
X121998922Y-69360065D01*
X122000500Y-69352133D01*
X122000499Y-69147868D01*
X121984515Y-69067505D01*
X121984513Y-69067502D01*
X121979841Y-69056222D01*
X121981285Y-69055623D01*
X121964563Y-69002211D01*
X121980517Y-68944056D01*
X121979842Y-68943777D01*
X121982070Y-68938396D01*
X121983049Y-68934831D01*
X121984452Y-68932647D01*
X121984516Y-68932493D01*
X121996655Y-68871462D01*
X122000500Y-68852133D01*
X122000499Y-68647868D01*
X121984515Y-68567505D01*
X121984513Y-68567502D01*
X121979841Y-68556222D01*
X121981285Y-68555623D01*
X121964563Y-68502211D01*
X121980517Y-68444056D01*
X121979842Y-68443777D01*
X121982070Y-68438396D01*
X121983049Y-68434831D01*
X121984452Y-68432647D01*
X121984516Y-68432493D01*
X121995886Y-68375330D01*
X122000500Y-68352133D01*
X122000499Y-68147868D01*
X121984515Y-68067505D01*
X121956114Y-68025000D01*
X121923624Y-67976375D01*
X121861409Y-67934805D01*
X121832495Y-67915485D01*
X121832493Y-67915484D01*
X121832490Y-67915483D01*
X121752137Y-67899500D01*
X121752133Y-67899500D01*
X121556174Y-67899500D01*
X121515911Y-67892781D01*
X121477645Y-67879644D01*
X121420629Y-67839258D01*
X121394499Y-67774458D01*
X121407551Y-67705819D01*
X121455640Y-67655131D01*
X121498509Y-67639889D01*
X121525304Y-67635646D01*
X121567759Y-67614013D01*
X121624053Y-67600499D01*
X121752130Y-67600499D01*
X121752132Y-67600499D01*
X121832495Y-67584515D01*
X121923624Y-67523624D01*
X121984515Y-67432495D01*
X122000500Y-67352133D01*
X122000499Y-67224498D01*
X122020183Y-67157460D01*
X122072987Y-67111705D01*
X122124496Y-67100499D01*
X122252132Y-67100499D01*
X122332495Y-67084515D01*
X122423624Y-67023624D01*
X122484515Y-66932495D01*
X122500500Y-66852133D01*
X122500499Y-66147868D01*
X122484515Y-66067505D01*
X122446977Y-66011326D01*
X122423624Y-65976375D01*
X122368995Y-65939874D01*
X122332495Y-65915485D01*
X122332493Y-65915484D01*
X122332490Y-65915483D01*
X122252135Y-65899500D01*
X122047870Y-65899500D01*
X121967504Y-65915485D01*
X121876375Y-65976375D01*
X121815485Y-66067505D01*
X121815483Y-66067509D01*
X121799500Y-66147862D01*
X121799500Y-66147865D01*
X121799500Y-66147867D01*
X121799500Y-66490208D01*
X121799501Y-66775500D01*
X121779817Y-66842539D01*
X121727013Y-66888294D01*
X121675501Y-66899500D01*
X121624052Y-66899500D01*
X121567758Y-66885985D01*
X121525301Y-66864352D01*
X121431524Y-66849500D01*
X121431519Y-66849500D01*
X120272402Y-66849500D01*
X120205363Y-66829815D01*
X120184721Y-66813181D01*
X120168316Y-66796776D01*
X120125930Y-66777011D01*
X120059487Y-66746028D01*
X120059485Y-66746027D01*
X120059486Y-66746027D01*
X120009901Y-66739500D01*
X119590105Y-66739500D01*
X119574386Y-66741569D01*
X119540513Y-66746028D01*
X119540511Y-66746029D01*
X119540509Y-66746029D01*
X119431683Y-66796776D01*
X119415279Y-66813181D01*
X119353956Y-66846666D01*
X119327598Y-66849500D01*
X119024000Y-66849500D01*
X118956961Y-66829815D01*
X118911206Y-66777011D01*
X118900000Y-66725500D01*
X118900000Y-66600000D01*
X116400000Y-66600000D01*
X116400000Y-69800000D01*
X116660505Y-69800000D01*
X116727544Y-69819685D01*
X116773299Y-69872489D01*
X116783243Y-69941647D01*
X116773501Y-69971596D01*
X116773953Y-69971755D01*
X116727274Y-70105150D01*
X116724500Y-70134739D01*
X116724500Y-70285956D01*
X116720897Y-70315630D01*
X116701588Y-70393972D01*
X116699500Y-70402444D01*
X116699500Y-70572556D01*
X116718951Y-70651472D01*
X116720897Y-70659367D01*
X116724500Y-70689042D01*
X116724500Y-70840260D01*
X116727274Y-70869849D01*
X116770884Y-70994476D01*
X116849288Y-71100710D01*
X116849289Y-71100711D01*
X116955523Y-71179115D01*
X116955524Y-71179115D01*
X116955525Y-71179116D01*
X117080151Y-71222725D01*
X117080150Y-71222725D01*
X117109740Y-71225500D01*
X117109744Y-71225500D01*
X117690260Y-71225500D01*
X117713930Y-71223280D01*
X117719849Y-71222725D01*
X117799199Y-71194958D01*
X117840154Y-71188000D01*
X118449846Y-71188000D01*
X118490800Y-71194958D01*
X118570151Y-71222725D01*
X118570150Y-71222725D01*
X118599740Y-71225500D01*
X118599744Y-71225500D01*
X119180260Y-71225500D01*
X119209849Y-71222725D01*
X119240616Y-71211959D01*
X119334475Y-71179116D01*
X119340419Y-71174728D01*
X119406048Y-71150759D01*
X119414052Y-71150500D01*
X120242374Y-71150500D01*
X120284538Y-71145380D01*
X120368872Y-71135140D01*
X120527930Y-71074818D01*
X120667929Y-70978183D01*
X120780734Y-70850852D01*
X120780737Y-70850847D01*
X120784996Y-70844678D01*
X120786285Y-70845568D01*
X120828793Y-70801632D01*
X120896811Y-70785654D01*
X120962670Y-70808985D01*
X121000493Y-70853168D01*
X121051472Y-70953220D01*
X121051473Y-70953221D01*
X121051476Y-70953225D01*
X121146774Y-71048523D01*
X121146778Y-71048526D01*
X121146780Y-71048528D01*
X121266874Y-71109719D01*
X121266876Y-71109719D01*
X121266878Y-71109720D01*
X121392093Y-71129552D01*
X121455227Y-71159481D01*
X121492159Y-71218792D01*
X121491161Y-71288655D01*
X121452552Y-71346888D01*
X121447084Y-71351166D01*
X121351476Y-71446774D01*
X121351473Y-71446778D01*
X121290279Y-71566878D01*
X121269196Y-71699997D01*
X121269196Y-71700002D01*
X121290279Y-71833121D01*
X121290280Y-71833124D01*
X121290281Y-71833126D01*
X121351472Y-71953220D01*
X121351473Y-71953221D01*
X121351476Y-71953225D01*
X121446774Y-72048523D01*
X121446778Y-72048526D01*
X121446780Y-72048528D01*
X121566874Y-72109719D01*
X121566876Y-72109719D01*
X121566878Y-72109720D01*
X121699998Y-72130804D01*
X121700000Y-72130804D01*
X121700002Y-72130804D01*
X121833123Y-72109720D01*
X121833124Y-72109719D01*
X121833126Y-72109719D01*
X121953220Y-72048528D01*
X121974114Y-72027633D01*
X122004732Y-72008128D01*
X122003782Y-72006482D01*
X122011240Y-72002174D01*
X122019361Y-71998809D01*
X122019389Y-71998792D01*
X122019511Y-71998747D01*
X122032926Y-71993189D01*
X122039010Y-71990352D01*
X122039015Y-71990351D01*
X122071102Y-71967883D01*
X122075643Y-71964991D01*
X122076019Y-71964774D01*
X122087072Y-71958392D01*
X122154970Y-71941921D01*
X122220997Y-71964774D01*
X122264187Y-72019696D01*
X122271543Y-72085174D01*
X122269196Y-72099996D01*
X122269196Y-72100002D01*
X122290279Y-72233121D01*
X122290280Y-72233124D01*
X122290281Y-72233126D01*
X122336745Y-72324316D01*
X122351473Y-72353221D01*
X122351476Y-72353225D01*
X122446774Y-72448523D01*
X122446778Y-72448526D01*
X122446780Y-72448528D01*
X122566874Y-72509719D01*
X122566876Y-72509719D01*
X122566878Y-72509720D01*
X122699998Y-72530804D01*
X122700000Y-72530804D01*
X122700002Y-72530804D01*
X122833121Y-72509720D01*
X122833121Y-72509719D01*
X122833126Y-72509719D01*
X122953220Y-72448528D01*
X123048528Y-72353220D01*
X123100017Y-72252166D01*
X123147989Y-72201373D01*
X123215810Y-72184578D01*
X123281945Y-72207115D01*
X123325397Y-72261830D01*
X123334500Y-72308464D01*
X123334500Y-72367954D01*
X123314815Y-72434993D01*
X123298181Y-72455635D01*
X122437142Y-73316673D01*
X122375819Y-73350158D01*
X122306127Y-73345174D01*
X122250194Y-73303302D01*
X122225777Y-73237838D01*
X122226988Y-73209593D01*
X122227569Y-73205928D01*
X122230804Y-73185500D01*
X122228299Y-73169686D01*
X122209720Y-73052378D01*
X122209719Y-73052376D01*
X122209719Y-73052374D01*
X122148528Y-72932280D01*
X122148526Y-72932278D01*
X122148523Y-72932274D01*
X122053225Y-72836976D01*
X122053221Y-72836973D01*
X122053220Y-72836972D01*
X121933126Y-72775781D01*
X121933124Y-72775780D01*
X121933121Y-72775779D01*
X121800002Y-72754696D01*
X121799998Y-72754696D01*
X121666878Y-72775779D01*
X121546778Y-72836973D01*
X121451467Y-72932284D01*
X121450668Y-72933386D01*
X121449352Y-72934400D01*
X121444572Y-72939181D01*
X121443954Y-72938563D01*
X121395338Y-72976052D01*
X121350351Y-72984500D01*
X112882047Y-72984500D01*
X112815008Y-72964815D01*
X112794366Y-72948181D01*
X111662596Y-71816411D01*
X111629111Y-71755088D01*
X111634095Y-71685396D01*
X111675967Y-71629463D01*
X111730879Y-71606256D01*
X111738857Y-71604993D01*
X111858951Y-71543802D01*
X111954259Y-71448494D01*
X112015450Y-71328400D01*
X112018043Y-71312024D01*
X112047972Y-71248891D01*
X112107284Y-71211959D01*
X112177146Y-71212957D01*
X112229032Y-71247358D01*
X112230071Y-71246320D01*
X112235195Y-71251444D01*
X112235379Y-71251566D01*
X112235602Y-71251851D01*
X112332274Y-71348523D01*
X112332278Y-71348526D01*
X112332280Y-71348528D01*
X112452374Y-71409719D01*
X112452376Y-71409719D01*
X112452378Y-71409720D01*
X112585498Y-71430804D01*
X112585500Y-71430804D01*
X112585502Y-71430804D01*
X112718621Y-71409720D01*
X112718621Y-71409719D01*
X112718626Y-71409719D01*
X112838720Y-71348528D01*
X112934028Y-71253220D01*
X112995219Y-71133126D01*
X112998926Y-71109720D01*
X113016304Y-71000002D01*
X113016304Y-70999997D01*
X112995220Y-70866878D01*
X112995219Y-70866876D01*
X112995219Y-70866874D01*
X112934028Y-70746780D01*
X112934026Y-70746778D01*
X112929597Y-70738085D01*
X112932932Y-70736385D01*
X112915698Y-70687998D01*
X112915500Y-70680988D01*
X112915500Y-70516478D01*
X112915736Y-70511071D01*
X112917061Y-70495935D01*
X112919148Y-70472078D01*
X112909014Y-70434262D01*
X112907846Y-70428992D01*
X112904818Y-70411819D01*
X112901047Y-70390428D01*
X112901046Y-70390426D01*
X112901046Y-70390425D01*
X112898756Y-70384134D01*
X112893188Y-70370694D01*
X112890352Y-70364612D01*
X112890351Y-70364607D01*
X112867884Y-70332521D01*
X112865004Y-70328001D01*
X112845415Y-70294072D01*
X112815417Y-70268900D01*
X112811433Y-70265249D01*
X112413943Y-69867759D01*
X112380458Y-69806436D01*
X112380018Y-69804328D01*
X112367576Y-69741770D01*
X112366886Y-69740105D01*
X112356388Y-69714759D01*
X112353310Y-69707328D01*
X112353308Y-69707325D01*
X112353306Y-69707322D01*
X112353306Y-69707321D01*
X112316415Y-69652112D01*
X112308993Y-69641004D01*
X112242671Y-69596690D01*
X112217182Y-69586133D01*
X112214561Y-69585047D01*
X112208231Y-69582425D01*
X112208222Y-69582422D01*
X112130003Y-69566864D01*
X112130000Y-69566864D01*
X112123333Y-69568190D01*
X112099145Y-69570572D01*
X111495854Y-69570572D01*
X111471663Y-69568189D01*
X111465001Y-69566864D01*
X111465000Y-69566864D01*
X111464999Y-69566864D01*
X111386777Y-69582422D01*
X111386766Y-69582426D01*
X111377817Y-69586133D01*
X111375285Y-69587182D01*
X111352329Y-69596690D01*
X111352325Y-69596692D01*
X111352324Y-69596692D01*
X111286006Y-69641004D01*
X111286003Y-69641007D01*
X111241693Y-69707322D01*
X111241685Y-69707336D01*
X111237144Y-69718301D01*
X111193301Y-69772703D01*
X111127006Y-69794765D01*
X111059308Y-69777483D01*
X111053694Y-69773946D01*
X111052113Y-69772889D01*
X111052112Y-69772888D01*
X110984688Y-69727837D01*
X110965116Y-69714759D01*
X110965112Y-69714758D01*
X110888404Y-69699500D01*
X110711601Y-69699500D01*
X110634880Y-69714760D01*
X110618889Y-69725446D01*
X110552212Y-69746323D01*
X110484832Y-69727837D01*
X110481111Y-69725446D01*
X110465117Y-69714759D01*
X110388403Y-69699500D01*
X110211601Y-69699500D01*
X110134880Y-69714760D01*
X110118889Y-69725446D01*
X110052212Y-69746323D01*
X109984832Y-69727837D01*
X109981111Y-69725446D01*
X109965117Y-69714759D01*
X109888403Y-69699500D01*
X109711601Y-69699500D01*
X109634880Y-69714760D01*
X109618889Y-69725446D01*
X109552212Y-69746323D01*
X109484832Y-69727837D01*
X109481111Y-69725446D01*
X109465117Y-69714759D01*
X109388403Y-69699500D01*
X109211601Y-69699500D01*
X109134880Y-69714760D01*
X109118889Y-69725446D01*
X109052212Y-69746323D01*
X108984832Y-69727837D01*
X108981111Y-69725446D01*
X108965117Y-69714759D01*
X108888403Y-69699500D01*
X108711600Y-69699500D01*
X108630094Y-69715712D01*
X108560503Y-69709483D01*
X108505326Y-69666619D01*
X108482083Y-69600729D01*
X108484288Y-69569902D01*
X108487009Y-69556222D01*
X108500500Y-69488401D01*
X108500499Y-69311600D01*
X108485240Y-69234883D01*
X108485239Y-69234881D01*
X108485238Y-69234878D01*
X108474555Y-69218891D01*
X108453676Y-69152214D01*
X108472160Y-69084833D01*
X108474517Y-69081164D01*
X108485240Y-69065117D01*
X108500500Y-68988401D01*
X108500499Y-68811600D01*
X108485240Y-68734883D01*
X108485239Y-68734881D01*
X108485238Y-68734878D01*
X108474555Y-68718891D01*
X108453676Y-68652214D01*
X108472160Y-68584833D01*
X108474517Y-68581164D01*
X108485240Y-68565117D01*
X108500500Y-68488401D01*
X108500499Y-68311600D01*
X108485240Y-68234883D01*
X108485239Y-68234881D01*
X108485238Y-68234878D01*
X108474555Y-68218891D01*
X108453676Y-68152214D01*
X108472160Y-68084833D01*
X108474517Y-68081164D01*
X108485240Y-68065117D01*
X108500500Y-67988401D01*
X108500499Y-67811600D01*
X108485240Y-67734883D01*
X108485239Y-67734881D01*
X108485238Y-67734878D01*
X108474555Y-67718891D01*
X108453676Y-67652214D01*
X108472160Y-67584833D01*
X108474517Y-67581164D01*
X108485240Y-67565117D01*
X108500500Y-67488401D01*
X108500499Y-67311600D01*
X108485240Y-67234883D01*
X108485239Y-67234881D01*
X108484287Y-67230095D01*
X108490516Y-67160504D01*
X108533379Y-67105327D01*
X108599269Y-67082083D01*
X108630097Y-67084288D01*
X108634882Y-67085239D01*
X108634883Y-67085240D01*
X108711599Y-67100500D01*
X108888400Y-67100499D01*
X108965117Y-67085240D01*
X108981107Y-67074555D01*
X109047783Y-67053676D01*
X109115164Y-67072159D01*
X109118871Y-67074541D01*
X109134880Y-67085238D01*
X109134883Y-67085240D01*
X109134887Y-67085241D01*
X109162573Y-67090748D01*
X109211599Y-67100500D01*
X109388400Y-67100499D01*
X109465117Y-67085240D01*
X109481107Y-67074555D01*
X109547783Y-67053676D01*
X109615164Y-67072159D01*
X109618871Y-67074541D01*
X109634880Y-67085238D01*
X109634883Y-67085240D01*
X109634887Y-67085241D01*
X109662573Y-67090748D01*
X109711599Y-67100500D01*
X109888400Y-67100499D01*
X109965117Y-67085240D01*
X109981107Y-67074555D01*
X110047783Y-67053676D01*
X110115164Y-67072159D01*
X110118871Y-67074541D01*
X110134880Y-67085238D01*
X110134883Y-67085240D01*
X110134887Y-67085241D01*
X110162573Y-67090748D01*
X110211599Y-67100500D01*
X110388400Y-67100499D01*
X110465117Y-67085240D01*
X110481107Y-67074555D01*
X110547783Y-67053676D01*
X110615164Y-67072159D01*
X110618871Y-67074541D01*
X110634880Y-67085238D01*
X110634883Y-67085240D01*
X110634887Y-67085241D01*
X110662573Y-67090748D01*
X110711599Y-67100500D01*
X110888400Y-67100499D01*
X110965117Y-67085240D01*
X110965117Y-67085239D01*
X110969903Y-67084288D01*
X111039495Y-67090515D01*
X111094672Y-67133379D01*
X111117916Y-67199269D01*
X111115711Y-67230096D01*
X111099500Y-67311594D01*
X111099500Y-67488398D01*
X111114760Y-67565119D01*
X111125446Y-67581111D01*
X111146323Y-67647788D01*
X111127837Y-67715168D01*
X111125446Y-67718889D01*
X111114759Y-67734882D01*
X111099500Y-67811596D01*
X111099500Y-67988398D01*
X111114760Y-68065119D01*
X111125446Y-68081111D01*
X111146323Y-68147788D01*
X111127837Y-68215168D01*
X111125446Y-68218889D01*
X111114759Y-68234882D01*
X111099500Y-68311596D01*
X111099500Y-68488398D01*
X111114760Y-68565119D01*
X111125446Y-68581111D01*
X111146323Y-68647788D01*
X111127837Y-68715168D01*
X111125446Y-68718889D01*
X111114759Y-68734882D01*
X111099500Y-68811596D01*
X111099500Y-68988398D01*
X111114760Y-69065118D01*
X111114761Y-69065120D01*
X111145873Y-69111681D01*
X111172888Y-69152112D01*
X111259883Y-69210240D01*
X111259886Y-69210240D01*
X111259887Y-69210241D01*
X111279695Y-69214181D01*
X111336599Y-69225500D01*
X112138400Y-69225499D01*
X112167958Y-69219620D01*
X112176698Y-69217882D01*
X112200886Y-69215500D01*
X112552598Y-69215500D01*
X112619637Y-69235185D01*
X112640279Y-69251819D01*
X112646776Y-69258316D01*
X112731684Y-69343224D01*
X112840513Y-69393972D01*
X112890099Y-69400500D01*
X113265105Y-69400499D01*
X113297002Y-69404672D01*
X113297280Y-69404746D01*
X113319016Y-69413728D01*
X113325448Y-69416069D01*
X113325452Y-69416071D01*
X113334987Y-69417752D01*
X113397590Y-69448778D01*
X113401137Y-69452187D01*
X113412497Y-69463547D01*
X113412501Y-69463550D01*
X113412503Y-69463552D01*
X113532597Y-69524743D01*
X113532599Y-69524743D01*
X113532601Y-69524744D01*
X113665721Y-69545828D01*
X113665723Y-69545828D01*
X113665725Y-69545828D01*
X113732286Y-69535285D01*
X113798849Y-69524743D01*
X113884929Y-69480882D01*
X113953597Y-69467986D01*
X114018337Y-69494262D01*
X114058595Y-69551368D01*
X114065223Y-69591367D01*
X114065223Y-71289250D01*
X114045538Y-71356289D01*
X114028894Y-71376942D01*
X114024702Y-71381133D01*
X113963375Y-71414610D01*
X113956430Y-71415914D01*
X113881376Y-71427801D01*
X113801311Y-71468597D01*
X113761280Y-71488994D01*
X113761279Y-71488995D01*
X113761274Y-71488998D01*
X113665976Y-71584296D01*
X113665973Y-71584300D01*
X113604779Y-71704400D01*
X113583696Y-71837519D01*
X113583696Y-71837524D01*
X113604779Y-71970643D01*
X113604780Y-71970646D01*
X113604781Y-71970648D01*
X113659433Y-72077908D01*
X113665973Y-72090743D01*
X113665976Y-72090747D01*
X113761274Y-72186045D01*
X113761278Y-72186048D01*
X113761280Y-72186050D01*
X113881374Y-72247241D01*
X113881376Y-72247241D01*
X113881378Y-72247242D01*
X114014498Y-72268326D01*
X114014500Y-72268326D01*
X114014502Y-72268326D01*
X114147621Y-72247242D01*
X114147621Y-72247241D01*
X114147626Y-72247241D01*
X114267720Y-72186050D01*
X114363028Y-72090742D01*
X114424219Y-71970648D01*
X114436106Y-71895587D01*
X114466034Y-71832457D01*
X114470880Y-71827325D01*
X114492779Y-71805426D01*
X114554100Y-71771943D01*
X114623792Y-71776927D01*
X114679725Y-71818799D01*
X114702931Y-71873712D01*
X114705371Y-71889122D01*
X114705371Y-71889123D01*
X114716867Y-71911684D01*
X114766564Y-72009220D01*
X114766566Y-72009222D01*
X114766568Y-72009225D01*
X114861866Y-72104523D01*
X114861870Y-72104526D01*
X114861872Y-72104528D01*
X114981966Y-72165719D01*
X114981968Y-72165719D01*
X114981970Y-72165720D01*
X115115090Y-72186804D01*
X115115092Y-72186804D01*
X115115094Y-72186804D01*
X115248213Y-72165720D01*
X115248213Y-72165719D01*
X115248218Y-72165719D01*
X115368312Y-72104528D01*
X115463620Y-72009220D01*
X115524811Y-71889126D01*
X115526940Y-71875683D01*
X115545896Y-71756002D01*
X115545896Y-71755997D01*
X115524812Y-71622878D01*
X115524811Y-71622876D01*
X115524811Y-71622874D01*
X115463620Y-71502780D01*
X115463618Y-71502778D01*
X115463615Y-71502774D01*
X115368317Y-71407476D01*
X115368314Y-71407474D01*
X115368312Y-71407472D01*
X115248218Y-71346281D01*
X115248216Y-71346280D01*
X115248215Y-71346280D01*
X115230823Y-71343525D01*
X115167689Y-71313594D01*
X115130758Y-71254282D01*
X115126223Y-71221052D01*
X115126223Y-68527201D01*
X115126459Y-68521794D01*
X115129871Y-68482801D01*
X115128646Y-68478229D01*
X115119737Y-68444985D01*
X115118569Y-68439715D01*
X115111770Y-68401151D01*
X115111769Y-68401149D01*
X115111769Y-68401148D01*
X115109479Y-68394857D01*
X115103911Y-68381417D01*
X115101075Y-68375335D01*
X115101074Y-68375330D01*
X115078607Y-68343244D01*
X115075727Y-68338724D01*
X115056138Y-68304795D01*
X115026140Y-68279623D01*
X115022156Y-68275972D01*
X114720684Y-67974500D01*
X114412848Y-67666664D01*
X114409209Y-67662693D01*
X114384040Y-67632697D01*
X114384039Y-67632696D01*
X114384038Y-67632695D01*
X114350135Y-67613121D01*
X114345572Y-67610214D01*
X114313504Y-67587760D01*
X114307462Y-67584943D01*
X114293958Y-67579349D01*
X114287682Y-67577064D01*
X114249127Y-67570266D01*
X114243845Y-67569095D01*
X114206032Y-67558963D01*
X114174973Y-67561681D01*
X114167030Y-67562376D01*
X114161630Y-67562612D01*
X112982934Y-67562612D01*
X112915895Y-67542927D01*
X112870140Y-67490123D01*
X112860196Y-67420965D01*
X112889221Y-67357409D01*
X112895253Y-67350931D01*
X116510133Y-63736052D01*
X116686291Y-63559894D01*
X119489500Y-63559894D01*
X119489501Y-63559900D01*
X119496028Y-63609487D01*
X119496029Y-63609489D01*
X119496029Y-63609490D01*
X119525093Y-63671817D01*
X119546776Y-63718316D01*
X119631684Y-63803224D01*
X119740513Y-63853972D01*
X119790099Y-63860500D01*
X120096767Y-63860499D01*
X120125135Y-63863788D01*
X120128723Y-63864630D01*
X120133228Y-63865690D01*
X120141423Y-63868227D01*
X120167939Y-63878500D01*
X120173303Y-63878500D01*
X120201693Y-63881793D01*
X120206915Y-63883022D01*
X120235065Y-63879095D01*
X120243641Y-63878500D01*
X120525500Y-63878500D01*
X120592539Y-63898185D01*
X120638294Y-63950989D01*
X120649500Y-64002500D01*
X120649500Y-64119752D01*
X120661131Y-64178229D01*
X120661132Y-64178230D01*
X120705447Y-64244552D01*
X120771769Y-64288867D01*
X120771770Y-64288868D01*
X120830247Y-64300499D01*
X120830250Y-64300500D01*
X120830252Y-64300500D01*
X121541500Y-64300500D01*
X121608539Y-64320185D01*
X121654294Y-64372989D01*
X121665500Y-64424500D01*
X121665500Y-64585441D01*
X121664905Y-64594015D01*
X121663393Y-64604853D01*
X121663393Y-64604856D01*
X121663393Y-64604857D01*
X121663867Y-64615113D01*
X121665434Y-64649011D01*
X121665500Y-64651874D01*
X121665500Y-64669810D01*
X121665898Y-64671936D01*
X121666887Y-64680468D01*
X121668200Y-64708865D01*
X121668201Y-64708867D01*
X121670370Y-64713780D01*
X121678821Y-64741071D01*
X121679568Y-64745064D01*
X121679808Y-64746349D01*
X121694770Y-64770513D01*
X121698778Y-64778117D01*
X121710257Y-64804116D01*
X121714051Y-64807910D01*
X121731796Y-64830312D01*
X121734621Y-64834874D01*
X121757299Y-64851999D01*
X121763781Y-64857640D01*
X122306141Y-65400000D01*
X122806877Y-65900735D01*
X122840362Y-65962058D01*
X122835378Y-66031750D01*
X122822302Y-66057302D01*
X122815485Y-66067505D01*
X122815483Y-66067509D01*
X122799500Y-66147862D01*
X122799500Y-66852129D01*
X122815485Y-66932495D01*
X122876375Y-67023624D01*
X122909112Y-67045498D01*
X122967505Y-67084515D01*
X122967508Y-67084515D01*
X122967509Y-67084516D01*
X122972185Y-67085446D01*
X123047867Y-67100500D01*
X123252132Y-67100499D01*
X123332495Y-67084515D01*
X123332498Y-67084512D01*
X123343778Y-67079841D01*
X123344376Y-67081286D01*
X123397782Y-67064563D01*
X123455943Y-67080516D01*
X123456223Y-67079842D01*
X123461590Y-67082065D01*
X123465162Y-67083045D01*
X123467351Y-67084451D01*
X123467506Y-67084516D01*
X123517703Y-67094500D01*
X123547867Y-67100500D01*
X123752132Y-67100499D01*
X123832495Y-67084515D01*
X123923624Y-67023624D01*
X123984515Y-66932495D01*
X124000500Y-66852133D01*
X124000499Y-66352892D01*
X124297382Y-66352892D01*
X124299500Y-66404076D01*
X124299500Y-66852129D01*
X124315485Y-66932495D01*
X124376375Y-67023624D01*
X124409112Y-67045498D01*
X124467505Y-67084515D01*
X124467508Y-67084515D01*
X124467509Y-67084516D01*
X124472185Y-67085446D01*
X124547867Y-67100500D01*
X124675500Y-67100499D01*
X124742539Y-67120183D01*
X124788294Y-67172987D01*
X124799500Y-67224498D01*
X124799500Y-67352129D01*
X124801678Y-67363079D01*
X124813795Y-67424000D01*
X124815486Y-67432498D01*
X124820159Y-67443780D01*
X124818714Y-67444378D01*
X124835436Y-67497788D01*
X124819482Y-67555938D01*
X124820159Y-67556219D01*
X124817926Y-67561609D01*
X124816950Y-67565168D01*
X124815550Y-67567345D01*
X124815484Y-67567505D01*
X124799500Y-67647863D01*
X124799500Y-67852129D01*
X124803950Y-67874500D01*
X124812950Y-67919752D01*
X124815486Y-67932498D01*
X124820159Y-67943780D01*
X124818714Y-67944378D01*
X124835436Y-67997788D01*
X124819482Y-68055938D01*
X124820159Y-68056219D01*
X124817926Y-68061609D01*
X124816950Y-68065168D01*
X124815550Y-68067345D01*
X124815484Y-68067505D01*
X124799500Y-68147863D01*
X124799500Y-68352129D01*
X124799649Y-68352877D01*
X124815226Y-68431194D01*
X124815486Y-68432498D01*
X124820159Y-68443780D01*
X124818714Y-68444378D01*
X124835436Y-68497788D01*
X124819482Y-68555938D01*
X124820159Y-68556219D01*
X124817926Y-68561609D01*
X124816950Y-68565168D01*
X124815550Y-68567345D01*
X124815484Y-68567505D01*
X124799500Y-68647863D01*
X124799500Y-68852129D01*
X124815485Y-68932495D01*
X124876375Y-69023624D01*
X124903349Y-69041647D01*
X124967505Y-69084515D01*
X124967508Y-69084515D01*
X124967509Y-69084516D01*
X124994533Y-69089891D01*
X125047867Y-69100500D01*
X125327069Y-69100499D01*
X125327079Y-69100500D01*
X125341512Y-69100500D01*
X126681936Y-69100500D01*
X126748975Y-69120185D01*
X126794730Y-69172989D01*
X126801586Y-69191945D01*
X126802414Y-69194991D01*
X126847793Y-69297764D01*
X126847794Y-69297765D01*
X126927235Y-69377206D01*
X127030009Y-69422585D01*
X127055135Y-69425500D01*
X127344864Y-69425499D01*
X127344879Y-69425497D01*
X127344882Y-69425497D01*
X127369987Y-69422586D01*
X127369988Y-69422585D01*
X127369991Y-69422585D01*
X127472765Y-69377206D01*
X127500652Y-69349319D01*
X127561975Y-69315834D01*
X127588333Y-69313000D01*
X127690098Y-69313000D01*
X127757137Y-69332685D01*
X127777779Y-69349319D01*
X127781684Y-69353224D01*
X127890513Y-69403972D01*
X127940099Y-69410500D01*
X128299900Y-69410499D01*
X128349487Y-69403972D01*
X128458316Y-69353224D01*
X128543224Y-69268316D01*
X128593972Y-69159487D01*
X128600500Y-69109901D01*
X128600499Y-68690100D01*
X128593972Y-68640513D01*
X128593971Y-68640512D01*
X128593668Y-68638205D01*
X128604435Y-68569170D01*
X128650815Y-68516915D01*
X128718085Y-68498031D01*
X128730890Y-68498847D01*
X128745135Y-68500500D01*
X128965978Y-68500499D01*
X128965990Y-68500500D01*
X128975981Y-68500500D01*
X129564167Y-68500500D01*
X129631206Y-68520185D01*
X129651848Y-68536819D01*
X129727235Y-68612206D01*
X129830009Y-68657585D01*
X129855135Y-68660500D01*
X130144864Y-68660499D01*
X130144879Y-68660497D01*
X130144882Y-68660497D01*
X130169986Y-68657586D01*
X130169987Y-68657585D01*
X130169991Y-68657585D01*
X130173701Y-68655946D01*
X130178160Y-68655362D01*
X130178989Y-68655137D01*
X130179019Y-68655249D01*
X130242976Y-68646871D01*
X130295863Y-68668473D01*
X130900000Y-69100000D01*
X130900002Y-69100000D01*
X139400000Y-69100000D01*
X139400000Y-68100000D01*
X139363681Y-68063681D01*
X139364352Y-68063009D01*
X139345908Y-68044892D01*
X139319552Y-68005448D01*
X139314385Y-68001995D01*
X139253230Y-67961132D01*
X139253229Y-67961131D01*
X139194752Y-67949500D01*
X139194748Y-67949500D01*
X138866510Y-67949500D01*
X138862088Y-67949342D01*
X138846118Y-67948199D01*
X138821138Y-67946413D01*
X138821136Y-67946413D01*
X138821135Y-67946413D01*
X138819964Y-67946667D01*
X138793614Y-67949500D01*
X138505247Y-67949500D01*
X138446770Y-67961131D01*
X138446769Y-67961132D01*
X138380448Y-68005447D01*
X138372867Y-68016793D01*
X138354092Y-68044891D01*
X138300482Y-68089696D01*
X138250991Y-68100000D01*
X131228962Y-68100000D01*
X131161923Y-68080315D01*
X131150297Y-68071853D01*
X131093207Y-68025000D01*
X131085581Y-68018741D01*
X131081074Y-68014656D01*
X131068413Y-68001995D01*
X131022918Y-67956501D01*
X131013393Y-67949581D01*
X130884962Y-67856272D01*
X130884960Y-67856270D01*
X130884956Y-67856268D01*
X130773840Y-67799655D01*
X130733306Y-67766633D01*
X130528816Y-67511020D01*
X130502309Y-67446376D01*
X130514959Y-67377661D01*
X130562751Y-67326694D01*
X130575545Y-67320132D01*
X130597216Y-67310563D01*
X130647298Y-67300000D01*
X133152702Y-67300000D01*
X133202787Y-67310565D01*
X133230009Y-67322585D01*
X133255135Y-67325500D01*
X133544864Y-67325499D01*
X133544879Y-67325497D01*
X133544882Y-67325497D01*
X133569987Y-67322586D01*
X133569991Y-67322585D01*
X133597212Y-67310566D01*
X133647298Y-67300000D01*
X137552702Y-67300000D01*
X137602787Y-67310565D01*
X137630009Y-67322585D01*
X137655135Y-67325500D01*
X137944864Y-67325499D01*
X137944879Y-67325497D01*
X137944882Y-67325497D01*
X137969987Y-67322586D01*
X137969991Y-67322585D01*
X137997212Y-67310566D01*
X138047298Y-67300000D01*
X138250991Y-67300000D01*
X138318030Y-67319685D01*
X138354091Y-67355107D01*
X138365706Y-67372489D01*
X138380448Y-67394552D01*
X138446769Y-67438867D01*
X138446770Y-67438868D01*
X138505247Y-67450499D01*
X138505250Y-67450500D01*
X138505252Y-67450500D01*
X138793614Y-67450500D01*
X138819964Y-67453332D01*
X138821135Y-67453587D01*
X138862088Y-67450657D01*
X138866510Y-67450500D01*
X139194750Y-67450500D01*
X139194751Y-67450499D01*
X139215481Y-67446376D01*
X139253229Y-67438868D01*
X139253229Y-67438867D01*
X139253231Y-67438867D01*
X139319552Y-67394552D01*
X139345907Y-67355108D01*
X139365824Y-67338462D01*
X139363681Y-67336319D01*
X139400000Y-67300000D01*
X139400000Y-66399999D01*
X138172258Y-66387210D01*
X138105428Y-66366828D01*
X138085869Y-66350898D01*
X138072765Y-66337794D01*
X137969992Y-66292415D01*
X137944865Y-66289500D01*
X137655143Y-66289500D01*
X137655117Y-66289502D01*
X137630012Y-66292413D01*
X137630008Y-66292415D01*
X137527236Y-66337793D01*
X137527232Y-66337796D01*
X137521829Y-66343199D01*
X137460505Y-66376682D01*
X137432859Y-66379508D01*
X133704154Y-66340668D01*
X133655361Y-66330109D01*
X133587641Y-66300208D01*
X133569992Y-66292415D01*
X133544865Y-66289500D01*
X133255143Y-66289500D01*
X133255119Y-66289502D01*
X133230010Y-66292414D01*
X133230005Y-66292415D01*
X133158715Y-66323892D01*
X133107340Y-66334450D01*
X132895794Y-66332247D01*
X132828963Y-66311866D01*
X132783760Y-66258588D01*
X132774538Y-66189330D01*
X132783649Y-66158171D01*
X132822585Y-66069991D01*
X132825500Y-66044865D01*
X132825499Y-65755136D01*
X132825497Y-65755117D01*
X132822586Y-65730012D01*
X132822585Y-65730010D01*
X132822585Y-65730009D01*
X132777206Y-65627235D01*
X132697765Y-65547794D01*
X132680532Y-65540185D01*
X132594992Y-65502415D01*
X132569865Y-65499500D01*
X132045143Y-65499500D01*
X132045117Y-65499502D01*
X132020012Y-65502413D01*
X132020011Y-65502414D01*
X131950085Y-65533289D01*
X131880807Y-65542360D01*
X131849914Y-65533289D01*
X131841299Y-65529485D01*
X131779991Y-65502415D01*
X131754865Y-65499500D01*
X131230143Y-65499500D01*
X131230117Y-65499502D01*
X131205012Y-65502413D01*
X131205008Y-65502415D01*
X131102235Y-65547793D01*
X131022794Y-65627234D01*
X130977415Y-65730006D01*
X130977415Y-65730008D01*
X130974500Y-65755131D01*
X130974500Y-66044856D01*
X130974502Y-66044882D01*
X130977413Y-66069987D01*
X130977415Y-66069991D01*
X131007134Y-66137299D01*
X131016206Y-66206577D01*
X130986382Y-66269762D01*
X130927133Y-66306793D01*
X130892408Y-66311378D01*
X130631669Y-66308662D01*
X130582877Y-66298104D01*
X130569995Y-66292416D01*
X130569991Y-66292415D01*
X130544865Y-66289500D01*
X130255143Y-66289500D01*
X130255119Y-66289502D01*
X130230014Y-66292413D01*
X130230006Y-66292416D01*
X130227857Y-66293365D01*
X130222385Y-66294489D01*
X130221008Y-66294864D01*
X130220984Y-66294777D01*
X130176484Y-66303921D01*
X129916673Y-66301214D01*
X129849842Y-66280832D01*
X129804640Y-66227555D01*
X129795418Y-66158296D01*
X129825103Y-66095046D01*
X129830269Y-66089554D01*
X129857449Y-66062375D01*
X129857449Y-66062373D01*
X129857451Y-66062372D01*
X129898853Y-65977682D01*
X129910291Y-65954286D01*
X129920500Y-65884215D01*
X129920499Y-65370786D01*
X129910291Y-65300714D01*
X129910289Y-65300709D01*
X129910289Y-65300708D01*
X129857451Y-65192627D01*
X129857449Y-65192624D01*
X129772375Y-65107550D01*
X129772372Y-65107548D01*
X129664289Y-65054710D01*
X129664287Y-65054709D01*
X129664286Y-65054709D01*
X129594215Y-65044500D01*
X129594209Y-65044500D01*
X129205786Y-65044500D01*
X129156342Y-65051703D01*
X129135714Y-65054709D01*
X129135712Y-65054709D01*
X129135710Y-65054710D01*
X129135708Y-65054710D01*
X129027627Y-65107548D01*
X128961038Y-65174137D01*
X128899714Y-65207621D01*
X128830023Y-65202636D01*
X128785676Y-65174136D01*
X128768316Y-65156776D01*
X128721491Y-65134941D01*
X128659487Y-65106028D01*
X128659485Y-65106027D01*
X128659486Y-65106027D01*
X128609901Y-65099500D01*
X128190105Y-65099500D01*
X128174386Y-65101569D01*
X128140513Y-65106028D01*
X128140511Y-65106029D01*
X128140509Y-65106029D01*
X128031683Y-65156776D01*
X127987681Y-65200779D01*
X127926358Y-65234264D01*
X127856666Y-65229280D01*
X127812319Y-65200779D01*
X127768316Y-65156776D01*
X127721491Y-65134941D01*
X127659487Y-65106028D01*
X127659485Y-65106027D01*
X127659486Y-65106027D01*
X127609901Y-65099500D01*
X127190105Y-65099500D01*
X127174386Y-65101569D01*
X127140513Y-65106028D01*
X127140511Y-65106029D01*
X127140509Y-65106029D01*
X127031683Y-65156776D01*
X127020279Y-65168181D01*
X126958956Y-65201666D01*
X126932598Y-65204500D01*
X126571804Y-65204500D01*
X126546359Y-65201861D01*
X126535733Y-65199633D01*
X126535730Y-65199633D01*
X126500508Y-65204023D01*
X126492832Y-65204500D01*
X126488886Y-65204500D01*
X126471615Y-65207381D01*
X126465858Y-65208342D01*
X126411370Y-65215134D01*
X126403857Y-65217371D01*
X126396388Y-65219935D01*
X126363512Y-65237726D01*
X126295184Y-65252319D01*
X126229812Y-65227653D01*
X126188154Y-65171561D01*
X126180499Y-65128669D01*
X126180499Y-65090105D01*
X126180499Y-65090100D01*
X126173972Y-65040513D01*
X126173969Y-65040506D01*
X126173969Y-65040505D01*
X126162118Y-65015090D01*
X126150500Y-64962686D01*
X126150500Y-64747000D01*
X126170185Y-64679961D01*
X126222989Y-64634206D01*
X126274500Y-64623000D01*
X126572632Y-64623000D01*
X126576377Y-64623113D01*
X126583722Y-64623557D01*
X126638286Y-64626858D01*
X126677918Y-64619595D01*
X126699301Y-64615677D01*
X126703005Y-64615113D01*
X126720850Y-64612946D01*
X126764552Y-64607640D01*
X126774015Y-64604050D01*
X126795641Y-64598022D01*
X126796573Y-64597851D01*
X126805612Y-64596195D01*
X126862192Y-64570729D01*
X126865622Y-64569309D01*
X126923610Y-64547318D01*
X126931946Y-64541562D01*
X126951501Y-64530534D01*
X126960737Y-64526378D01*
X127009576Y-64488113D01*
X127012556Y-64485921D01*
X127063609Y-64450683D01*
X127104760Y-64404231D01*
X127107263Y-64401572D01*
X127284380Y-64224457D01*
X127362968Y-64124146D01*
X127432785Y-63969021D01*
X127463448Y-63801696D01*
X127453176Y-63631894D01*
X127402568Y-63469484D01*
X127314562Y-63323905D01*
X127314560Y-63323903D01*
X127314559Y-63323901D01*
X127194278Y-63203620D01*
X127188455Y-63200100D01*
X127048696Y-63115612D01*
X126886286Y-63065004D01*
X126801385Y-63059868D01*
X126716486Y-63054732D01*
X126716482Y-63054732D01*
X126549159Y-63085394D01*
X126549155Y-63085396D01*
X126394034Y-63155211D01*
X126394031Y-63155213D01*
X126342468Y-63195611D01*
X126277556Y-63221460D01*
X126265995Y-63222000D01*
X126140154Y-63222000D01*
X126099199Y-63215041D01*
X126064288Y-63202825D01*
X126019848Y-63187274D01*
X126019849Y-63187274D01*
X125990260Y-63184500D01*
X125990256Y-63184500D01*
X125409744Y-63184500D01*
X125409740Y-63184500D01*
X125380150Y-63187274D01*
X125255523Y-63230884D01*
X125149289Y-63309288D01*
X125149288Y-63309289D01*
X125070884Y-63415523D01*
X125027274Y-63540150D01*
X125024500Y-63569739D01*
X125024500Y-63720956D01*
X125020897Y-63750630D01*
X124999500Y-63837443D01*
X124999500Y-63837444D01*
X124999500Y-64007556D01*
X125019039Y-64086828D01*
X125020897Y-64094367D01*
X125024500Y-64124042D01*
X125024500Y-64275260D01*
X125027274Y-64304849D01*
X125070884Y-64429476D01*
X125111358Y-64484316D01*
X125149289Y-64535711D01*
X125199134Y-64572498D01*
X125241384Y-64628143D01*
X125249500Y-64672267D01*
X125249500Y-64962686D01*
X125237882Y-65015090D01*
X125226030Y-65040506D01*
X125226027Y-65040516D01*
X125219500Y-65090098D01*
X125219500Y-65280301D01*
X125199815Y-65347340D01*
X125183181Y-65367982D01*
X124687981Y-65863181D01*
X124626658Y-65896666D01*
X124600302Y-65899500D01*
X124547870Y-65899500D01*
X124467504Y-65915485D01*
X124376375Y-65976375D01*
X124315485Y-66067505D01*
X124315483Y-66067509D01*
X124299500Y-66147862D01*
X124299500Y-66332055D01*
X124299023Y-66339732D01*
X124297382Y-66352892D01*
X124000499Y-66352892D01*
X124000499Y-66147868D01*
X123984515Y-66067505D01*
X123984514Y-66067503D01*
X123984513Y-66067501D01*
X123949398Y-66014948D01*
X123928520Y-65948271D01*
X123928500Y-65946057D01*
X123928500Y-65905093D01*
X123929095Y-65896516D01*
X123930605Y-65885687D01*
X123930607Y-65885682D01*
X123928566Y-65841534D01*
X123928500Y-65838671D01*
X123928500Y-65820737D01*
X123928500Y-65820734D01*
X123928100Y-65818598D01*
X123927110Y-65810062D01*
X123926500Y-65796864D01*
X123925798Y-65781673D01*
X123923629Y-65776760D01*
X123915178Y-65749470D01*
X123914192Y-65744192D01*
X123914113Y-65744065D01*
X123905410Y-65730009D01*
X123899225Y-65720020D01*
X123895224Y-65712429D01*
X123883742Y-65686423D01*
X123879946Y-65682627D01*
X123862200Y-65660223D01*
X123859379Y-65655666D01*
X123836696Y-65638537D01*
X123830221Y-65632902D01*
X122614819Y-64417500D01*
X122581334Y-64356177D01*
X122578500Y-64329819D01*
X122578500Y-63166721D01*
X122598185Y-63099682D01*
X122614819Y-63079040D01*
X122757040Y-62936819D01*
X122818363Y-62903334D01*
X122844721Y-62900500D01*
X123769750Y-62900500D01*
X123769751Y-62900499D01*
X123795800Y-62895318D01*
X123828229Y-62888868D01*
X123828229Y-62888867D01*
X123828231Y-62888867D01*
X123894552Y-62844552D01*
X123906122Y-62827236D01*
X123959731Y-62782432D01*
X124029055Y-62773722D01*
X124092084Y-62803875D01*
X124096905Y-62808445D01*
X124131684Y-62843224D01*
X124240513Y-62893972D01*
X124290099Y-62900500D01*
X124709900Y-62900499D01*
X124759487Y-62893972D01*
X124868316Y-62843224D01*
X124953224Y-62758316D01*
X125003972Y-62649487D01*
X125010500Y-62599901D01*
X125010499Y-62240100D01*
X125003972Y-62190513D01*
X124953224Y-62081684D01*
X124868316Y-61996776D01*
X124759487Y-61946028D01*
X124759485Y-61946027D01*
X124759486Y-61946027D01*
X124709902Y-61939500D01*
X124709901Y-61939500D01*
X124403231Y-61939500D01*
X124374834Y-61936205D01*
X124366767Y-61934307D01*
X124358561Y-61931765D01*
X124337417Y-61923575D01*
X124332061Y-61921500D01*
X124332060Y-61921500D01*
X124326697Y-61921500D01*
X124298306Y-61918206D01*
X124293085Y-61916978D01*
X124264935Y-61920905D01*
X124256359Y-61921500D01*
X124074500Y-61921500D01*
X124007461Y-61901815D01*
X123961706Y-61849011D01*
X123950500Y-61797500D01*
X123950500Y-61680249D01*
X123950499Y-61680247D01*
X123938868Y-61621770D01*
X123938867Y-61621769D01*
X123894552Y-61555447D01*
X123828230Y-61511132D01*
X123828229Y-61511131D01*
X123769752Y-61499500D01*
X123769748Y-61499500D01*
X122580252Y-61499500D01*
X122580247Y-61499500D01*
X122521770Y-61511131D01*
X122521769Y-61511132D01*
X122455447Y-61555447D01*
X122411132Y-61621769D01*
X122411131Y-61621770D01*
X122399500Y-61680247D01*
X122399500Y-62455278D01*
X122379815Y-62522317D01*
X122363181Y-62542959D01*
X122144473Y-62761667D01*
X122137991Y-62767308D01*
X122129256Y-62773904D01*
X122099482Y-62806564D01*
X122097506Y-62808633D01*
X122084826Y-62821313D01*
X122084815Y-62821326D01*
X122083584Y-62823123D01*
X122078259Y-62829844D01*
X122051652Y-62859034D01*
X121991943Y-62895318D01*
X121960011Y-62899500D01*
X120830247Y-62899500D01*
X120771770Y-62911131D01*
X120771769Y-62911132D01*
X120705447Y-62955447D01*
X120654348Y-63031923D01*
X120650961Y-63029659D01*
X120621311Y-63066441D01*
X120555013Y-63088496D01*
X120487317Y-63071206D01*
X120462271Y-63047978D01*
X120460895Y-63049355D01*
X120368316Y-62956776D01*
X120325518Y-62936819D01*
X120259487Y-62906028D01*
X120259485Y-62906027D01*
X120259486Y-62906027D01*
X120209901Y-62899500D01*
X119790105Y-62899500D01*
X119774386Y-62901569D01*
X119740513Y-62906028D01*
X119740511Y-62906029D01*
X119740509Y-62906029D01*
X119631683Y-62956776D01*
X119546776Y-63041683D01*
X119496027Y-63150514D01*
X119489500Y-63200097D01*
X119489500Y-63559894D01*
X116686291Y-63559894D01*
X120294366Y-59951819D01*
X120355689Y-59918334D01*
X120382047Y-59915500D01*
X137317954Y-59915500D01*
X137384993Y-59935185D01*
X137405635Y-59951819D01*
X140448181Y-62994365D01*
X140481666Y-63055688D01*
X140484500Y-63082046D01*
X140484500Y-63786672D01*
X140464815Y-63853711D01*
X140426635Y-63887068D01*
X140428485Y-63889710D01*
X140419597Y-63895933D01*
X140335935Y-63979595D01*
X140285931Y-64086828D01*
X140279500Y-64135683D01*
X140279500Y-64484316D01*
X140285931Y-64533171D01*
X140335935Y-64640404D01*
X140427267Y-64731736D01*
X140424443Y-64734559D01*
X140455183Y-64773042D01*
X140462352Y-64842542D01*
X140430808Y-64904886D01*
X140427101Y-64908098D01*
X140427267Y-64908264D01*
X140335935Y-64999595D01*
X140285931Y-65106828D01*
X140279500Y-65155683D01*
X140279500Y-65504316D01*
X140285931Y-65553171D01*
X140285932Y-65553173D01*
X140335935Y-65660404D01*
X140419596Y-65744065D01*
X140427904Y-65747939D01*
X140480343Y-65794110D01*
X140499500Y-65860321D01*
X140499500Y-66528988D01*
X140479815Y-66596027D01*
X140427011Y-66641782D01*
X140399692Y-66650605D01*
X140346770Y-66661132D01*
X140346769Y-66661132D01*
X140280447Y-66705447D01*
X140236132Y-66771769D01*
X140236131Y-66771770D01*
X140224500Y-66830247D01*
X140224500Y-67269752D01*
X140238515Y-67340209D01*
X140237239Y-67340462D01*
X140243317Y-67397023D01*
X140236303Y-67420910D01*
X140224500Y-67480247D01*
X140224500Y-67919752D01*
X140238515Y-67990209D01*
X140237239Y-67990462D01*
X140243317Y-68047023D01*
X140236303Y-68070910D01*
X140224500Y-68130247D01*
X140224500Y-68569752D01*
X140236131Y-68628229D01*
X140236132Y-68628230D01*
X140280447Y-68694552D01*
X140346767Y-68738866D01*
X140346769Y-68738867D01*
X140349684Y-68739447D01*
X140355461Y-68742467D01*
X140358054Y-68743542D01*
X140357957Y-68743773D01*
X140411597Y-68771827D01*
X140446175Y-68832541D01*
X140449500Y-68861065D01*
X140449500Y-69394669D01*
X140429815Y-69461708D01*
X140413181Y-69482350D01*
X140335935Y-69559595D01*
X140285931Y-69666828D01*
X140279500Y-69715683D01*
X140279500Y-70064316D01*
X140285931Y-70113171D01*
X140335935Y-70220404D01*
X140427267Y-70311736D01*
X140424443Y-70314559D01*
X140455183Y-70353042D01*
X140462352Y-70422542D01*
X140430808Y-70484886D01*
X140427100Y-70488098D01*
X140427267Y-70488265D01*
X140419597Y-70495934D01*
X140419596Y-70495935D01*
X140385716Y-70529815D01*
X140356389Y-70559142D01*
X140295065Y-70592626D01*
X140243047Y-70590026D01*
X140242765Y-70591807D01*
X140100002Y-70569196D01*
X140099998Y-70569196D01*
X139966878Y-70590279D01*
X139846778Y-70651473D01*
X139846774Y-70651476D01*
X139751476Y-70746774D01*
X139751473Y-70746778D01*
X139751472Y-70746780D01*
X139707477Y-70833126D01*
X139690279Y-70866878D01*
X139669196Y-70999997D01*
X139669196Y-71000002D01*
X139690279Y-71133121D01*
X139690280Y-71133124D01*
X139690281Y-71133126D01*
X139751472Y-71253220D01*
X139751473Y-71253221D01*
X139751476Y-71253225D01*
X139846774Y-71348523D01*
X139846778Y-71348526D01*
X139846780Y-71348528D01*
X139966874Y-71409719D01*
X139966876Y-71409719D01*
X139966878Y-71409720D01*
X140099998Y-71430804D01*
X140100000Y-71430804D01*
X140100002Y-71430804D01*
X140233122Y-71409720D01*
X140233123Y-71409719D01*
X140233126Y-71409719D01*
X140353220Y-71348528D01*
X140353222Y-71348525D01*
X140356118Y-71347050D01*
X140424788Y-71334153D01*
X140464812Y-71345149D01*
X140526827Y-71374068D01*
X140563469Y-71378892D01*
X140575683Y-71380500D01*
X140575684Y-71380500D01*
X141024317Y-71380500D01*
X141055269Y-71376425D01*
X141073173Y-71374068D01*
X141180404Y-71324065D01*
X141264065Y-71240404D01*
X141314068Y-71133173D01*
X141320500Y-71084316D01*
X141320500Y-70735684D01*
X141314068Y-70686827D01*
X141264065Y-70579596D01*
X141180404Y-70495935D01*
X141172733Y-70488264D01*
X141175561Y-70485435D01*
X141144843Y-70447023D01*
X141137635Y-70377526D01*
X141169143Y-70315165D01*
X141172901Y-70311907D01*
X141172731Y-70311737D01*
X141180401Y-70304066D01*
X141180404Y-70304065D01*
X141198785Y-70285683D01*
X141260104Y-70252200D01*
X141329795Y-70257183D01*
X141374145Y-70285685D01*
X141431684Y-70343224D01*
X141540513Y-70393972D01*
X141590099Y-70400500D01*
X142009900Y-70400499D01*
X142059487Y-70393972D01*
X142168316Y-70343224D01*
X142253224Y-70258316D01*
X142303972Y-70149487D01*
X142310500Y-70099901D01*
X142310499Y-69740100D01*
X142303972Y-69690513D01*
X142253224Y-69581684D01*
X142168316Y-69496776D01*
X142059487Y-69446028D01*
X142059485Y-69446027D01*
X142059486Y-69446027D01*
X142009901Y-69439500D01*
X141590105Y-69439500D01*
X141574386Y-69441569D01*
X141540513Y-69446028D01*
X141540511Y-69446029D01*
X141540509Y-69446029D01*
X141431683Y-69496776D01*
X141404144Y-69524315D01*
X141342820Y-69557800D01*
X141273129Y-69552814D01*
X141228783Y-69524314D01*
X141180404Y-69475935D01*
X141149894Y-69461708D01*
X141122094Y-69448744D01*
X141069656Y-69402572D01*
X141050500Y-69336363D01*
X141050500Y-68861065D01*
X141070185Y-68794026D01*
X141122989Y-68748271D01*
X141150311Y-68739447D01*
X141153231Y-68738867D01*
X141219552Y-68694552D01*
X141263867Y-68628231D01*
X141263867Y-68628229D01*
X141263868Y-68628229D01*
X141275499Y-68569752D01*
X141275500Y-68569750D01*
X141275500Y-68424000D01*
X141295185Y-68356961D01*
X141347989Y-68311206D01*
X141399500Y-68300000D01*
X150139495Y-68300000D01*
X150206534Y-68319685D01*
X150241068Y-68352875D01*
X150287893Y-68419748D01*
X150345016Y-68501329D01*
X150498670Y-68654983D01*
X150506545Y-68660497D01*
X150676678Y-68779625D01*
X150873623Y-68871462D01*
X151083523Y-68927705D01*
X151238149Y-68941232D01*
X151299998Y-68946644D01*
X151300000Y-68946644D01*
X151300002Y-68946644D01*
X151354119Y-68941909D01*
X151516477Y-68927705D01*
X151726377Y-68871462D01*
X151923322Y-68779625D01*
X152101327Y-68654985D01*
X152254985Y-68501327D01*
X152379625Y-68323322D01*
X152471462Y-68126377D01*
X152527705Y-67916477D01*
X152546448Y-67702236D01*
X152546644Y-67700001D01*
X152546644Y-67699998D01*
X152537895Y-67599997D01*
X152527705Y-67483523D01*
X152471462Y-67273623D01*
X152379625Y-67076678D01*
X152271812Y-66922705D01*
X152254983Y-66898670D01*
X152101329Y-66745016D01*
X151923322Y-66620375D01*
X151923320Y-66620374D01*
X151879628Y-66600000D01*
X151726377Y-66528538D01*
X151726374Y-66528537D01*
X151726372Y-66528536D01*
X151516479Y-66472295D01*
X151516471Y-66472294D01*
X151300002Y-66453356D01*
X151299998Y-66453356D01*
X151083528Y-66472294D01*
X151083520Y-66472295D01*
X150873627Y-66528536D01*
X150873623Y-66528538D01*
X150872540Y-66529043D01*
X150676679Y-66620374D01*
X150676677Y-66620375D01*
X150498670Y-66745016D01*
X150345016Y-66898670D01*
X150288063Y-66980009D01*
X150242208Y-67045498D01*
X150241070Y-67047123D01*
X150186494Y-67090748D01*
X150139495Y-67100000D01*
X141399500Y-67100000D01*
X141332461Y-67080315D01*
X141286706Y-67027511D01*
X141275500Y-66976000D01*
X141275500Y-66830249D01*
X141275499Y-66830247D01*
X141263868Y-66771770D01*
X141263867Y-66771769D01*
X141219551Y-66705446D01*
X141155608Y-66662720D01*
X141110804Y-66609108D01*
X141100500Y-66559619D01*
X141100500Y-65860321D01*
X141120185Y-65793282D01*
X141172095Y-65747939D01*
X141180404Y-65744065D01*
X141187650Y-65736819D01*
X141248973Y-65703334D01*
X141275331Y-65700500D01*
X141360134Y-65700500D01*
X141427173Y-65720185D01*
X141431257Y-65722925D01*
X141431682Y-65723223D01*
X141431683Y-65723223D01*
X141431684Y-65723224D01*
X141540513Y-65773972D01*
X141590099Y-65780500D01*
X142009900Y-65780499D01*
X142059487Y-65773972D01*
X142168316Y-65723224D01*
X142253224Y-65638316D01*
X142303972Y-65529487D01*
X142310500Y-65479901D01*
X142310499Y-65120100D01*
X142303972Y-65070513D01*
X142253224Y-64961684D01*
X142168316Y-64876776D01*
X142059487Y-64826028D01*
X142059485Y-64826027D01*
X142059486Y-64826027D01*
X142009901Y-64819500D01*
X141590105Y-64819500D01*
X141574386Y-64821569D01*
X141540513Y-64826028D01*
X141540511Y-64826029D01*
X141540509Y-64826029D01*
X141431683Y-64876776D01*
X141431257Y-64877075D01*
X141430484Y-64877335D01*
X141421852Y-64881361D01*
X141421402Y-64880398D01*
X141365051Y-64899402D01*
X141360134Y-64899500D01*
X141304331Y-64899500D01*
X141237292Y-64879815D01*
X141191537Y-64827011D01*
X141181593Y-64757853D01*
X141210618Y-64694297D01*
X141216650Y-64687819D01*
X141234663Y-64669806D01*
X141264065Y-64640404D01*
X141314068Y-64533173D01*
X141320500Y-64484316D01*
X141320500Y-64135684D01*
X141314068Y-64086827D01*
X141264065Y-63979596D01*
X141180404Y-63895935D01*
X141180402Y-63895933D01*
X141171515Y-63889710D01*
X141173407Y-63887007D01*
X141134641Y-63852858D01*
X141115500Y-63786672D01*
X141115500Y-62916482D01*
X141115736Y-62911075D01*
X141116178Y-62906029D01*
X141119148Y-62872079D01*
X141109010Y-62834244D01*
X141107844Y-62828979D01*
X141107435Y-62826662D01*
X141101047Y-62790428D01*
X141101045Y-62790424D01*
X141098760Y-62784147D01*
X141093176Y-62770664D01*
X141090351Y-62764605D01*
X141067892Y-62732529D01*
X141064985Y-62727967D01*
X141045417Y-62694075D01*
X141045416Y-62694074D01*
X141045415Y-62694072D01*
X141015423Y-62668905D01*
X141011439Y-62665254D01*
X140193460Y-61847275D01*
X137734736Y-59388552D01*
X137731092Y-59384575D01*
X137705928Y-59354585D01*
X137705927Y-59354584D01*
X137705926Y-59354583D01*
X137672023Y-59335009D01*
X137667460Y-59332102D01*
X137635392Y-59309648D01*
X137629350Y-59306831D01*
X137615846Y-59301237D01*
X137609570Y-59298952D01*
X137571015Y-59292154D01*
X137565733Y-59290983D01*
X137527920Y-59280851D01*
X137496861Y-59283569D01*
X137488918Y-59284264D01*
X137483518Y-59284500D01*
X120216484Y-59284500D01*
X120211081Y-59284264D01*
X120204235Y-59283665D01*
X120172079Y-59280851D01*
X120172078Y-59280851D01*
X120134262Y-59290983D01*
X120128984Y-59292153D01*
X120090426Y-59298952D01*
X120084206Y-59301216D01*
X120070599Y-59306853D01*
X120064604Y-59309649D01*
X120032532Y-59332105D01*
X120027973Y-59335010D01*
X119994073Y-59354583D01*
X119968905Y-59384575D01*
X119965250Y-59388563D01*
X112570403Y-66783411D01*
X112509080Y-66816896D01*
X112439388Y-66811912D01*
X112383455Y-66770040D01*
X112368160Y-66743180D01*
X112353313Y-66707335D01*
X112353312Y-66707333D01*
X112353310Y-66707328D01*
X112353308Y-66707325D01*
X112353306Y-66707321D01*
X112331074Y-66674050D01*
X112308993Y-66641004D01*
X112242671Y-66596690D01*
X112217182Y-66586133D01*
X112214561Y-66585047D01*
X112208231Y-66582425D01*
X112202395Y-66580655D01*
X112203117Y-66578272D01*
X112150878Y-66550931D01*
X112116317Y-66490208D01*
X112113000Y-66461718D01*
X112113000Y-65884545D01*
X112132685Y-65817506D01*
X112149314Y-65796869D01*
X120163431Y-57782751D01*
X120224752Y-57749268D01*
X120294444Y-57754252D01*
X120309552Y-57761070D01*
X120336046Y-57775232D01*
X120534066Y-57835300D01*
X120534065Y-57835300D01*
X120552529Y-57837118D01*
X120740000Y-57855583D01*
X120945934Y-57835300D01*
X121143954Y-57775232D01*
X121326450Y-57677685D01*
X121486410Y-57546410D01*
X121617685Y-57386450D01*
X121715232Y-57203954D01*
X121775300Y-57005934D01*
X121795583Y-56800000D01*
X122224417Y-56800000D01*
X122244699Y-57005932D01*
X122244700Y-57005934D01*
X122304768Y-57203954D01*
X122402315Y-57386450D01*
X122402317Y-57386452D01*
X122533589Y-57546410D01*
X122630209Y-57625702D01*
X122693550Y-57677685D01*
X122876046Y-57775232D01*
X123074066Y-57835300D01*
X123074065Y-57835300D01*
X123092529Y-57837118D01*
X123280000Y-57855583D01*
X123485934Y-57835300D01*
X123683954Y-57775232D01*
X123866450Y-57677685D01*
X124026410Y-57546410D01*
X124157685Y-57386450D01*
X124255232Y-57203954D01*
X124315300Y-57005934D01*
X124335583Y-56800000D01*
X124764417Y-56800000D01*
X124784699Y-57005932D01*
X124784700Y-57005934D01*
X124844768Y-57203954D01*
X124942315Y-57386450D01*
X124942317Y-57386452D01*
X125073589Y-57546410D01*
X125170209Y-57625702D01*
X125233550Y-57677685D01*
X125416046Y-57775232D01*
X125614066Y-57835300D01*
X125614065Y-57835300D01*
X125632529Y-57837118D01*
X125820000Y-57855583D01*
X126025934Y-57835300D01*
X126223954Y-57775232D01*
X126406450Y-57677685D01*
X126566410Y-57546410D01*
X126697685Y-57386450D01*
X126795232Y-57203954D01*
X126855300Y-57005934D01*
X126875583Y-56800000D01*
X126855300Y-56594066D01*
X126795232Y-56396046D01*
X126697685Y-56213550D01*
X126645702Y-56150209D01*
X126566410Y-56053589D01*
X126501111Y-56000000D01*
X149294778Y-56000000D01*
X149298290Y-56053590D01*
X149313644Y-56287837D01*
X149313646Y-56287849D01*
X149369917Y-56570745D01*
X149369921Y-56570760D01*
X149462642Y-56843905D01*
X149590219Y-57102606D01*
X149590223Y-57102613D01*
X149750478Y-57342452D01*
X149940672Y-57559327D01*
X150157547Y-57749521D01*
X150308672Y-57850499D01*
X150397389Y-57909778D01*
X150656098Y-58037359D01*
X150929247Y-58130081D01*
X151212161Y-58186356D01*
X151500000Y-58205222D01*
X151787839Y-58186356D01*
X152070753Y-58130081D01*
X152343902Y-58037359D01*
X152602611Y-57909778D01*
X152842454Y-57749520D01*
X153059327Y-57559327D01*
X153249520Y-57342454D01*
X153409778Y-57102611D01*
X153537359Y-56843902D01*
X153630081Y-56570753D01*
X153686356Y-56287839D01*
X153705222Y-56000000D01*
X153686356Y-55712161D01*
X153630081Y-55429247D01*
X153537359Y-55156098D01*
X153409778Y-54897389D01*
X153249520Y-54657546D01*
X153059327Y-54440672D01*
X152842452Y-54250478D01*
X152602613Y-54090223D01*
X152602606Y-54090219D01*
X152343905Y-53962642D01*
X152070760Y-53869921D01*
X152070754Y-53869919D01*
X152070753Y-53869919D01*
X152070751Y-53869918D01*
X152070745Y-53869917D01*
X151787849Y-53813646D01*
X151787839Y-53813644D01*
X151500000Y-53794778D01*
X151212161Y-53813644D01*
X151212155Y-53813645D01*
X151212150Y-53813646D01*
X150929254Y-53869917D01*
X150929239Y-53869921D01*
X150656094Y-53962642D01*
X150397393Y-54090219D01*
X150397386Y-54090223D01*
X150157547Y-54250478D01*
X149940672Y-54440672D01*
X149750478Y-54657547D01*
X149590223Y-54897386D01*
X149590219Y-54897393D01*
X149462642Y-55156094D01*
X149369921Y-55429239D01*
X149369917Y-55429254D01*
X149313646Y-55712150D01*
X149313644Y-55712161D01*
X149294778Y-56000000D01*
X126501111Y-56000000D01*
X126416121Y-55930252D01*
X126406450Y-55922315D01*
X126223954Y-55824768D01*
X126025934Y-55764700D01*
X126025932Y-55764699D01*
X126025934Y-55764699D01*
X125820000Y-55744417D01*
X125614067Y-55764699D01*
X125416043Y-55824769D01*
X125328114Y-55871769D01*
X125233550Y-55922315D01*
X125233548Y-55922316D01*
X125233547Y-55922317D01*
X125073589Y-56053589D01*
X124942317Y-56213547D01*
X124844769Y-56396043D01*
X124784699Y-56594067D01*
X124764417Y-56800000D01*
X124335583Y-56800000D01*
X124315300Y-56594066D01*
X124255232Y-56396046D01*
X124157685Y-56213550D01*
X124105702Y-56150209D01*
X124026410Y-56053589D01*
X123876121Y-55930252D01*
X123866450Y-55922315D01*
X123683954Y-55824768D01*
X123485934Y-55764700D01*
X123485932Y-55764699D01*
X123485934Y-55764699D01*
X123280000Y-55744417D01*
X123074067Y-55764699D01*
X122876043Y-55824769D01*
X122788114Y-55871769D01*
X122693550Y-55922315D01*
X122693548Y-55922316D01*
X122693547Y-55922317D01*
X122533589Y-56053589D01*
X122402317Y-56213547D01*
X122304769Y-56396043D01*
X122244699Y-56594067D01*
X122224417Y-56800000D01*
X121795583Y-56800000D01*
X121775300Y-56594066D01*
X121715232Y-56396046D01*
X121617685Y-56213550D01*
X121565702Y-56150209D01*
X121486410Y-56053589D01*
X121336121Y-55930252D01*
X121326450Y-55922315D01*
X121143954Y-55824768D01*
X120945934Y-55764700D01*
X120945932Y-55764699D01*
X120945934Y-55764699D01*
X120740000Y-55744417D01*
X120534067Y-55764699D01*
X120336043Y-55824769D01*
X120248114Y-55871769D01*
X120153550Y-55922315D01*
X120153548Y-55922316D01*
X120153547Y-55922317D01*
X119993589Y-56053589D01*
X119862317Y-56213547D01*
X119764769Y-56396043D01*
X119704699Y-56594067D01*
X119684417Y-56800000D01*
X119704699Y-57005932D01*
X119704700Y-57005934D01*
X119762999Y-57198122D01*
X119763622Y-57267986D01*
X119732019Y-57321795D01*
X118727181Y-58326634D01*
X118665858Y-58360119D01*
X118596166Y-58355135D01*
X118540233Y-58313263D01*
X118515816Y-58247799D01*
X118515500Y-58238953D01*
X118515500Y-57894029D01*
X118535185Y-57826990D01*
X118587989Y-57781235D01*
X118603512Y-57775366D01*
X118603954Y-57775232D01*
X118786450Y-57677685D01*
X118946410Y-57546410D01*
X119077685Y-57386450D01*
X119175232Y-57203954D01*
X119235300Y-57005934D01*
X119255583Y-56800000D01*
X119235300Y-56594066D01*
X119175232Y-56396046D01*
X119077685Y-56213550D01*
X119025702Y-56150209D01*
X118946410Y-56053589D01*
X118796121Y-55930252D01*
X118786450Y-55922315D01*
X118603954Y-55824768D01*
X118405934Y-55764700D01*
X118405932Y-55764699D01*
X118405934Y-55764699D01*
X118200000Y-55744417D01*
X117994067Y-55764699D01*
X117796043Y-55824769D01*
X117708114Y-55871769D01*
X117613550Y-55922315D01*
X117613548Y-55922316D01*
X117613547Y-55922317D01*
X117453589Y-56053589D01*
X117322317Y-56213547D01*
X117224769Y-56396043D01*
X117164699Y-56594067D01*
X117144417Y-56800000D01*
X117164699Y-57005932D01*
X117164700Y-57005934D01*
X117224768Y-57203954D01*
X117322315Y-57386450D01*
X117322317Y-57386452D01*
X117453589Y-57546410D01*
X117550209Y-57625702D01*
X117613550Y-57677685D01*
X117796046Y-57775232D01*
X117796488Y-57775366D01*
X117796695Y-57775501D01*
X117801676Y-57777565D01*
X117801284Y-57778509D01*
X117854929Y-57813660D01*
X117883389Y-57877471D01*
X117884500Y-57894029D01*
X117884500Y-58417953D01*
X117864815Y-58484992D01*
X117848181Y-58505634D01*
X112936056Y-63417758D01*
X112874733Y-63451243D01*
X112805041Y-63446259D01*
X112749108Y-63404387D01*
X112730445Y-63368397D01*
X112729951Y-63366879D01*
X112729950Y-63366878D01*
X112729950Y-63366874D01*
X112668759Y-63246780D01*
X112668757Y-63246778D01*
X112668754Y-63246774D01*
X112573456Y-63151476D01*
X112573452Y-63151473D01*
X112573451Y-63151472D01*
X112453357Y-63090281D01*
X112453356Y-63090280D01*
X112453353Y-63090279D01*
X112354258Y-63074584D01*
X112291124Y-63044654D01*
X112285976Y-63039792D01*
X109371819Y-60125635D01*
X109338334Y-60064312D01*
X109335500Y-60037954D01*
X109335500Y-57894029D01*
X109355185Y-57826990D01*
X109407989Y-57781235D01*
X109423512Y-57775366D01*
X109423954Y-57775232D01*
X109606450Y-57677685D01*
X109616116Y-57669752D01*
X110509500Y-57669752D01*
X110521131Y-57728229D01*
X110521132Y-57728230D01*
X110565447Y-57794552D01*
X110631769Y-57838867D01*
X110631770Y-57838868D01*
X110690247Y-57850499D01*
X110690250Y-57850500D01*
X110690252Y-57850500D01*
X112429750Y-57850500D01*
X112429751Y-57850499D01*
X112444568Y-57847552D01*
X112488229Y-57838868D01*
X112488229Y-57838867D01*
X112488231Y-57838867D01*
X112554552Y-57794552D01*
X112598867Y-57728231D01*
X112598867Y-57728229D01*
X112598868Y-57728229D01*
X112610499Y-57669752D01*
X112610500Y-57669750D01*
X112610500Y-55930249D01*
X112610499Y-55930247D01*
X112598868Y-55871770D01*
X112598867Y-55871769D01*
X112554552Y-55805447D01*
X112488230Y-55761132D01*
X112488229Y-55761131D01*
X112429752Y-55749500D01*
X112429748Y-55749500D01*
X110690252Y-55749500D01*
X110690247Y-55749500D01*
X110631770Y-55761131D01*
X110631769Y-55761132D01*
X110565447Y-55805447D01*
X110521132Y-55871769D01*
X110521131Y-55871770D01*
X110509500Y-55930247D01*
X110509500Y-57669752D01*
X109616116Y-57669752D01*
X109766410Y-57546410D01*
X109897685Y-57386450D01*
X109995232Y-57203954D01*
X110055300Y-57005934D01*
X110075583Y-56800000D01*
X110055300Y-56594066D01*
X109995232Y-56396046D01*
X109897685Y-56213550D01*
X109845702Y-56150209D01*
X109766410Y-56053589D01*
X109616121Y-55930252D01*
X109606450Y-55922315D01*
X109423954Y-55824768D01*
X109225934Y-55764700D01*
X109225932Y-55764699D01*
X109225934Y-55764699D01*
X109020000Y-55744417D01*
X108814067Y-55764699D01*
X108616043Y-55824769D01*
X108528114Y-55871769D01*
X108433550Y-55922315D01*
X108433548Y-55922316D01*
X108433547Y-55922317D01*
X108273589Y-56053589D01*
X108142317Y-56213547D01*
X108044769Y-56396043D01*
X107984699Y-56594067D01*
X107964417Y-56800000D01*
X107984699Y-57005932D01*
X107984700Y-57005934D01*
X108044768Y-57203954D01*
X108142315Y-57386450D01*
X108142317Y-57386452D01*
X108273589Y-57546410D01*
X108370209Y-57625702D01*
X108433550Y-57677685D01*
X108616046Y-57775232D01*
X108616488Y-57775366D01*
X108616695Y-57775501D01*
X108621676Y-57777565D01*
X108621284Y-57778509D01*
X108674929Y-57813660D01*
X108703389Y-57877471D01*
X108704500Y-57894029D01*
X108704500Y-60203520D01*
X108704264Y-60208927D01*
X108699906Y-60258730D01*
X108697784Y-60258544D01*
X108686797Y-60313195D01*
X108638178Y-60363374D01*
X108570148Y-60379302D01*
X108504307Y-60355922D01*
X108489359Y-60343175D01*
X106831819Y-58685635D01*
X106798334Y-58624312D01*
X106795500Y-58597954D01*
X106795500Y-57894029D01*
X106815185Y-57826990D01*
X106867989Y-57781235D01*
X106883512Y-57775366D01*
X106883954Y-57775232D01*
X107066450Y-57677685D01*
X107226410Y-57546410D01*
X107357685Y-57386450D01*
X107455232Y-57203954D01*
X107515300Y-57005934D01*
X107535583Y-56800000D01*
X107515300Y-56594066D01*
X107455232Y-56396046D01*
X107357685Y-56213550D01*
X107305702Y-56150209D01*
X107226410Y-56053589D01*
X107076121Y-55930252D01*
X107066450Y-55922315D01*
X106883954Y-55824768D01*
X106685934Y-55764700D01*
X106685932Y-55764699D01*
X106685934Y-55764699D01*
X106480000Y-55744417D01*
X106274067Y-55764699D01*
X106076043Y-55824769D01*
X105988114Y-55871769D01*
X105893550Y-55922315D01*
X105893548Y-55922316D01*
X105893547Y-55922317D01*
X105733589Y-56053589D01*
X105602317Y-56213547D01*
X105504769Y-56396043D01*
X105444699Y-56594067D01*
X105424417Y-56800000D01*
X105444699Y-57005932D01*
X105444700Y-57005934D01*
X105504768Y-57203954D01*
X105602315Y-57386450D01*
X105602317Y-57386452D01*
X105733589Y-57546410D01*
X105830209Y-57625702D01*
X105893550Y-57677685D01*
X106076046Y-57775232D01*
X106076488Y-57775366D01*
X106076695Y-57775501D01*
X106081676Y-57777565D01*
X106081284Y-57778509D01*
X106134929Y-57813660D01*
X106163389Y-57877471D01*
X106164500Y-57894029D01*
X106164500Y-58378954D01*
X106144815Y-58445993D01*
X106092011Y-58491748D01*
X106022853Y-58501692D01*
X105959297Y-58472667D01*
X105952819Y-58466635D01*
X104901854Y-57415670D01*
X104868369Y-57354347D01*
X104873353Y-57284655D01*
X104880178Y-57269534D01*
X104881006Y-57267986D01*
X104915232Y-57203954D01*
X104975300Y-57005934D01*
X104995583Y-56800000D01*
X104975300Y-56594066D01*
X104915232Y-56396046D01*
X104817685Y-56213550D01*
X104765702Y-56150209D01*
X104686410Y-56053589D01*
X104536121Y-55930252D01*
X104526450Y-55922315D01*
X104343954Y-55824768D01*
X104145934Y-55764700D01*
X104145932Y-55764699D01*
X104145934Y-55764699D01*
X103940000Y-55744417D01*
X103734067Y-55764699D01*
X103536043Y-55824769D01*
X103448114Y-55871769D01*
X103353550Y-55922315D01*
X103353548Y-55922316D01*
X103353547Y-55922317D01*
X103193589Y-56053589D01*
X103062317Y-56213547D01*
X102964769Y-56396043D01*
X102904699Y-56594067D01*
X102884417Y-56800000D01*
X102904699Y-57005932D01*
X102904700Y-57005934D01*
X102964768Y-57203954D01*
X103062315Y-57386450D01*
X103062317Y-57386452D01*
X103193589Y-57546410D01*
X103290209Y-57625702D01*
X103353550Y-57677685D01*
X103536046Y-57775232D01*
X103734066Y-57835300D01*
X103734065Y-57835300D01*
X103752529Y-57837118D01*
X103940000Y-57855583D01*
X104145934Y-57835300D01*
X104292088Y-57790964D01*
X104361951Y-57790342D01*
X104415761Y-57821945D01*
X104766635Y-58172819D01*
X104800120Y-58234142D01*
X104795136Y-58303834D01*
X104753264Y-58359767D01*
X104687800Y-58384184D01*
X104678954Y-58384500D01*
X103382046Y-58384500D01*
X103315007Y-58364815D01*
X103294365Y-58348181D01*
X102361854Y-57415670D01*
X102328369Y-57354347D01*
X102333353Y-57284655D01*
X102340178Y-57269534D01*
X102341006Y-57267986D01*
X102375232Y-57203954D01*
X102435300Y-57005934D01*
X102455583Y-56800000D01*
X102435300Y-56594066D01*
X102375232Y-56396046D01*
X102277685Y-56213550D01*
X102225702Y-56150209D01*
X102146410Y-56053589D01*
X101996121Y-55930252D01*
X101986450Y-55922315D01*
X101803954Y-55824768D01*
X101605934Y-55764700D01*
X101605932Y-55764699D01*
X101605934Y-55764699D01*
X101400000Y-55744417D01*
X101194067Y-55764699D01*
X100996043Y-55824769D01*
X100908114Y-55871769D01*
X100813550Y-55922315D01*
X100813548Y-55922316D01*
X100813547Y-55922317D01*
X100653589Y-56053589D01*
X100522317Y-56213547D01*
X100424769Y-56396043D01*
X100364699Y-56594067D01*
X100344417Y-56800000D01*
X100364699Y-57005932D01*
X100364700Y-57005934D01*
X100424768Y-57203954D01*
X100522315Y-57386450D01*
X100522317Y-57386452D01*
X100653589Y-57546410D01*
X100750209Y-57625702D01*
X100813550Y-57677685D01*
X100996046Y-57775232D01*
X101194066Y-57835300D01*
X101194065Y-57835300D01*
X101212529Y-57837118D01*
X101400000Y-57855583D01*
X101605934Y-57835300D01*
X101752088Y-57790964D01*
X101821951Y-57790342D01*
X101875761Y-57821945D01*
X102965245Y-58911429D01*
X102968900Y-58915417D01*
X102994071Y-58945414D01*
X102994073Y-58945416D01*
X103007406Y-58953114D01*
X103055621Y-59003681D01*
X103068843Y-59072289D01*
X103042875Y-59137153D01*
X102985960Y-59177681D01*
X102945405Y-59184500D01*
X101642046Y-59184500D01*
X101575007Y-59164815D01*
X101554365Y-59148181D01*
X99821854Y-57415670D01*
X99788369Y-57354347D01*
X99793353Y-57284655D01*
X99800178Y-57269534D01*
X99801006Y-57267986D01*
X99835232Y-57203954D01*
X99895300Y-57005934D01*
X99915583Y-56800000D01*
X99895300Y-56594066D01*
X99835232Y-56396046D01*
X99737685Y-56213550D01*
X99685702Y-56150209D01*
X99606410Y-56053589D01*
X99456121Y-55930252D01*
X99446450Y-55922315D01*
X99263954Y-55824768D01*
X99065934Y-55764700D01*
X99065932Y-55764699D01*
X99065934Y-55764699D01*
X98860000Y-55744417D01*
X98654067Y-55764699D01*
X98456043Y-55824769D01*
X98368114Y-55871769D01*
X98273550Y-55922315D01*
X98273548Y-55922316D01*
X98273547Y-55922317D01*
X98113589Y-56053589D01*
X97982317Y-56213547D01*
X97884769Y-56396043D01*
X97824699Y-56594067D01*
X97804417Y-56800000D01*
X97824699Y-57005932D01*
X97824700Y-57005934D01*
X97884768Y-57203954D01*
X97982315Y-57386450D01*
X97982317Y-57386452D01*
X98113589Y-57546410D01*
X98210209Y-57625702D01*
X98273550Y-57677685D01*
X98456046Y-57775232D01*
X98654066Y-57835300D01*
X98654065Y-57835300D01*
X98672529Y-57837118D01*
X98860000Y-57855583D01*
X99065934Y-57835300D01*
X99212088Y-57790964D01*
X99281951Y-57790342D01*
X99335761Y-57821945D01*
X101186635Y-59672819D01*
X101220120Y-59734142D01*
X101215136Y-59803834D01*
X101173264Y-59859767D01*
X101107800Y-59884184D01*
X101098954Y-59884500D01*
X99802047Y-59884500D01*
X99735008Y-59864815D01*
X99714366Y-59848181D01*
X98515501Y-58649316D01*
X97281853Y-57415669D01*
X97248369Y-57354347D01*
X97253353Y-57284655D01*
X97260178Y-57269534D01*
X97261006Y-57267986D01*
X97295232Y-57203954D01*
X97355300Y-57005934D01*
X97375583Y-56800000D01*
X97355300Y-56594066D01*
X97295232Y-56396046D01*
X97197685Y-56213550D01*
X97145702Y-56150209D01*
X97066410Y-56053589D01*
X96916121Y-55930252D01*
X96906450Y-55922315D01*
X96723954Y-55824768D01*
X96525934Y-55764700D01*
X96525932Y-55764699D01*
X96525934Y-55764699D01*
X96320000Y-55744417D01*
X96114067Y-55764699D01*
X95916043Y-55824769D01*
X95828114Y-55871769D01*
X95733550Y-55922315D01*
X95733548Y-55922316D01*
X95733547Y-55922317D01*
X95573589Y-56053589D01*
X95442317Y-56213547D01*
X95344769Y-56396043D01*
X95284699Y-56594067D01*
X95264417Y-56800000D01*
X95284699Y-57005932D01*
X95284700Y-57005934D01*
X95344768Y-57203954D01*
X95442315Y-57386450D01*
X95442317Y-57386452D01*
X95573589Y-57546410D01*
X95670209Y-57625702D01*
X95733550Y-57677685D01*
X95916046Y-57775232D01*
X96114066Y-57835300D01*
X96114065Y-57835300D01*
X96132529Y-57837118D01*
X96320000Y-57855583D01*
X96525934Y-57835300D01*
X96672085Y-57790965D01*
X96741950Y-57790342D01*
X96795760Y-57821945D01*
X99385250Y-60411435D01*
X99388905Y-60415423D01*
X99397720Y-60425928D01*
X99414072Y-60445415D01*
X99447975Y-60464989D01*
X99452529Y-60467891D01*
X99484607Y-60490352D01*
X99484609Y-60490352D01*
X99490664Y-60493176D01*
X99504147Y-60498760D01*
X99510424Y-60501045D01*
X99510428Y-60501047D01*
X99548987Y-60507845D01*
X99554244Y-60509010D01*
X99592079Y-60519148D01*
X99631080Y-60515735D01*
X99636483Y-60515500D01*
X104517954Y-60515500D01*
X104584993Y-60535185D01*
X104605635Y-60551819D01*
X108321635Y-64267819D01*
X108355120Y-64329142D01*
X108350136Y-64398834D01*
X108308264Y-64454767D01*
X108242800Y-64479184D01*
X108233954Y-64479500D01*
X108035683Y-64479500D01*
X107986828Y-64485931D01*
X107879595Y-64535935D01*
X107795935Y-64619595D01*
X107745931Y-64726828D01*
X107739500Y-64775683D01*
X107739500Y-65224316D01*
X107745931Y-65273171D01*
X107745932Y-65273173D01*
X107795935Y-65380404D01*
X107879596Y-65464065D01*
X107986827Y-65514068D01*
X108035683Y-65520500D01*
X108035684Y-65520500D01*
X108232954Y-65520500D01*
X108299993Y-65540185D01*
X108320635Y-65556819D01*
X108448181Y-65684365D01*
X108481666Y-65745688D01*
X108484500Y-65772046D01*
X108484500Y-65999114D01*
X108482117Y-66023307D01*
X108474500Y-66061597D01*
X108474500Y-66641034D01*
X108454815Y-66708073D01*
X108402011Y-66753828D01*
X108332853Y-66763772D01*
X108269297Y-66734747D01*
X108262827Y-66728724D01*
X108236143Y-66702040D01*
X108199551Y-66665447D01*
X108184132Y-66646659D01*
X108180353Y-66641004D01*
X108132616Y-66609108D01*
X108114031Y-66596690D01*
X108088542Y-66586133D01*
X108085921Y-66585047D01*
X108079591Y-66582425D01*
X108079583Y-66582423D01*
X107992919Y-66565184D01*
X107931008Y-66532799D01*
X107929430Y-66531248D01*
X107865137Y-66466955D01*
X107849011Y-66447098D01*
X107843937Y-66439331D01*
X107817987Y-66419133D01*
X107812241Y-66414059D01*
X107809807Y-66411625D01*
X107809806Y-66411624D01*
X107809805Y-66411623D01*
X107799235Y-66404077D01*
X107792061Y-66398955D01*
X107751626Y-66367483D01*
X107751622Y-66367481D01*
X107745148Y-66363977D01*
X107738569Y-66360760D01*
X107689454Y-66346138D01*
X107640986Y-66329498D01*
X107633769Y-66328294D01*
X107626453Y-66327382D01*
X107577225Y-66329419D01*
X107575269Y-66329500D01*
X106792402Y-66329500D01*
X106725363Y-66309815D01*
X106704721Y-66293181D01*
X106668316Y-66256776D01*
X106656706Y-66251362D01*
X106559487Y-66206028D01*
X106559485Y-66206027D01*
X106559486Y-66206027D01*
X106509901Y-66199500D01*
X106090105Y-66199500D01*
X106040505Y-66206029D01*
X106035569Y-66207468D01*
X105965700Y-66207322D01*
X105913202Y-66176099D01*
X105786819Y-66049716D01*
X105753334Y-65988393D01*
X105750500Y-65962035D01*
X105750500Y-63428781D01*
X105750889Y-63421844D01*
X105754611Y-63388812D01*
X105755270Y-63382966D01*
X105744209Y-63324499D01*
X105738574Y-63287117D01*
X105735348Y-63265713D01*
X105735346Y-63265710D01*
X105732824Y-63257531D01*
X105730024Y-63249532D01*
X105730024Y-63249528D01*
X105702216Y-63196915D01*
X105676425Y-63143358D01*
X105671620Y-63136310D01*
X105666567Y-63129465D01*
X105666566Y-63129462D01*
X105624504Y-63087400D01*
X105584055Y-63043806D01*
X105584054Y-63043805D01*
X105584053Y-63043804D01*
X105576790Y-63038012D01*
X105577310Y-63037359D01*
X105565070Y-63027966D01*
X104538908Y-62001805D01*
X104534271Y-61996617D01*
X104517417Y-61975483D01*
X104509879Y-61966030D01*
X104480540Y-61946027D01*
X104460728Y-61932519D01*
X104412882Y-61897207D01*
X104405297Y-61893198D01*
X104397677Y-61889529D01*
X104373161Y-61881967D01*
X104340822Y-61871992D01*
X104319845Y-61864652D01*
X104284695Y-61852352D01*
X104276326Y-61850768D01*
X104267904Y-61849500D01*
X104267902Y-61849500D01*
X104208426Y-61849500D01*
X104148990Y-61847275D01*
X104139756Y-61848316D01*
X104139662Y-61847486D01*
X104124364Y-61849500D01*
X98328783Y-61849500D01*
X98321844Y-61849110D01*
X98307426Y-61847486D01*
X98282964Y-61844729D01*
X98224511Y-61855789D01*
X98165711Y-61864652D01*
X98157556Y-61867167D01*
X98149530Y-61869975D01*
X98149529Y-61869976D01*
X98149527Y-61869976D01*
X98149524Y-61869978D01*
X98096926Y-61897777D01*
X98043358Y-61923575D01*
X98036308Y-61928380D01*
X98029461Y-61933435D01*
X98008437Y-61954458D01*
X97987413Y-61975483D01*
X97964636Y-61996617D01*
X97943803Y-62015947D01*
X97938013Y-62023208D01*
X97937362Y-62022688D01*
X97927967Y-62034928D01*
X96776804Y-63186092D01*
X96771617Y-63190727D01*
X96741033Y-63215117D01*
X96741029Y-63215121D01*
X96707519Y-63264271D01*
X96672206Y-63312118D01*
X96668216Y-63319667D01*
X96664528Y-63327326D01*
X96646992Y-63384177D01*
X96627353Y-63440301D01*
X96625771Y-63448659D01*
X96624500Y-63457100D01*
X96624500Y-63516573D01*
X96622275Y-63576009D01*
X96623316Y-63585243D01*
X96622485Y-63585336D01*
X96624500Y-63600635D01*
X96624500Y-63925500D01*
X96604815Y-63992539D01*
X96552011Y-64038294D01*
X96500500Y-64049500D01*
X96205247Y-64049500D01*
X96146770Y-64061131D01*
X96146769Y-64061132D01*
X96080447Y-64105447D01*
X96036132Y-64171769D01*
X96036131Y-64171770D01*
X96024500Y-64230247D01*
X96024500Y-65969752D01*
X96036131Y-66028229D01*
X96036132Y-66028230D01*
X96080447Y-66094552D01*
X96146769Y-66138867D01*
X96146770Y-66138868D01*
X96205247Y-66150499D01*
X96205250Y-66150500D01*
X96205252Y-66150500D01*
X96500500Y-66150500D01*
X96567539Y-66170185D01*
X96613294Y-66222989D01*
X96624500Y-66274500D01*
X96624500Y-68046217D01*
X96624110Y-68053155D01*
X96623158Y-68061609D01*
X96619729Y-68092034D01*
X96630788Y-68150479D01*
X96639652Y-68209290D01*
X96642162Y-68217427D01*
X96644978Y-68225475D01*
X96672777Y-68278072D01*
X96698576Y-68331644D01*
X96703362Y-68338665D01*
X96708431Y-68345532D01*
X96708434Y-68345538D01*
X96750495Y-68387599D01*
X96780328Y-68419752D01*
X96790947Y-68431196D01*
X96798210Y-68436988D01*
X96797689Y-68437641D01*
X96809930Y-68447034D01*
X99661090Y-71298193D01*
X99665726Y-71303380D01*
X99690121Y-71333970D01*
X99690121Y-71333971D01*
X99739271Y-71367480D01*
X99787118Y-71402793D01*
X99794654Y-71406776D01*
X99802319Y-71410467D01*
X99802327Y-71410472D01*
X99858509Y-71427801D01*
X99859177Y-71428007D01*
X99915297Y-71447645D01*
X99915299Y-71447645D01*
X99915301Y-71447646D01*
X99915302Y-71447646D01*
X99923698Y-71449234D01*
X99932095Y-71450500D01*
X99932098Y-71450500D01*
X99991559Y-71450500D01*
X100051009Y-71452725D01*
X100051009Y-71452724D01*
X100051010Y-71452725D01*
X100051010Y-71452724D01*
X100060242Y-71451685D01*
X100060335Y-71452513D01*
X100075639Y-71450500D01*
X101038598Y-71450500D01*
X101105637Y-71470185D01*
X101151392Y-71522989D01*
X101161336Y-71592147D01*
X101132311Y-71655703D01*
X101126279Y-71662181D01*
X101056776Y-71731683D01*
X101006027Y-71840514D01*
X100999500Y-71890098D01*
X100999500Y-72309894D01*
X101000772Y-72319560D01*
X101006028Y-72359487D01*
X101056776Y-72468316D01*
X101141684Y-72553224D01*
X101250513Y-72603972D01*
X101300099Y-72610500D01*
X101659900Y-72610499D01*
X101709487Y-72603972D01*
X101818316Y-72553224D01*
X101818319Y-72553220D01*
X101827205Y-72547000D01*
X101828010Y-72548150D01*
X101879150Y-72520221D01*
X101924915Y-72518912D01*
X101999998Y-72530804D01*
X102000000Y-72530804D01*
X102000001Y-72530804D01*
X102046657Y-72523414D01*
X102115951Y-72532368D01*
X102153737Y-72558206D01*
X102159596Y-72564065D01*
X102266827Y-72614068D01*
X102315683Y-72620500D01*
X102315684Y-72620500D01*
X102664317Y-72620500D01*
X102680601Y-72618356D01*
X102713173Y-72614068D01*
X102820404Y-72564065D01*
X102904065Y-72480404D01*
X102904065Y-72480403D01*
X102911736Y-72472733D01*
X102914564Y-72475561D01*
X102952977Y-72444843D01*
X103022474Y-72437635D01*
X103084835Y-72469143D01*
X103088093Y-72472903D01*
X103088264Y-72472733D01*
X103095935Y-72480404D01*
X103179596Y-72564065D01*
X103286827Y-72614068D01*
X103335683Y-72620500D01*
X103335684Y-72620500D01*
X103684317Y-72620500D01*
X103700601Y-72618356D01*
X103733173Y-72614068D01*
X103840404Y-72564065D01*
X103924065Y-72480404D01*
X103974068Y-72373173D01*
X103980500Y-72324316D01*
X103980500Y-71875684D01*
X103980240Y-71873712D01*
X103974068Y-71826828D01*
X103970324Y-71818799D01*
X103924065Y-71719596D01*
X103861819Y-71657350D01*
X103828334Y-71596027D01*
X103825500Y-71569669D01*
X103825500Y-71537758D01*
X103845185Y-71470719D01*
X103891556Y-71428129D01*
X103940572Y-71402222D01*
X103994144Y-71376424D01*
X104001195Y-71371616D01*
X104008038Y-71366566D01*
X104050099Y-71324504D01*
X104053934Y-71320946D01*
X104093694Y-71284055D01*
X104093696Y-71284050D01*
X104099487Y-71276790D01*
X104100143Y-71277313D01*
X104109532Y-71265070D01*
X104962784Y-70411819D01*
X105024107Y-70378334D01*
X105050465Y-70375500D01*
X105390260Y-70375500D01*
X105419849Y-70372725D01*
X105425653Y-70370694D01*
X105544475Y-70329116D01*
X105650711Y-70250711D01*
X105725417Y-70149487D01*
X105733624Y-70138367D01*
X105789271Y-70096116D01*
X105833394Y-70088000D01*
X106153717Y-70088000D01*
X106160655Y-70088389D01*
X106192550Y-70091983D01*
X106199534Y-70092770D01*
X106199534Y-70092769D01*
X106199535Y-70092770D01*
X106257979Y-70081711D01*
X106316787Y-70072848D01*
X106316790Y-70072846D01*
X106324947Y-70070330D01*
X106332969Y-70067523D01*
X106332972Y-70067523D01*
X106385572Y-70039722D01*
X106439142Y-70013925D01*
X106439142Y-70013924D01*
X106439144Y-70013924D01*
X106446195Y-70009116D01*
X106453034Y-70004067D01*
X106453038Y-70004066D01*
X106495100Y-69962003D01*
X106501156Y-69956383D01*
X106563684Y-69925213D01*
X106633141Y-69932796D01*
X106687472Y-69976727D01*
X106709428Y-70043057D01*
X106709500Y-70047279D01*
X106709500Y-70739586D01*
X106702023Y-70781995D01*
X106698952Y-70790430D01*
X106692154Y-70828983D01*
X106690983Y-70834264D01*
X106680851Y-70872076D01*
X106684264Y-70911074D01*
X106684500Y-70916481D01*
X106684500Y-72817953D01*
X106664815Y-72884992D01*
X106648181Y-72905634D01*
X106105635Y-73448181D01*
X106044312Y-73481666D01*
X106017954Y-73484500D01*
X95341471Y-73484500D01*
X95336068Y-73484264D01*
X95329138Y-73483657D01*
X95297078Y-73480852D01*
X95259263Y-73490983D01*
X95253985Y-73492153D01*
X95215429Y-73498952D01*
X95209172Y-73501229D01*
X95195640Y-73506834D01*
X95189607Y-73509648D01*
X95157531Y-73532107D01*
X95152970Y-73535012D01*
X95119073Y-73554583D01*
X95093900Y-73584581D01*
X95090245Y-73588569D01*
X94351635Y-74327181D01*
X93615635Y-75063181D01*
X93554312Y-75096666D01*
X93527954Y-75099500D01*
X93009740Y-75099500D01*
X92980150Y-75102274D01*
X92855523Y-75145884D01*
X92749289Y-75224288D01*
X92749288Y-75224289D01*
X92670884Y-75330523D01*
X92627274Y-75455150D01*
X92624500Y-75484739D01*
X92624500Y-76165260D01*
X84714914Y-76165260D01*
X84602613Y-76090223D01*
X84602606Y-76090219D01*
X84343905Y-75962642D01*
X84070760Y-75869921D01*
X84070754Y-75869919D01*
X84070753Y-75869919D01*
X84070751Y-75869918D01*
X84070745Y-75869917D01*
X83787849Y-75813646D01*
X83787839Y-75813644D01*
X83500000Y-75794778D01*
X83212161Y-75813644D01*
X83212155Y-75813645D01*
X83212150Y-75813646D01*
X82929254Y-75869917D01*
X82929239Y-75869921D01*
X82656094Y-75962642D01*
X82397393Y-76090219D01*
X82397386Y-76090223D01*
X82157547Y-76250478D01*
X81940672Y-76440672D01*
X81750478Y-76657547D01*
X81590223Y-76897386D01*
X81590219Y-76897393D01*
X81462642Y-77156094D01*
X81369921Y-77429239D01*
X81369917Y-77429254D01*
X81313646Y-77712150D01*
X81313644Y-77712162D01*
X81294778Y-78000000D01*
X80000500Y-78000000D01*
X80000500Y-72604269D01*
X80949500Y-72604269D01*
X80952353Y-72634699D01*
X80952353Y-72634701D01*
X80997206Y-72762880D01*
X80997207Y-72762882D01*
X81077850Y-72872150D01*
X81187118Y-72952793D01*
X81221475Y-72964815D01*
X81315299Y-72997646D01*
X81345730Y-73000500D01*
X81345734Y-73000500D01*
X83954270Y-73000500D01*
X83984699Y-72997646D01*
X83984701Y-72997646D01*
X84048790Y-72975219D01*
X84112882Y-72952793D01*
X84222150Y-72872150D01*
X84302793Y-72762882D01*
X84325219Y-72698790D01*
X84347646Y-72634701D01*
X84347646Y-72634699D01*
X84350500Y-72604269D01*
X84350500Y-71395730D01*
X84347646Y-71365300D01*
X84347646Y-71365298D01*
X84308429Y-71253225D01*
X84302793Y-71237118D01*
X84222150Y-71127850D01*
X84112882Y-71047207D01*
X84112880Y-71047206D01*
X83984700Y-71002353D01*
X83954270Y-70999500D01*
X83954266Y-70999500D01*
X81345734Y-70999500D01*
X81345730Y-70999500D01*
X81315300Y-71002353D01*
X81315298Y-71002353D01*
X81187119Y-71047206D01*
X81187117Y-71047207D01*
X81077850Y-71127850D01*
X80997207Y-71237117D01*
X80997206Y-71237119D01*
X80952353Y-71365298D01*
X80952353Y-71365300D01*
X80949500Y-71395730D01*
X80949500Y-72604269D01*
X80000500Y-72604269D01*
X80000500Y-69904269D01*
X81949500Y-69904269D01*
X81952353Y-69934699D01*
X81952353Y-69934701D01*
X81997206Y-70062880D01*
X81997207Y-70062882D01*
X82077850Y-70172150D01*
X82187118Y-70252793D01*
X82224139Y-70265747D01*
X82315299Y-70297646D01*
X82345730Y-70300500D01*
X82345734Y-70300500D01*
X87454270Y-70300500D01*
X87484699Y-70297646D01*
X87484701Y-70297646D01*
X87566836Y-70268905D01*
X87612882Y-70252793D01*
X87722150Y-70172150D01*
X87802793Y-70062882D01*
X87802794Y-70062880D01*
X87808311Y-70055405D01*
X87810285Y-70056862D01*
X87849580Y-70016485D01*
X87910480Y-70000500D01*
X88801221Y-70000500D01*
X88868260Y-70020185D01*
X88901715Y-70057163D01*
X88903650Y-70055758D01*
X88909386Y-70063653D01*
X89004688Y-70158955D01*
X89004692Y-70158958D01*
X89004694Y-70158960D01*
X89124788Y-70220151D01*
X89124790Y-70220151D01*
X89124792Y-70220152D01*
X89257912Y-70241236D01*
X89257914Y-70241236D01*
X89257916Y-70241236D01*
X89391035Y-70220152D01*
X89391035Y-70220151D01*
X89391040Y-70220151D01*
X89511134Y-70158960D01*
X89606442Y-70063652D01*
X89610556Y-70055576D01*
X89658526Y-70004779D01*
X89701645Y-69989392D01*
X89725304Y-69985646D01*
X89804708Y-69945187D01*
X89873373Y-69932291D01*
X89886428Y-69934308D01*
X89985315Y-69955043D01*
X90101393Y-69940573D01*
X90206484Y-69889198D01*
X90220945Y-69874736D01*
X90282266Y-69841250D01*
X90348890Y-69845135D01*
X90437339Y-69875500D01*
X90437340Y-69875500D01*
X91175500Y-69875500D01*
X91242539Y-69895185D01*
X91288294Y-69947989D01*
X91299500Y-69999500D01*
X91299500Y-70069752D01*
X91311131Y-70128229D01*
X91311132Y-70128230D01*
X91355447Y-70194552D01*
X91421769Y-70238867D01*
X91421770Y-70238868D01*
X91480247Y-70250499D01*
X91480250Y-70250500D01*
X91480252Y-70250500D01*
X93519750Y-70250500D01*
X93519751Y-70250499D01*
X93534568Y-70247552D01*
X93578229Y-70238868D01*
X93578229Y-70238867D01*
X93578231Y-70238867D01*
X93644552Y-70194552D01*
X93688867Y-70128231D01*
X93688867Y-70128229D01*
X93688868Y-70128229D01*
X93700499Y-70069752D01*
X93700500Y-70069750D01*
X93700500Y-69180249D01*
X93700499Y-69180247D01*
X93688868Y-69121770D01*
X93688867Y-69121768D01*
X93644553Y-69055450D01*
X93644552Y-69055448D01*
X93644548Y-69055445D01*
X93636316Y-69047212D01*
X93602833Y-68985888D01*
X93600000Y-68959533D01*
X93600000Y-68640467D01*
X93619685Y-68573428D01*
X93636319Y-68552786D01*
X93644551Y-68544553D01*
X93653150Y-68531684D01*
X93688867Y-68478231D01*
X93688867Y-68478229D01*
X93688868Y-68478229D01*
X93700499Y-68419752D01*
X93700500Y-68419750D01*
X93700500Y-68019643D01*
X93701762Y-68001995D01*
X93702367Y-67997788D01*
X93705500Y-67976000D01*
X93705500Y-67424000D01*
X93700803Y-67380316D01*
X93694565Y-67351642D01*
X93689598Y-67328807D01*
X93688077Y-67322584D01*
X93687110Y-67318627D01*
X93644100Y-67237915D01*
X93598345Y-67185111D01*
X93580756Y-67167159D01*
X93580750Y-67167154D01*
X93500940Y-67122511D01*
X93500935Y-67122509D01*
X93433903Y-67102826D01*
X93433899Y-67102825D01*
X93433898Y-67102825D01*
X93376000Y-67094500D01*
X93375996Y-67094500D01*
X93236482Y-67094500D01*
X93169443Y-67074815D01*
X93148801Y-67058181D01*
X92541819Y-66451199D01*
X92508334Y-66389876D01*
X92505500Y-66363518D01*
X92505500Y-65024500D01*
X92525185Y-64957461D01*
X92577989Y-64911706D01*
X92629500Y-64900500D01*
X93293481Y-64900500D01*
X93360520Y-64920185D01*
X93381162Y-64936819D01*
X93443767Y-64999424D01*
X93477252Y-65060747D01*
X93479181Y-65093909D01*
X93479417Y-65093909D01*
X93479417Y-65097966D01*
X93479491Y-65099239D01*
X93479417Y-65099991D01*
X93479417Y-65099999D01*
X93479417Y-65100000D01*
X93480160Y-65107548D01*
X93499699Y-65305932D01*
X93512260Y-65347340D01*
X93559768Y-65503954D01*
X93657315Y-65686450D01*
X93691969Y-65728677D01*
X93788589Y-65846410D01*
X93860096Y-65905093D01*
X93948550Y-65977685D01*
X94131046Y-66075232D01*
X94329066Y-66135300D01*
X94329065Y-66135300D01*
X94347529Y-66137118D01*
X94535000Y-66155583D01*
X94740934Y-66135300D01*
X94938954Y-66075232D01*
X95121450Y-65977685D01*
X95281410Y-65846410D01*
X95412685Y-65686450D01*
X95510232Y-65503954D01*
X95570300Y-65305934D01*
X95590583Y-65100000D01*
X95570300Y-64894066D01*
X95510232Y-64696046D01*
X95412685Y-64513550D01*
X95349959Y-64437118D01*
X95281410Y-64353589D01*
X95131121Y-64230252D01*
X95121450Y-64222315D01*
X94938954Y-64124768D01*
X94740934Y-64064700D01*
X94740932Y-64064699D01*
X94740934Y-64064699D01*
X94553463Y-64046235D01*
X94535000Y-64044417D01*
X94534999Y-64044417D01*
X94534992Y-64044417D01*
X94534239Y-64044491D01*
X94533849Y-64044417D01*
X94528909Y-64044417D01*
X94528909Y-64043479D01*
X94465595Y-64031461D01*
X94434424Y-64008767D01*
X94291326Y-63865669D01*
X94146598Y-63720941D01*
X94144064Y-63718250D01*
X94102929Y-63671817D01*
X94102928Y-63671816D01*
X94102924Y-63671812D01*
X94051896Y-63636591D01*
X94048887Y-63634377D01*
X94017116Y-63609487D01*
X94000060Y-63596124D01*
X94000055Y-63596120D01*
X93990813Y-63591961D01*
X93971266Y-63580936D01*
X93969657Y-63579826D01*
X93962930Y-63575182D01*
X93904941Y-63553189D01*
X93901490Y-63551759D01*
X93844930Y-63526304D01*
X93834946Y-63524474D01*
X93813343Y-63518451D01*
X93803874Y-63514860D01*
X93803870Y-63514859D01*
X93742313Y-63507384D01*
X93738612Y-63506821D01*
X93677608Y-63495642D01*
X93677603Y-63495642D01*
X93615697Y-63499387D01*
X93611952Y-63499500D01*
X92531794Y-63499500D01*
X92464755Y-63479815D01*
X92432528Y-63449812D01*
X92411907Y-63422266D01*
X92408991Y-63418371D01*
X92277737Y-63287117D01*
X92274485Y-63284196D01*
X92269552Y-63279763D01*
X92269554Y-63279764D01*
X92244623Y-63259674D01*
X92173575Y-63222509D01*
X92106543Y-63202826D01*
X92105894Y-63202732D01*
X92048638Y-63194500D01*
X90645858Y-63194500D01*
X90634866Y-63195089D01*
X90634857Y-63195089D01*
X90634856Y-63195090D01*
X90634855Y-63195090D01*
X90603038Y-63198511D01*
X90603029Y-63198513D01*
X90526521Y-63222470D01*
X90526516Y-63222471D01*
X90465188Y-63255960D01*
X90418384Y-63290998D01*
X90418363Y-63291016D01*
X90287114Y-63422266D01*
X90287112Y-63422269D01*
X90279763Y-63430448D01*
X90279764Y-63430446D01*
X90259674Y-63455376D01*
X90222509Y-63526424D01*
X90202826Y-63593456D01*
X90201794Y-63600635D01*
X90196427Y-63637965D01*
X90194500Y-63651365D01*
X90194500Y-65763518D01*
X90174815Y-65830557D01*
X90158181Y-65851199D01*
X89987114Y-66022266D01*
X89987112Y-66022269D01*
X89979763Y-66030448D01*
X89979764Y-66030446D01*
X89959674Y-66055376D01*
X89922509Y-66126424D01*
X89902826Y-66193456D01*
X89900832Y-66207322D01*
X89895655Y-66243334D01*
X89894500Y-66251365D01*
X89894500Y-66679877D01*
X89874815Y-66746916D01*
X89858181Y-66767558D01*
X89498955Y-67126783D01*
X89480173Y-67142199D01*
X89469399Y-67149398D01*
X89435258Y-67200496D01*
X89414033Y-67232259D01*
X89414032Y-67232260D01*
X89394592Y-67329997D01*
X89394592Y-67329999D01*
X89394592Y-67330000D01*
X89396275Y-67338462D01*
X89397117Y-67342692D01*
X89399500Y-67366885D01*
X89399500Y-68535999D01*
X89397118Y-68560188D01*
X89394592Y-68572888D01*
X89394592Y-68572890D01*
X89414032Y-68670627D01*
X89414033Y-68670629D01*
X89429969Y-68694477D01*
X89437204Y-68705305D01*
X89469399Y-68753489D01*
X89480162Y-68760680D01*
X89498954Y-68776102D01*
X89573899Y-68851048D01*
X89589319Y-68869838D01*
X89596511Y-68880602D01*
X89617424Y-68894575D01*
X89617426Y-68894576D01*
X89617428Y-68894577D01*
X89617429Y-68894578D01*
X89679372Y-68935966D01*
X89777112Y-68955409D01*
X89777113Y-68955409D01*
X89789811Y-68952883D01*
X89814003Y-68950500D01*
X89847014Y-68950500D01*
X89914053Y-68970185D01*
X89926720Y-68979511D01*
X89934739Y-68986240D01*
X89934742Y-68986241D01*
X89944137Y-68991666D01*
X89942385Y-68994698D01*
X89983402Y-69024887D01*
X90008348Y-69090152D01*
X89994050Y-69158543D01*
X89945047Y-69208347D01*
X89940582Y-69210386D01*
X89925343Y-69219184D01*
X89925263Y-69219045D01*
X89914134Y-69226278D01*
X89885318Y-69240366D01*
X89816445Y-69252127D01*
X89774565Y-69239453D01*
X89725304Y-69214354D01*
X89725302Y-69214353D01*
X89725299Y-69214352D01*
X89631524Y-69199500D01*
X89631519Y-69199500D01*
X89142402Y-69199500D01*
X89075363Y-69179815D01*
X89054721Y-69163181D01*
X88968316Y-69076776D01*
X88943307Y-69065114D01*
X88859487Y-69026028D01*
X88859485Y-69026027D01*
X88859486Y-69026027D01*
X88809901Y-69019500D01*
X88390105Y-69019500D01*
X88374386Y-69021569D01*
X88340513Y-69026028D01*
X88340511Y-69026029D01*
X88340509Y-69026029D01*
X88231683Y-69076776D01*
X88145279Y-69163181D01*
X88083956Y-69196666D01*
X88057598Y-69199500D01*
X87910480Y-69199500D01*
X87843441Y-69179815D01*
X87809968Y-69143371D01*
X87808311Y-69144595D01*
X87802792Y-69137117D01*
X87722150Y-69027850D01*
X87612882Y-68947207D01*
X87612880Y-68947206D01*
X87484700Y-68902353D01*
X87454270Y-68899500D01*
X87454266Y-68899500D01*
X82345734Y-68899500D01*
X82345730Y-68899500D01*
X82315300Y-68902353D01*
X82315298Y-68902353D01*
X82187119Y-68947206D01*
X82187117Y-68947207D01*
X82077850Y-69027850D01*
X81997207Y-69137117D01*
X81997206Y-69137119D01*
X81952353Y-69265298D01*
X81952353Y-69265300D01*
X81949500Y-69295730D01*
X81949500Y-69904269D01*
X80000500Y-69904269D01*
X80000500Y-65804269D01*
X80949500Y-65804269D01*
X80952353Y-65834699D01*
X80952353Y-65834701D01*
X80997206Y-65962880D01*
X80997207Y-65962882D01*
X81077850Y-66072150D01*
X81187118Y-66152793D01*
X81202845Y-66158296D01*
X81315299Y-66197646D01*
X81345730Y-66200500D01*
X81345734Y-66200500D01*
X83954270Y-66200500D01*
X83984699Y-66197646D01*
X83984701Y-66197646D01*
X84063178Y-66170185D01*
X84112882Y-66152793D01*
X84222150Y-66072150D01*
X84302793Y-65962882D01*
X84338681Y-65860321D01*
X84347646Y-65834701D01*
X84347646Y-65834699D01*
X84350500Y-65804269D01*
X84350500Y-64595730D01*
X84347646Y-64565300D01*
X84347646Y-64565298D01*
X84314006Y-64469163D01*
X84302793Y-64437118D01*
X84222150Y-64327850D01*
X84112882Y-64247207D01*
X84112880Y-64247206D01*
X83984700Y-64202353D01*
X83954270Y-64199500D01*
X83954266Y-64199500D01*
X81345734Y-64199500D01*
X81345730Y-64199500D01*
X81315300Y-64202353D01*
X81315298Y-64202353D01*
X81187119Y-64247206D01*
X81187117Y-64247207D01*
X81077850Y-64327850D01*
X80997207Y-64437117D01*
X80997206Y-64437119D01*
X80952353Y-64565298D01*
X80952353Y-64565300D01*
X80949500Y-64595730D01*
X80949500Y-65804269D01*
X80000500Y-65804269D01*
X80000500Y-56000000D01*
X81294778Y-56000000D01*
X81298290Y-56053590D01*
X81313644Y-56287837D01*
X81313646Y-56287849D01*
X81369917Y-56570745D01*
X81369921Y-56570760D01*
X81462642Y-56843905D01*
X81590219Y-57102606D01*
X81590223Y-57102613D01*
X81750478Y-57342452D01*
X81940672Y-57559327D01*
X82157547Y-57749521D01*
X82308672Y-57850499D01*
X82397389Y-57909778D01*
X82656098Y-58037359D01*
X82929247Y-58130081D01*
X83212161Y-58186356D01*
X83500000Y-58205222D01*
X83787839Y-58186356D01*
X84070753Y-58130081D01*
X84343902Y-58037359D01*
X84602611Y-57909778D01*
X84842454Y-57749520D01*
X85059327Y-57559327D01*
X85249520Y-57342454D01*
X85409778Y-57102611D01*
X85537359Y-56843902D01*
X85630081Y-56570753D01*
X85686356Y-56287839D01*
X85705222Y-56000000D01*
X85686356Y-55712161D01*
X85630081Y-55429247D01*
X85537359Y-55156098D01*
X85409778Y-54897389D01*
X85249520Y-54657546D01*
X85059327Y-54440672D01*
X84842452Y-54250478D01*
X84602613Y-54090223D01*
X84602606Y-54090219D01*
X84343905Y-53962642D01*
X84070760Y-53869921D01*
X84070754Y-53869919D01*
X84070753Y-53869919D01*
X84070751Y-53869918D01*
X84070745Y-53869917D01*
X83787849Y-53813646D01*
X83787839Y-53813644D01*
X83500000Y-53794778D01*
X83212161Y-53813644D01*
X83212155Y-53813645D01*
X83212150Y-53813646D01*
X82929254Y-53869917D01*
X82929239Y-53869921D01*
X82656094Y-53962642D01*
X82397393Y-54090219D01*
X82397386Y-54090223D01*
X82157547Y-54250478D01*
X81940672Y-54440672D01*
X81750478Y-54657547D01*
X81590223Y-54897386D01*
X81590219Y-54897393D01*
X81462642Y-55156094D01*
X81369921Y-55429239D01*
X81369917Y-55429254D01*
X81313646Y-55712150D01*
X81313644Y-55712161D01*
X81294778Y-56000000D01*
X80000500Y-56000000D01*
X80000500Y-53124000D01*
X80020185Y-53056961D01*
X80072989Y-53011206D01*
X80124500Y-53000000D01*
X154876000Y-53000000D01*
X154943039Y-53019685D01*
G37*
%TD.AperFunction*%
%TD*%
%TA.AperFunction,Conductor*%
%TO.N,Net-(J5-Pin_2)*%
G36*
X92115677Y-63419685D02*
G01*
X92136319Y-63436319D01*
X92263681Y-63563681D01*
X92297166Y-63625004D01*
X92300000Y-63651362D01*
X92300000Y-66500000D01*
X93100000Y-67300000D01*
X93376000Y-67300000D01*
X93443039Y-67319685D01*
X93488794Y-67372489D01*
X93500000Y-67424000D01*
X93500000Y-67976000D01*
X93480315Y-68043039D01*
X93427511Y-68088794D01*
X93376000Y-68100000D01*
X91551362Y-68100000D01*
X91484323Y-68080315D01*
X91463681Y-68063681D01*
X91236319Y-67836319D01*
X91202834Y-67774996D01*
X91200000Y-67748638D01*
X91200000Y-67300000D01*
X90900000Y-67000000D01*
X90224000Y-67000000D01*
X90156961Y-66980315D01*
X90111206Y-66927511D01*
X90100000Y-66876000D01*
X90100000Y-66251362D01*
X90119685Y-66184323D01*
X90136319Y-66163681D01*
X90400000Y-65900000D01*
X90400000Y-63651362D01*
X90419685Y-63584323D01*
X90436319Y-63563681D01*
X90563681Y-63436319D01*
X90625004Y-63402834D01*
X90651362Y-63400000D01*
X92048638Y-63400000D01*
X92115677Y-63419685D01*
G37*
%TD.AperFunction*%
%TD*%
M02*
