M48
; DRILL file {KiCad 7.0.9} date Sun Nov 24 18:14:10 2024
; FORMAT={-:-/ absolute / inch / decimal}
; #@! TF.CreationDate,2024-11-24T18:14:10+08:00
; #@! TF.GenerationSoftware,Kicad,Pcbnew,7.0.9
; #@! TF.FileFunction,Plated,1,2,PTH
FMAT,2
INCH
; #@! TA.AperFunction,Plated,PTH,ViaDrill
T1C0.0118
; #@! TA.AperFunction,Plated,PTH,ViaDrill
T2C0.0157
; #@! TA.AperFunction,Plated,PTH,ComponentDrill
T3C0.0394
; #@! TA.AperFunction,Plated,PTH,ComponentDrill
T4C0.0620
; #@! TA.AperFunction,Plated,PTH,ComponentDrill
T5C0.0670
; #@! TA.AperFunction,Plated,PTH,ViaDrill
T6C0.0984
%
G90
G05
T1
X3.3819Y-2.5118
X3.3819Y-2.5551
X3.4252Y-2.5492
X3.4764Y-2.5118
X3.4764Y-2.5551
X3.4764Y-2.5984
X3.4764Y-2.6378
X3.5141Y-2.7484
X3.5551Y-2.6614
X3.574Y-2.6181
X3.5984Y-2.7795
X3.626Y-2.7795
X3.6535Y-2.7795
X3.6781Y-2.7795
X3.6929Y-2.3386
X3.6929Y-2.4094
X3.6929Y-2.6339
X3.7008Y-2.6654
X3.7008Y-2.689
X3.7008Y-2.7126
X3.7008Y-2.7402
X3.7008Y-2.7677
X3.7283Y-2.6339
X3.9094Y-2.8307
X3.9094Y-2.8701
X3.9724Y-2.5866
X3.9724Y-2.6181
X3.9724Y-2.6496
X3.9724Y-2.6811
X3.9724Y-2.7087
X3.9724Y-2.7362
X3.9803Y-2.4843
X3.9961Y-2.5591
X4.0079Y-2.7362
X4.0157Y-2.8386
X4.0276Y-2.4843
X4.0866Y-2.4843
X4.1063Y-2.5551
X4.1102Y-2.6102
X4.126Y-2.8622
X4.1575Y-2.7047
X4.1654Y-2.8622
X4.1811Y-2.811
X4.185Y-2.4921
X4.185Y-2.5512
X4.2283Y-2.5197
X4.2953Y-2.6654
X4.2953Y-2.7205
X4.3228Y-2.6929
X4.3543Y-2.6654
X4.3543Y-2.7205
X4.3939Y-2.5357
X4.3939Y-2.803
X4.4221Y-2.5
X4.4325Y-2.7953
X4.437Y-2.8386
X4.4449Y-2.4764
X4.4449Y-2.5866
X4.4724Y-2.7795
X4.475Y-2.7211
X4.4764Y-2.752
X4.4888Y-2.8282
X4.5321Y-2.825
X4.563Y-2.6024
X4.563Y-2.6339
X4.563Y-2.6614
X4.563Y-2.689
X4.563Y-2.7126
X4.5669Y-2.5512
X4.5709Y-2.4606
X4.5866Y-2.6102
X4.5984Y-2.4409
X4.6063Y-2.5118
X4.6142Y-2.6102
X4.6339Y-2.4016
X4.6408Y-2.6102
X4.6496Y-2.4724
X4.6654Y-2.6102
X4.6772Y-2.3622
X4.6811Y-2.4528
X4.6811Y-2.5
X4.689Y-2.6102
X4.6969Y-2.685
X4.7047Y-2.4134
X4.7283Y-2.5394
X4.7402Y-2.4094
X4.7441Y-2.5866
X4.748Y-2.3701
X4.7717Y-2.4094
X4.7795Y-2.7835
X4.7835Y-2.5866
X4.7913Y-2.3701
X4.7913Y-2.8228
X4.7953Y-2.8813
X4.7992Y-2.4094
X4.8228Y-2.7323
X4.8268Y-2.4094
X4.8268Y-2.6614
X4.8268Y-2.6969
X4.8307Y-2.8386
X4.8504Y-2.3701
X4.8504Y-2.4094
X4.8622Y-2.6614
X4.8622Y-2.6969
X4.8622Y-2.7323
X4.874Y-2.4094
X4.874Y-2.5472
X4.8777Y-2.8998
X4.8976Y-2.6614
X4.8976Y-2.6969
X4.8976Y-2.7323
X4.9016Y-2.4094
X4.9016Y-2.5315
X4.9134Y-2.3701
X4.9252Y-2.4094
X4.9646Y-2.3701
X4.9685Y-2.7323
X4.9764Y-2.4488
X4.9843Y-2.752
X4.9961Y-2.8307
X5.0236Y-2.7402
X5.0354Y-2.7598
X5.0591Y-2.5118
X5.0709Y-2.7362
X5.0906Y-2.7598
X5.1024Y-2.7362
X5.1181Y-2.8307
X5.122Y-2.5118
X5.122Y-2.5472
X5.1417Y-2.7283
X5.1457Y-2.7598
X5.1535Y-2.5669
X5.1575Y-2.6614
X5.1732Y-2.7402
X5.1811Y-2.5118
X5.1811Y-2.5669
X5.185Y-2.6654
X5.2008Y-2.7402
X5.2087Y-2.5669
X5.2244Y-2.6654
X5.2283Y-2.7402
X5.2362Y-2.5669
X5.2638Y-2.6654
X5.2638Y-2.7402
X5.2638Y-2.8307
X5.2795Y-2.5472
X5.2835Y-2.5945
X5.3031Y-2.6654
X5.3031Y-2.7402
X5.3189Y-2.5472
X5.3228Y-2.5945
X5.3425Y-2.6654
X5.3425Y-2.7402
X5.3583Y-2.5945
X5.3701Y-2.5472
X5.3819Y-2.7402
X5.3898Y-2.6654
X5.3937Y-2.5945
X5.4173Y-2.5472
X5.4173Y-2.7402
X5.4252Y-2.6654
X5.4488Y-2.6024
X5.4528Y-2.7402
X5.4567Y-2.8346
X5.4764Y-2.6024
X5.4803Y-2.7402
X5.5039Y-2.6024
X5.5039Y-2.6299
X5.5039Y-2.6535
X5.5039Y-2.6811
X5.5039Y-2.7047
X5.5039Y-2.7402
X5.5157Y-2.7953
X5.5472Y-2.8307
X5.5787Y-2.7087
X5.5827Y-2.4961
X5.5866Y-2.622
X5.5906Y-2.8307
X5.6181Y-2.7087
X5.622Y-2.5315
X5.626Y-2.622
X5.6535Y-2.7362
X5.6693Y-2.622
X5.685Y-2.7087
X5.7087Y-2.622
X5.7244Y-2.7087
X5.748Y-2.622
X5.7559Y-2.7362
X5.7953Y-2.622
X5.7953Y-2.7087
X5.8386Y-2.622
X5.8386Y-2.7087
X5.8858Y-2.622
X5.8898Y-2.7087
X5.9213Y-2.6024
X5.9252Y-2.7283
X5.9646Y-2.7362
X5.9724Y-2.5945
X6.0079Y-2.7126
X6.0118Y-2.622
X6.0236Y-2.6732
T2
X4.6496Y-2.7756
X4.9921Y-2.5118
T3
X3.6921Y-2.2362
X3.7219Y-2.563
X3.7921Y-2.2362
X3.8219Y-2.563
X3.8921Y-2.2362
X3.9921Y-2.2362
X4.0921Y-2.2362
X4.1553Y-3.0197
X4.1921Y-2.2362
X4.2553Y-3.0197
X4.2921Y-2.2362
X4.3553Y-3.0197
X4.3921Y-2.2362
X4.5535Y-2.2362
X4.6535Y-2.2362
X4.7535Y-2.2362
X4.8535Y-2.2362
X4.9535Y-2.2362
T4
X5.9567Y-2.6654
T5
X5.8567Y-2.5654
X5.8567Y-2.7654
X6.0567Y-2.5654
X6.0567Y-2.7654
T6
X3.2874Y-2.2047
X3.2874Y-3.0709
X5.9646Y-2.2047
X5.9646Y-3.0709
T0
M30
